# Blender v2.93.3 OBJ File: 'assets.blend'
# www.blender.org
mtllib rubby3.mtl
o Ruby-3_Cube.091
v 1.804830 -1.000000 -0.095084
v 1.037028 -0.476486 -0.326024
v 0.757470 -0.321129 -0.326024
v 0.317654 -0.029245 -0.402748
v -1.804830 -1.000000 -0.095084
v -1.037028 -0.476486 -0.326024
v -0.757470 -0.321129 -0.326024
v -0.317654 -0.029245 -0.402748
v 0.000000 -1.000000 -0.095084
v 0.000000 2.119453 -0.095084
v 0.000000 -0.476486 -0.326024
v 0.000000 1.315904 -0.326024
v 0.000000 -0.321129 -0.326024
v 0.000000 0.988075 -0.326024
v 0.000000 -0.029245 -0.402748
v 0.000000 0.519786 -0.402748
v 1.804830 -1.000000 0.095084
v 1.037028 -0.476486 0.326024
v 0.757470 -0.321129 0.326024
v 0.317654 -0.029245 0.402748
v -1.804830 -1.000000 0.095084
v -1.037028 -0.476486 0.326024
v -0.757470 -0.321129 0.326024
v -0.317654 -0.029245 0.402748
v 0.000000 -1.000000 0.095084
v 0.000000 2.119453 0.095084
v 0.000000 -0.476486 0.326024
v 0.000000 1.315904 0.326024
v 0.000000 -0.321129 0.326024
v 0.000000 0.988075 0.326024
v 0.000000 -0.029245 0.402748
v 0.000000 0.519786 0.402748
v 1.804830 -1.000000 0.000000
v 0.000000 2.119453 0.000000
v 0.000000 -1.000000 0.000000
v -1.804830 -1.000000 0.000000
vt 0.533019 0.454966
vt 0.408206 0.464394
vt 0.408206 0.464394
vt 0.491038 0.458137
vt 0.621918 0.500000
vt 0.375000 0.500000
vt 0.375000 0.500000
vt 0.587232 0.500000
vt 0.408206 0.420442
vt 0.408206 0.398166
vt 0.375000 0.392560
vt 0.250000 0.500000
vt 0.267560 0.500000
vt 0.408206 0.464394
vt 0.408206 0.464394
vt 0.375000 0.500000
vt 0.375000 0.500000
vt 0.250000 0.625000
vt 0.375000 0.625000
vt 0.621918 0.625000
vt 0.375000 0.625000
vt 0.533019 0.454966
vt 0.491038 0.458137
vt 0.408206 0.464394
vt 0.408206 0.464394
vt 0.621918 0.500000
vt 0.587232 0.500000
vt 0.375000 0.500000
vt 0.375000 0.500000
vt 0.408206 0.420442
vt 0.408206 0.398166
vt 0.375000 0.392560
vt 0.267560 0.500000
vt 0.250000 0.500000
vt 0.408206 0.464394
vt 0.408206 0.464394
vt 0.375000 0.500000
vt 0.375000 0.500000
vn 0.2691 0.1557 -0.9504
vn 0.4308 0.2493 -0.8673
vn -0.0000 -0.0000 -1.0000
vn 0.0000 -0.2542 -0.9671
vn 0.0000 -0.4036 -0.9149
vn -0.2691 0.1557 -0.9504
vn -0.4308 0.2493 -0.8673
vn 0.0000 -1.0000 0.0000
vn -0.8656 0.5008 0.0000
vn 0.8656 0.5008 0.0000
vn 0.2691 0.1557 0.9504
vn 0.4308 0.2493 0.8673
vn -0.0000 -0.0000 1.0000
vn 0.0000 -0.2542 0.9671
vn 0.0000 -0.4036 0.9149
vn -0.2691 0.1557 0.9504
vn -0.4308 0.2493 0.8673
usemtl Ruby
s off
f 14/1/1 3/2/1 4/3/1 16/4/1
f 10/5/2 1/6/2 2/7/2 12/8/2
f 12/8/3 2/7/3 3/2/3 14/1/3
f 15/9/3 16/4/3 4/3/3
f 3/2/4 13/10/4 15/9/4 4/3/4
f 2/7/3 11/11/3 13/10/3 3/2/3
f 1/6/5 9/12/5 11/13/5 2/7/5
f 14/1/6 16/4/6 8/14/6 7/15/6
f 10/5/7 12/8/7 6/16/7 5/17/7
f 12/8/3 14/1/3 7/15/3 6/16/3
f 15/9/3 8/14/3 16/4/3
f 7/15/4 8/14/4 15/9/4 13/10/4
f 6/16/3 7/15/3 13/10/3 11/11/3
f 5/17/5 6/16/5 11/13/5 9/12/5
f 9/12/8 35/18/8 36/19/8 5/17/8
f 5/17/9 36/19/9 34/20/9 10/5/9
f 9/12/8 1/6/8 33/21/8 35/18/8
f 1/6/10 10/5/10 34/20/10 33/21/10
f 30/22/11 32/23/11 20/24/11 19/25/11
f 26/26/12 28/27/12 18/28/12 17/29/12
f 28/27/13 30/22/13 19/25/13 18/28/13
f 31/30/13 20/24/13 32/23/13
f 19/25/14 20/24/14 31/30/14 29/31/14
f 18/28/13 19/25/13 29/31/13 27/32/13
f 17/29/15 18/28/15 27/33/15 25/34/15
f 30/22/16 23/35/16 24/36/16 32/23/16
f 26/26/17 21/37/17 22/38/17 28/27/17
f 28/27/13 22/38/13 23/35/13 30/22/13
f 31/30/13 32/23/13 24/36/13
f 23/35/14 29/31/14 31/30/14 24/36/14
f 22/38/13 27/32/13 29/31/13 23/35/13
f 21/37/15 25/34/15 27/33/15 22/38/15
f 25/34/8 21/37/8 36/19/8 35/18/8
f 21/37/9 26/26/9 34/20/9 36/19/9
f 25/34/8 35/18/8 33/21/8 17/29/8
f 17/29/10 33/21/10 34/20/10 26/26/10
