# Blender v2.93.3 OBJ File: 'assets.blend'
# www.blender.org
mtllib rubby5.mtl
o Cube.059_Cube.093
v 0.300406 0.994403 -0.379257
v 0.797439 0.123022 -0.366659
v 0.624762 1.416387 -0.129219
v 1.404608 0.571977 -0.141817
v 0.232351 0.730776 -0.366659
v 0.958624 0.281692 -0.366659
v 0.217584 0.495626 -0.440110
v 0.458965 0.219402 -0.435042
v -0.300406 0.994403 -0.379257
v -0.797439 0.123022 -0.366659
v -0.624762 1.416387 -0.129219
v -1.404608 0.571977 -0.141817
v -0.232351 0.730776 -0.366659
v -0.958624 0.281692 -0.366659
v -0.217584 0.495626 -0.440110
v -0.458965 0.219402 -0.435042
v 0.000000 1.416387 -0.135518
v 0.000000 0.994403 -0.375274
v 0.000000 0.727314 -0.366659
v 0.000000 0.095354 -0.440110
v 0.000000 0.492717 -0.436529
v 0.000000 0.889933 -0.374460
v 0.000000 0.558501 -0.415895
v 0.000000 1.131423 -0.302159
v 0.300406 0.994403 0.379257
v 0.797439 0.123022 0.366659
v 0.624762 1.416387 0.129219
v 1.404608 0.571977 0.141817
v 0.232351 0.730776 0.366659
v 0.958624 0.281692 0.366659
v 0.217584 0.495626 0.440110
v 0.458965 0.219402 0.435042
v -0.300406 0.994403 0.379257
v -0.797439 0.123022 0.366659
v -0.624762 1.416387 0.129219
v -1.404608 0.571977 0.141817
v -0.232351 0.730776 0.366659
v -0.958624 0.281692 0.366659
v -0.217584 0.495626 0.440110
v -0.458965 0.219402 0.435042
v 0.000000 1.416387 0.135518
v 0.000000 0.994403 0.375274
v 0.000000 0.727314 0.366659
v 0.000000 0.095354 0.440110
v 0.000000 0.492717 0.436529
v 0.000000 0.889933 0.374460
v 0.000000 0.558501 0.415895
v 0.000000 1.131423 0.302159
v 0.624762 1.416387 0.000000
v 1.404608 0.571977 0.000000
v 0.000000 1.416387 0.000000
v -0.624762 1.416387 0.000000
v -1.404608 0.571977 0.000000
v 0.300406 -0.994403 -0.379257
v 0.797439 -0.123022 -0.366659
v 0.624762 -1.416387 -0.129219
v 1.404608 -0.571977 -0.141817
v 0.232351 -0.730776 -0.366659
v 0.958624 -0.281692 -0.366659
v 0.217584 -0.495626 -0.440110
v 0.458965 -0.219402 -0.435042
v -0.300406 -0.994403 -0.379257
v -0.797439 -0.123022 -0.366659
v -0.624762 -1.416387 -0.129219
v -1.404608 -0.571977 -0.141817
v -0.232351 -0.730776 -0.366659
v -0.958624 -0.281692 -0.366659
v -0.217584 -0.495626 -0.440110
v -0.458965 -0.219402 -0.435042
v 0.000000 -1.416387 -0.135518
v 0.000000 -0.994403 -0.375274
v 0.000000 -0.727314 -0.366659
v 0.000000 -0.095354 -0.440110
v 0.000000 -0.492717 -0.436529
v 0.000000 -0.889933 -0.374460
v 0.000000 -0.558501 -0.415895
v 0.000000 -1.131423 -0.302159
v 0.300406 -0.994403 0.379257
v 0.797439 -0.123022 0.366659
v 0.624762 -1.416387 0.129219
v 1.404608 -0.571977 0.141817
v 0.232351 -0.730776 0.366659
v 0.958624 -0.281692 0.366659
v 0.217584 -0.495626 0.440110
v 0.458965 -0.219402 0.435042
v -0.300406 -0.994403 0.379257
v -0.797439 -0.123022 0.366659
v -0.624762 -1.416387 0.129219
v -1.404608 -0.571977 0.141817
v -0.232351 -0.730776 0.366659
v -0.958624 -0.281692 0.366659
v -0.217584 -0.495626 0.440110
v -0.458965 -0.219402 0.435042
v 0.000000 -1.416387 0.135518
v 0.000000 -0.994403 0.375274
v 0.000000 -0.727314 0.366659
v 0.000000 -0.095354 0.440110
v 0.000000 -0.492717 0.436529
v 0.000000 -0.889933 0.374460
v 0.000000 -0.558501 0.415895
v 0.000000 -1.131423 0.302159
v 0.624762 -1.416387 0.000000
v 1.404608 -0.571977 0.000000
v 0.000000 -1.416387 0.000000
v -0.624762 -1.416387 0.000000
v -1.404608 -0.571977 0.000000
v 1.404608 0.000000 -0.135960
v 0.958624 0.000000 -0.370523
v 0.797439 0.000000 -0.366659
v 0.276234 0.000000 -0.440110
v 0.327182 0.000000 -0.438873
v 0.458965 0.000000 -0.435042
v 0.823541 0.000000 -0.368699
v 1.193552 0.000000 -0.254183
v 0.000000 0.000000 -0.440110
v -1.404608 0.000000 -0.135960
v -0.958624 0.000000 -0.370523
v -0.797439 0.000000 -0.366659
v -0.276234 0.000000 -0.440110
v -0.327182 0.000000 -0.438873
v -0.458965 0.000000 -0.435042
v -0.823541 0.000000 -0.368699
v -1.193552 0.000000 -0.254183
v -1.404608 0.000000 0.000000
v 1.404608 0.000000 0.000000
v 1.404608 0.000000 0.135960
v 0.958624 0.000000 0.370523
v 0.797439 0.000000 0.366659
v 0.276234 0.000000 0.440110
v 0.327182 0.000000 0.438873
v 0.458965 0.000000 0.435042
v 0.823541 0.000000 0.368699
v 1.193552 0.000000 0.254183
v 0.000000 0.000000 0.440110
v -1.404608 0.000000 0.135960
v -0.958624 0.000000 0.370523
v -0.797439 0.000000 0.366659
v -0.276234 0.000000 0.440110
v -0.327182 0.000000 0.438873
v -0.458965 0.000000 0.435042
v -0.823541 0.000000 0.368699
v -1.193552 0.000000 0.254183
vt 0.560048 0.500000
vt 0.551092 0.500000
vt 0.560048 0.500000
vt 0.524905 0.500000
vt 0.625000 0.500000
vt 0.508771 0.500000
vt 0.577927 0.500000
vt 0.588359 0.500000
vt 0.583700 0.434273
vt 0.565230 0.444364
vt 0.461178 0.500000
vt 0.551092 0.500000
vt 0.467552 0.500000
vt 0.461913 0.377209
vt 0.571408 0.378032
vt 0.448139 0.500000
vt 0.571623 0.375714
vt 0.591493 0.434273
vt 0.625000 0.500000
vt 0.625000 0.375000
vt 0.600256 0.418824
vt 0.560048 0.500000
vt 0.560048 0.500000
vt 0.551092 0.500000
vt 0.524905 0.500000
vt 0.508771 0.500000
vt 0.625000 0.500000
vt 0.577927 0.500000
vt 0.588359 0.500000
vt 0.461178 0.500000
vt 0.467552 0.500000
vt 0.551092 0.500000
vt 0.448139 0.500000
vt 0.625000 0.500000
vt 0.508771 0.529657
vt 0.625000 0.530784
vt 0.625000 0.528360
vt 0.750000 0.529579
vt 0.750000 0.500000
vt 0.625000 0.530784
vt 0.508771 0.529657
vt 0.625000 0.528360
vt 0.560048 0.500000
vt 0.560048 0.500000
vt 0.551092 0.500000
vt 0.524905 0.500000
vt 0.508771 0.500000
vt 0.625000 0.500000
vt 0.577927 0.500000
vt 0.588359 0.500000
vt 0.583700 0.434273
vt 0.565230 0.444364
vt 0.461178 0.500000
vt 0.467552 0.500000
vt 0.551092 0.500000
vt 0.461913 0.377209
vt 0.571408 0.378032
vt 0.448139 0.500000
vt 0.571623 0.375714
vt 0.591493 0.434273
vt 0.625000 0.500000
vt 0.625000 0.375000
vt 0.600256 0.418824
vt 0.560048 0.500000
vt 0.551092 0.500000
vt 0.560048 0.500000
vt 0.524905 0.500000
vt 0.625000 0.500000
vt 0.508771 0.500000
vt 0.577927 0.500000
vt 0.588359 0.500000
vt 0.461178 0.500000
vt 0.551092 0.500000
vt 0.467552 0.500000
vt 0.448139 0.500000
vt 0.625000 0.500000
vt 0.750000 0.500000
vt 0.531511 0.500000
vt 0.528809 0.500000
vt 0.527488 0.500000
vt 0.440052 0.371979
vt 0.531511 0.500000
vt 0.528809 0.500000
vt 0.527488 0.500000
vt 0.531511 0.500000
vt 0.528809 0.500000
vt 0.527488 0.500000
vt 0.440052 0.371979
vt 0.531511 0.500000
vt 0.528809 0.500000
vt 0.527488 0.500000
vt 0.560048 0.500000
vt 0.560048 0.500000
vt 0.551092 0.500000
vt 0.625000 0.500000
vt 0.577927 0.500000
vt 0.588359 0.500000
vt 0.583700 0.434273
vt 0.565230 0.444364
vt 0.551092 0.500000
vt 0.461913 0.377209
vt 0.571408 0.378032
vt 0.571623 0.375714
vt 0.591493 0.434273
vt 0.625000 0.500000
vt 0.625000 0.375000
vt 0.600256 0.418824
vt 0.560048 0.500000
vt 0.551092 0.500000
vt 0.560048 0.500000
vt 0.625000 0.500000
vt 0.577927 0.500000
vt 0.588359 0.500000
vt 0.551092 0.500000
vt 0.625000 0.500000
vt 0.625000 0.530784
vt 0.625000 0.528360
vt 0.750000 0.500000
vt 0.750000 0.529579
vt 0.625000 0.530784
vt 0.625000 0.528360
vt 0.560048 0.500000
vt 0.551092 0.500000
vt 0.560048 0.500000
vt 0.625000 0.500000
vt 0.577927 0.500000
vt 0.588359 0.500000
vt 0.583700 0.434273
vt 0.565230 0.444364
vt 0.551092 0.500000
vt 0.461913 0.377209
vt 0.571408 0.378032
vt 0.571623 0.375714
vt 0.591493 0.434273
vt 0.625000 0.500000
vt 0.625000 0.375000
vt 0.600256 0.418824
vt 0.560048 0.500000
vt 0.560048 0.500000
vt 0.551092 0.500000
vt 0.625000 0.500000
vt 0.577927 0.500000
vt 0.588359 0.500000
vt 0.551092 0.500000
vt 0.625000 0.500000
vt 0.750000 0.500000
vn 0.2891 0.2688 -0.9188
vn 0.4887 -0.0089 -0.8724
vn 0.2962 0.2573 -0.9198
vn 0.0007 -0.0479 -0.9989
vn -0.0000 0.0000 -1.0000
vn 0.0291 0.0000 -0.9996
vn -0.0166 0.0090 -0.9998
vn 0.0243 0.0029 -0.9997
vn -0.0042 0.2800 -0.9600
vn -0.0133 -0.0078 -0.9999
vn -0.0255 -0.0412 -0.9988
vn 0.2483 0.1996 -0.9479
vn -0.0197 0.2992 -0.9540
vn 0.3083 0.2982 -0.9033
vn 0.0087 0.5048 -0.8632
vn -0.0117 0.4707 -0.8822
vn -0.2891 0.2688 -0.9188
vn -0.4887 -0.0089 -0.8724
vn -0.2962 0.2573 -0.9198
vn -0.0007 -0.0479 -0.9989
vn -0.0291 0.0000 -0.9996
vn 0.0166 0.0090 -0.9998
vn -0.0243 0.0029 -0.9997
vn 0.0042 0.2800 -0.9600
vn 0.0133 -0.0078 -0.9999
vn 0.0255 -0.0412 -0.9988
vn -0.2483 0.1996 -0.9479
vn 0.0197 0.2992 -0.9540
vn -0.3083 0.2982 -0.9033
vn -0.0087 0.5048 -0.8632
vn 0.0117 0.4707 -0.8822
vn -1.0000 0.0000 0.0000
vn -0.7346 0.6785 0.0000
vn 0.0000 1.0000 0.0000
vn 1.0000 0.0000 0.0000
vn 0.7346 0.6785 0.0000
vn 0.2891 0.2688 0.9188
vn 0.4887 -0.0089 0.8724
vn 0.2962 0.2573 0.9198
vn 0.0007 -0.0479 0.9989
vn -0.0000 0.0000 1.0000
vn 0.0291 0.0000 0.9996
vn -0.0166 0.0090 0.9998
vn 0.0243 0.0029 0.9997
vn -0.0042 0.2800 0.9600
vn -0.0133 -0.0078 0.9999
vn -0.0255 -0.0412 0.9988
vn 0.2483 0.1996 0.9479
vn -0.0197 0.2992 0.9540
vn 0.3083 0.2982 0.9033
vn 0.0087 0.5048 0.8632
vn -0.0117 0.4707 0.8822
vn -0.2891 0.2688 0.9188
vn -0.4887 -0.0089 0.8724
vn -0.2962 0.2573 0.9198
vn -0.0007 -0.0479 0.9989
vn -0.0291 0.0000 0.9996
vn 0.0166 0.0090 0.9998
vn -0.0243 0.0029 0.9997
vn 0.0042 0.2800 0.9600
vn 0.0133 -0.0078 0.9999
vn 0.0255 -0.0412 0.9988
vn -0.2483 0.1996 0.9479
vn 0.0197 0.2992 0.9540
vn -0.3083 0.2982 0.9033
vn -0.0087 0.5048 0.8632
vn 0.0117 0.4707 0.8822
vn -0.1980 0.0000 0.9802
vn 0.0779 0.0000 0.9970
vn 0.0135 0.0137 0.9998
vn -0.4437 0.0123 0.8961
vn 0.1980 0.0000 0.9802
vn -0.0779 0.0000 0.9970
vn -0.0135 0.0137 0.9998
vn 0.4437 0.0123 0.8961
vn -0.1980 0.0000 -0.9802
vn 0.0779 0.0000 -0.9970
vn 0.0135 0.0137 -0.9998
vn -0.4437 0.0123 -0.8961
vn 0.1980 0.0000 -0.9802
vn -0.0779 0.0000 -0.9970
vn -0.0135 0.0137 -0.9998
vn 0.4437 0.0123 -0.8961
vn 0.2891 -0.2688 -0.9188
vn 0.4887 0.0089 -0.8724
vn 0.2962 -0.2573 -0.9198
vn 0.0007 0.0479 -0.9989
vn -0.0166 -0.0090 -0.9998
vn 0.0243 -0.0029 -0.9997
vn -0.0042 -0.2800 -0.9600
vn -0.0133 0.0078 -0.9999
vn -0.0255 0.0412 -0.9988
vn 0.2483 -0.1996 -0.9479
vn -0.0197 -0.2992 -0.9540
vn 0.3083 -0.2982 -0.9033
vn 0.0087 -0.5048 -0.8632
vn -0.0117 -0.4707 -0.8822
vn -0.2891 -0.2688 -0.9188
vn -0.4887 0.0089 -0.8724
vn -0.2962 -0.2573 -0.9198
vn -0.0007 0.0479 -0.9989
vn 0.0166 -0.0090 -0.9998
vn -0.0243 -0.0029 -0.9997
vn 0.0042 -0.2800 -0.9600
vn 0.0133 0.0078 -0.9999
vn 0.0255 0.0412 -0.9988
vn -0.2483 -0.1996 -0.9479
vn 0.0197 -0.2992 -0.9540
vn -0.3083 -0.2982 -0.9033
vn -0.0087 -0.5048 -0.8632
vn 0.0117 -0.4707 -0.8822
vn -0.7346 -0.6785 0.0000
vn 0.0000 -1.0000 0.0000
vn 0.7346 -0.6785 0.0000
vn 0.2891 -0.2688 0.9188
vn 0.4887 0.0089 0.8724
vn 0.2962 -0.2573 0.9198
vn 0.0007 0.0479 0.9989
vn -0.0166 -0.0090 0.9998
vn 0.0243 -0.0029 0.9997
vn -0.0042 -0.2800 0.9600
vn -0.0133 0.0078 0.9999
vn -0.0255 0.0412 0.9988
vn 0.2483 -0.1996 0.9479
vn -0.0197 -0.2992 0.9540
vn 0.3083 -0.2982 0.9033
vn 0.0087 -0.5048 0.8632
vn -0.0117 -0.4707 0.8822
vn -0.2891 -0.2688 0.9188
vn -0.4887 0.0089 0.8724
vn -0.2962 -0.2573 0.9198
vn -0.0007 0.0479 0.9989
vn 0.0166 -0.0090 0.9998
vn -0.0243 -0.0029 0.9997
vn 0.0042 -0.2800 0.9600
vn 0.0133 0.0078 0.9999
vn 0.0255 0.0412 0.9988
vn -0.2483 -0.1996 0.9479
vn 0.0197 -0.2992 0.9540
vn -0.3083 -0.2982 0.9033
vn -0.0087 -0.5048 0.8632
vn 0.0117 -0.4707 0.8822
vn 0.0135 -0.0137 0.9998
vn -0.4437 -0.0123 0.8961
vn -0.0135 -0.0137 0.9998
vn 0.4437 -0.0123 0.8961
vn 0.0135 -0.0137 -0.9998
vn -0.4437 -0.0123 -0.8961
vn -0.0135 -0.0137 -0.9998
vn 0.4437 -0.0123 -0.8961
usemtl Ruby
s off
f 5/1/1 2/2/1 7/3/1
f 114/4/2 4/5/2 107/6/2
f 6/7/3 1/8/3 4/5/3
f 22/9/4 1/8/4 5/1/4 19/10/4
f 5/1/5 6/7/5 2/2/5
f 111/11/6 8/12/6 112/13/6
f 20/14/7 21/15/7 7/3/7
f 110/16/8 7/3/8 8/12/8 111/11/8
f 19/10/9 5/1/9 23/17/9
f 22/9/10 18/18/10 1/8/10
f 5/1/11 1/8/11 6/7/11
f 7/3/12 2/2/12 8/12/12
f 23/17/13 5/1/13 7/3/13 21/15/13
f 4/5/14 1/8/14 3/19/14
f 17/20/15 3/19/15 1/8/15 24/21/15
f 1/8/16 18/18/16 24/21/16
f 13/22/17 15/23/17 10/24/17
f 123/25/18 116/26/18 12/27/18
f 14/28/19 12/27/19 9/29/19
f 22/9/20 19/10/20 13/22/20 9/29/20
f 13/22/5 10/24/5 14/28/5
f 120/30/21 121/31/21 16/32/21
f 20/14/22 15/23/22 21/15/22
f 120/30/23 16/32/23 15/23/23 119/33/23
f 19/10/24 23/17/24 13/22/24
f 22/9/25 9/29/25 18/18/25
f 13/22/26 14/28/26 9/29/26
f 15/23/27 16/32/27 10/24/27
f 23/17/28 21/15/28 15/23/28 13/22/28
f 12/27/29 11/34/29 9/29/29
f 17/20/30 24/21/30 9/29/30 11/34/30
f 9/29/31 24/21/31 18/18/31
f 116/26/32 124/35/32 53/36/32 12/27/32
f 11/34/33 12/27/33 53/36/33 52/37/33
f 11/34/34 52/37/34 51/38/34 17/39/34
f 107/6/35 4/5/35 50/40/35 125/41/35
f 3/19/36 49/42/36 50/40/36 4/5/36
f 3/19/34 17/39/34 51/38/34 49/42/34
f 29/43/37 31/44/37 26/45/37
f 133/46/38 126/47/38 28/48/38
f 30/49/39 28/48/39 25/50/39
f 46/51/40 43/52/40 29/43/40 25/50/40
f 29/43/41 26/45/41 30/49/41
f 130/53/42 131/54/42 32/55/42
f 44/56/43 31/44/43 45/57/43
f 130/53/44 32/55/44 31/44/44 129/58/44
f 43/52/45 47/59/45 29/43/45
f 46/51/46 25/50/46 42/60/46
f 29/43/47 30/49/47 25/50/47
f 31/44/48 32/55/48 26/45/48
f 47/59/49 45/57/49 31/44/49 29/43/49
f 28/48/50 27/61/50 25/50/50
f 41/62/51 48/63/51 25/50/51 27/61/51
f 25/50/52 48/63/52 42/60/52
f 37/64/53 34/65/53 39/66/53
f 142/67/54 36/68/54 135/69/54
f 38/70/55 33/71/55 36/68/55
f 46/51/56 33/71/56 37/64/56 43/52/56
f 37/64/41 38/70/41 34/65/41
f 139/72/57 40/73/57 140/74/57
f 44/56/58 45/57/58 39/66/58
f 138/75/59 39/66/59 40/73/59 139/72/59
f 43/52/60 37/64/60 47/59/60
f 46/51/61 42/60/61 33/71/61
f 37/64/62 33/71/62 38/70/62
f 39/66/63 34/65/63 40/73/63
f 47/59/64 37/64/64 39/66/64 45/57/64
f 36/68/65 33/71/65 35/76/65
f 41/62/66 35/76/66 33/71/66 48/63/66
f 33/71/67 42/60/67 48/63/67
f 135/69/32 36/68/32 53/36/32 124/35/32
f 35/76/33 52/37/33 53/36/33 36/68/33
f 35/76/34 41/77/34 51/38/34 52/37/34
f 126/47/35 125/41/35 50/40/35 28/48/35
f 27/61/36 28/48/36 50/40/36 49/42/36
f 27/61/34 49/42/34 51/38/34 41/77/34
f 34/65/68 137/78/68 140/74/68 40/73/68
f 34/65/69 141/79/69 137/78/69
f 34/65/70 38/70/70 136/80/70 141/79/70
f 36/68/71 142/67/71 136/80/71 38/70/71
f 44/56/41 39/66/41 138/75/41 134/81/41
f 44/56/41 134/81/41 129/58/41 31/44/41
f 26/45/72 32/55/72 131/54/72 128/82/72
f 26/45/73 128/82/73 132/83/73
f 26/45/74 132/83/74 127/84/74 30/49/74
f 28/48/75 30/49/75 127/84/75 133/46/75
f 10/24/76 16/32/76 121/31/76 118/85/76
f 10/24/77 118/85/77 122/86/77
f 10/24/78 122/86/78 117/87/78 14/28/78
f 12/27/79 14/28/79 117/87/79 123/25/79
f 20/14/5 115/88/5 119/33/5 15/23/5
f 20/14/5 7/3/5 110/16/5 115/88/5
f 2/2/80 109/89/80 112/13/80 8/12/80
f 2/2/81 113/90/81 109/89/81
f 2/2/82 6/7/82 108/91/82 113/90/82
f 4/5/83 114/4/83 108/91/83 6/7/83
f 58/92/84 60/93/84 55/94/84
f 114/4/85 107/6/85 57/95/85
f 59/96/86 57/95/86 54/97/86
f 75/98/87 72/99/87 58/92/87 54/97/87
f 58/92/5 55/94/5 59/96/5
f 111/11/6 112/13/6 61/100/6
f 73/101/88 60/93/88 74/102/88
f 110/16/89 111/11/89 61/100/89 60/93/89
f 72/99/90 76/103/90 58/92/90
f 75/98/91 54/97/91 71/104/91
f 58/92/92 59/96/92 54/97/92
f 60/93/93 61/100/93 55/94/93
f 76/103/94 74/102/94 60/93/94 58/92/94
f 57/95/95 56/105/95 54/97/95
f 70/106/96 77/107/96 54/97/96 56/105/96
f 54/97/97 77/107/97 71/104/97
f 66/108/98 63/109/98 68/110/98
f 123/25/99 65/111/99 116/26/99
f 67/112/100 62/113/100 65/111/100
f 75/98/101 62/113/101 66/108/101 72/99/101
f 66/108/5 67/112/5 63/109/5
f 120/30/21 69/114/21 121/31/21
f 73/101/102 74/102/102 68/110/102
f 120/30/103 119/33/103 68/110/103 69/114/103
f 72/99/104 66/108/104 76/103/104
f 75/98/105 71/104/105 62/113/105
f 66/108/106 62/113/106 67/112/106
f 68/110/107 63/109/107 69/114/107
f 76/103/108 66/108/108 68/110/108 74/102/108
f 65/111/109 62/113/109 64/115/109
f 70/106/110 64/115/110 62/113/110 77/107/110
f 62/113/111 71/104/111 77/107/111
f 116/26/32 65/111/32 106/116/32 124/35/32
f 64/115/112 105/117/112 106/116/112 65/111/112
f 64/115/113 70/118/113 104/119/113 105/117/113
f 107/6/35 125/41/35 103/120/35 57/95/35
f 56/105/114 57/95/114 103/120/114 102/121/114
f 56/105/113 102/121/113 104/119/113 70/118/113
f 82/122/115 79/123/115 84/124/115
f 133/46/116 81/125/116 126/47/116
f 83/126/117 78/127/117 81/125/117
f 99/128/118 78/127/118 82/122/118 96/129/118
f 82/122/41 83/126/41 79/123/41
f 130/53/42 85/130/42 131/54/42
f 97/131/119 98/132/119 84/124/119
f 130/53/120 129/58/120 84/124/120 85/130/120
f 96/129/121 82/122/121 100/133/121
f 99/128/122 95/134/122 78/127/122
f 82/122/123 78/127/123 83/126/123
f 84/124/124 79/123/124 85/130/124
f 100/133/125 82/122/125 84/124/125 98/132/125
f 81/125/126 78/127/126 80/135/126
f 94/136/127 80/135/127 78/127/127 101/137/127
f 78/127/128 95/134/128 101/137/128
f 90/138/129 92/139/129 87/140/129
f 142/67/130 135/69/130 89/141/130
f 91/142/131 89/141/131 86/143/131
f 99/128/132 96/129/132 90/138/132 86/143/132
f 90/138/41 87/140/41 91/142/41
f 139/72/57 140/74/57 93/144/57
f 97/131/133 92/139/133 98/132/133
f 138/75/134 139/72/134 93/144/134 92/139/134
f 96/129/135 100/133/135 90/138/135
f 99/128/136 86/143/136 95/134/136
f 90/138/137 91/142/137 86/143/137
f 92/139/138 93/144/138 87/140/138
f 100/133/139 98/132/139 92/139/139 90/138/139
f 89/141/140 88/145/140 86/143/140
f 94/136/141 101/137/141 86/143/141 88/145/141
f 86/143/142 101/137/142 95/134/142
f 135/69/32 124/35/32 106/116/32 89/141/32
f 88/145/112 89/141/112 106/116/112 105/117/112
f 88/145/113 105/117/113 104/119/113 94/146/113
f 126/47/35 81/125/35 103/120/35 125/41/35
f 80/135/114 102/121/114 103/120/114 81/125/114
f 80/135/113 94/146/113 104/119/113 102/121/113
f 87/140/68 93/144/68 140/74/68 137/78/68
f 87/140/69 137/78/69 141/79/69
f 87/140/143 141/79/143 136/80/143 91/142/143
f 89/141/144 91/142/144 136/80/144 142/67/144
f 97/131/41 134/81/41 138/75/41 92/139/41
f 97/131/41 84/124/41 129/58/41 134/81/41
f 79/123/72 128/82/72 131/54/72 85/130/72
f 79/123/73 132/83/73 128/82/73
f 79/123/145 83/126/145 127/84/145 132/83/145
f 81/125/146 133/46/146 127/84/146 83/126/146
f 63/109/76 118/85/76 121/31/76 69/114/76
f 63/109/77 122/86/77 118/85/77
f 63/109/147 67/112/147 117/87/147 122/86/147
f 65/111/148 123/25/148 117/87/148 67/112/148
f 73/101/5 68/110/5 119/33/5 115/88/5
f 73/101/5 115/88/5 110/16/5 60/93/5
f 55/94/80 61/100/80 112/13/80 109/89/80
f 55/94/81 109/89/81 113/90/81
f 55/94/149 113/90/149 108/91/149 59/96/149
f 57/95/150 59/96/150 108/91/150 114/4/150
