# Blender v2.93.3 OBJ File: 'assets.blend'
# www.blender.org
mtllib rock-11.mtl
o Stone-10_Cube.054
v -3.993428 2.044932 -0.491361
v 1.054371 -0.644292 2.443266
v 2.381826 -0.543872 -0.070668
v 0.838717 3.423617 -1.832815
v -3.921178 -0.700802 -0.963310
v -4.604538 -0.623406 0.768873
v -0.811453 1.897711 -3.679047
v 0.286055 4.563388 1.995989
v -3.814056 3.655632 0.563025
v -3.649566 4.264865 2.107626
v 2.499460 1.154484 -3.272934
v -3.871478 -0.131726 1.465996
v -4.119692 0.404987 1.056700
v -4.206376 1.034100 0.492790
v -1.614820 -0.663025 -2.065848
v -2.836390 -0.365054 -2.511801
v -2.264334 -0.081496 -3.162663
v 2.056027 -0.267674 0.698367
v -1.029840 -0.875369 2.612940
v -2.882531 -0.454825 2.557433
v -0.207120 3.397067 -2.269778
v 0.665803 3.526895 -1.253690
v 1.029348 2.394752 -0.010452
v -3.219211 2.760897 -0.951369
v -4.474098 -0.807873 0.483605
v -4.760307 -0.189502 0.545638
v -4.724331 0.650756 -0.317924
v -4.660987 -0.301672 -0.592079
v -3.176090 -0.621048 1.785977
v -4.322090 1.473318 -1.502792
v -3.637871 -0.932479 -0.138982
v -1.478357 0.390045 -3.729109
v 0.930207 1.537346 -3.886317
v 1.812203 0.440337 -3.752424
v 1.961969 0.136495 -3.487983
v 0.061978 1.786537 -3.813783
v -2.221619 0.441512 -3.522001
v -1.731782 0.975927 -3.766521
v -2.697695 1.259803 -3.271165
v -1.257238 -0.178559 -3.262913
v 1.902677 2.770103 -3.011354
v 0.424081 3.405710 -2.262023
v 0.195496 3.074612 -2.704798
v -2.191235 1.986480 -3.273860
v 2.877244 -0.519723 -1.381350
v 2.900577 -0.284511 -2.494873
v -2.722232 -0.110158 2.917794
v -3.245674 2.343952 2.344053
v 0.354190 -0.367354 2.742787
v -1.625670 -0.276425 3.005097
v -0.689880 1.400622 2.610366
v -1.880962 2.268363 2.534122
v -0.265567 5.052035 2.364311
v -0.603476 4.735899 2.513813
v 0.395055 1.631446 2.351695
v -3.158013 3.738695 2.392893
v -3.865982 2.459173 1.890168
v -4.202575 3.287971 1.218629
v 0.788055 3.795403 0.406845
v 0.668109 3.973582 1.395827
v 1.142181 0.281924 2.394628
v 1.080591 1.590654 1.781406
v -3.350719 4.382078 1.530234
v -0.997599 5.261138 2.327127
v -3.032109 4.627931 2.155348
v -4.029018 3.980043 1.448018
v -0.365679 5.398044 1.792228
v -1.396155 5.182789 2.006783
v -3.717660 3.575477 2.158853
v -2.399642 3.221978 -0.964876
v 0.234110 4.586135 0.006290
v -0.222850 5.317644 2.066406
v -4.120250 3.147605 0.496319
v 2.177015 1.122609 -1.084093
v 2.749003 -0.342844 -0.632109
v 1.954810 2.901424 -2.313116
v 3.046651 0.054073 -2.981305
v 2.226425 1.912510 -3.460072
v 2.527904 1.158867 -2.672825
v 2.197696 2.426651 -2.936361
v 3.142189 -0.147450 -2.182580
v 1.806307 2.379652 -3.338975
v 1.224472 1.358788 0.870260
v 1.621829 0.895532 -3.883302
v 2.822306 -0.011016 -3.180369
v -3.371008 -0.078940 -2.413339
v -4.303651 0.213485 -1.469233
v -3.222038 0.426336 -2.767798
v 1.442051 -0.323913 2.328215
v 1.583956 0.085677 1.703476
v -1.820944 -0.705675 2.827937
v -0.489619 -0.714694 2.835567
v 0.295645 -0.852609 2.469754
v 0.889081 3.105739 -0.852800
v -3.325998 2.173604 -2.405166
v -3.704562 2.088352 -1.854610
v -2.713348 2.424939 -2.488808
v -3.900937 0.769204 1.903078
v -3.415289 0.169578 2.566119
v -4.846523 -0.417618 0.188756
v 1.770933 3.087772 -2.576304
v -3.699952 1.729114 -2.349371
v -0.363410 -0.964334 0.371871
v -0.268658 2.572896 2.418392
v 0.698172 2.690101 1.879669
v -0.152498 5.023728 0.690803
v 1.515974 0.113544 2.195548
v -2.584564 4.505593 2.443847
v 0.327920 4.838689 1.495308
v 0.197022 4.992785 0.917806
v -4.078999 3.772393 1.784004
v -4.103091 3.562811 0.886774
v 2.001970 1.508715 -3.744666
v 2.609220 0.481235 -3.562558
v 1.785860 3.126682 -2.156309
vt 0.559769 0.999921
vt 0.625000 1.000000
vt 0.514134 1.000000
vt 0.437419 1.000000
vt 0.408013 1.000000
vt 0.375000 1.000000
vt 0.515832 0.218788
vt 0.436731 0.246001
vt 0.476138 0.181620
vt 0.516732 0.247375
vt 0.583130 0.248936
vt 0.487326 0.250286
vt 0.375000 0.250000
vt 0.375000 0.250000
vt 0.449423 0.523882
vt 0.588994 0.596938
vt 0.496856 0.637594
vt 0.312522 0.735737
vt 0.375000 0.738782
vt 0.275775 0.749514
vt 0.330928 0.750000
vt 0.211445 0.750000
vt 0.187522 0.747979
vt 0.125000 0.750000
vt 0.125000 0.750000
vt 0.238298 0.584331
vt 0.237525 0.734259
vt 0.638912 0.602298
vt 0.663146 0.641279
vt 0.633927 0.735128
vt 0.657928 0.548436
vt 0.693090 0.567250
vt 0.624975 0.015078
vt 0.625000 0.022683
vt 0.625000 0.150928
vt 0.499289 0.999978
vt 0.497977 0.995970
vt 0.445247 0.992342
vt 0.615192 0.999795
vt 0.625000 1.000000
vt 0.592549 0.989622
vt 0.618037 0.999196
vt 0.444633 0.501004
vt 0.405848 0.509146
vt 0.514134 0.000000
vt 0.474047 0.082331
vt 0.408013 0.000000
vt 0.610008 0.069918
vt 0.618915 0.171437
vt 0.125000 0.750000
vt 0.125327 0.678956
vt 0.140920 0.508738
vt 0.125200 0.500554
vt 0.126804 0.500179
vt 0.129182 0.599438
vt 0.125173 0.531906
vt 0.460251 0.255643
vt 0.555958 0.466282
vt 0.496405 0.473071
vt 0.611593 0.429145
vt 0.620031 0.342139
vt 0.625000 0.471707
vt 0.557415 0.261055
vt 0.625000 0.194053
vt 0.619129 0.250702
vt 0.625000 0.193753
vt 0.620524 0.225310
vt 0.397110 0.500812
vt 0.403062 0.499991
vt 0.270681 0.500000
vt 0.770409 0.520345
vt 0.875000 0.500000
vt 0.769587 0.599940
vt 0.560130 0.853105
vt 0.392577 0.911743
vt 0.414256 0.791015
vt 0.591034 0.791638
vt 0.592425 0.916189
vt 0.394860 0.992004
vt 0.621326 0.989010
vt 0.587807 0.968914
vt 0.614331 0.842280
vt 0.625414 0.789610
vt 0.624978 0.890462
vt 0.625120 0.835488
vt 0.626256 0.762431
vt 0.596418 0.748512
vt 0.620402 0.766968
vt 0.622127 0.610822
vt 0.506606 0.764841
vt 0.690489 0.748459
vt 0.875000 0.750000
vt 0.815717 0.750000
vt 0.498731 0.740853
vt 0.436849 0.738557
vt 0.624788 0.992408
vt 0.624915 0.999871
vt 0.620188 0.995188
vt 0.625000 0.913804
vt 0.625000 1.000000
vt 0.675942 0.751255
vt 0.625000 0.000000
vt 0.625000 0.000000
vt 0.625000 0.000000
vt 0.625000 0.000000
vt 0.626870 0.784513
vt 0.629117 0.762197
vt 0.647126 0.750189
vt 0.623758 0.999965
vt 0.623425 0.999335
vt 0.624748 0.999965
vt 0.625000 0.000000
vt 0.625000 -0.000020
vt 0.625000 0.019571
vt 0.578429 0.500194
vt 0.446485 0.500000
vt 0.585151 0.500000
vt 0.453886 0.499989
vt 0.592196 0.500000
vt 0.617246 0.495258
vt 0.631659 0.499408
vt 0.623701 0.499802
vt 0.509043 0.498506
vt 0.627380 0.502851
vt 0.624940 0.500119
vt 0.375000 0.212923
vt 0.875000 0.687500
vt 0.624873 0.196443
vt 0.375000 1.000000
vt 0.375000 0.075086
vt 0.444149 0.478755
vt 0.375000 0.250000
vt 0.125000 0.750000
vt 0.125000 0.500000
vt 0.619187 0.276403
vt 0.627252 0.500946
vt 0.628195 0.500410
vt 0.624987 0.500000
vt 0.773871 0.500083
vt 0.441866 0.499178
vt 0.869978 0.500025
vt 0.667476 0.745036
vt 0.778490 0.750000
vt 0.667199 0.750000
vt 0.625000 0.000000
vt 0.625000 0.000000
vt 0.625000 1.000000
vn -0.8467 0.3985 0.3525
vn -0.5566 -0.2794 0.7824
vn -0.7003 -0.4532 -0.5515
vn -0.5977 -0.1041 -0.7949
vn -0.4462 -0.6077 -0.6569
vn 0.8702 0.4172 0.2620
vn 0.2103 -0.6760 0.7062
vn 0.1290 -0.0488 0.9904
vn -0.3279 -0.6056 0.7251
vn 0.0221 -0.9987 0.0462
vn 0.9213 0.3673 -0.1272
vn 0.1063 0.9839 -0.1437
vn -0.7136 0.6886 -0.1293
vn -0.9726 0.0659 0.2230
vn -0.8787 -0.3120 0.3614
vn -0.9844 0.0404 -0.1715
vn -0.8827 0.0218 0.4694
vn 0.8289 0.3804 0.4102
vn 0.8471 -0.2721 0.4566
vn -0.9297 -0.1642 0.3296
vn -0.9770 0.1717 0.1263
vn -0.9209 -0.0238 -0.3891
vn -0.8842 0.4665 0.0237
vn -0.2513 -0.8909 0.3783
vn -0.0794 -0.9156 -0.3943
vn -0.0979 -0.9663 -0.2379
vn -0.0026 -0.2773 -0.9608
vn 0.0688 0.4923 -0.8677
vn -0.2613 -0.5320 -0.8054
vn -0.4543 0.0088 -0.8908
vn -0.2459 0.7674 -0.5921
vn -0.3788 0.2607 -0.8880
vn -0.7606 -0.0718 -0.6453
vn 0.0543 -0.9872 -0.1499
vn 0.0624 -0.9768 -0.2050
vn 0.0575 -0.8985 -0.4352
vn -0.1692 0.7104 -0.6832
vn 0.1367 0.1540 0.9786
vn 0.1906 0.1847 0.9641
vn -0.0515 0.1767 0.9829
vn -0.1393 -0.0259 0.9899
vn 0.0433 0.1463 0.9883
vn 0.2145 0.0823 0.9732
vn 0.5086 0.0408 0.8601
vn 0.4846 -0.1074 0.8681
vn 0.0776 -0.0320 0.9965
vn 0.9793 0.1834 0.0857
vn 0.7992 0.2283 0.5560
vn 0.9866 0.1573 0.0424
vn 0.4265 0.2637 0.8652
vn -0.0061 0.8765 -0.4814
vn -0.3288 0.8355 -0.4403
vn 0.5614 0.3726 0.7389
vn 0.3527 0.0723 0.9330
vn -0.3342 0.1885 0.9235
vn -0.3838 -0.0082 0.9234
vn -0.0386 0.0282 0.9989
vn -0.2663 0.6669 0.6959
vn -0.4102 0.1078 0.9056
vn -0.2615 0.8973 -0.3556
vn -0.3309 0.9234 -0.1945
vn -0.3053 0.9404 0.1499
vn 0.0598 0.3738 0.9256
vn 0.1725 0.7228 0.6692
vn 0.6797 0.7323 0.0413
vn 0.2553 0.9294 -0.2664
vn -0.9734 0.1769 -0.1453
vn -0.9703 0.2417 0.0050
vn -0.6801 0.4824 -0.5521
vn -0.2752 0.8274 -0.4896
vn 0.8557 0.4774 0.1999
vn 0.8993 0.4350 -0.0458
vn 0.1334 0.1391 -0.9812
vn 0.1291 0.4424 -0.8875
vn 0.5954 0.2147 -0.7742
vn 0.3159 0.0186 -0.9486
vn 0.8550 0.3162 -0.4111
vn 0.7418 0.5099 0.4355
vn 0.6248 0.6448 0.4402
vn 0.8471 0.3696 0.3818
vn 0.7470 -0.6070 0.2712
vn -0.5459 -0.6749 -0.4965
vn -0.7643 0.3688 0.5290
vn -0.8272 0.4717 0.3055
vn -0.7268 -0.2377 -0.6444
vn 0.8031 -0.4761 0.3583
vn -0.5582 -0.3599 -0.7476
vn -0.4976 -0.4632 -0.7334
vn -0.2224 -0.9517 0.2119
vn 0.9105 0.2193 0.3506
vn -0.0089 -0.8005 0.5992
vn 0.0662 -0.8784 0.4733
vn 0.2490 -0.9646 0.0873
vn 0.2454 -0.3552 0.9020
vn -0.0079 -0.3784 0.9256
vn -0.1245 -0.3296 0.9359
vn 0.1405 -0.9900 0.0086
vn -0.4776 0.8124 -0.3346
vn 0.8124 0.5656 0.1417
vn 0.9845 0.1746 -0.0166
vn -0.0036 0.8017 -0.5977
vn -0.3027 0.8687 -0.3920
vn -0.3913 0.9113 -0.1280
vn -0.6656 -0.6164 0.4206
vn -0.7974 0.0211 0.6031
vn -0.9072 -0.1097 0.4062
vn -0.4908 0.1263 0.8621
vn -0.5430 -0.4729 0.6939
vn -0.9943 -0.0312 0.1022
vn -0.9601 0.0165 -0.2792
vn 0.8299 0.4326 0.3522
vn -0.7508 -0.6556 0.0806
vn -0.5699 -0.7772 -0.2667
vn -0.7411 0.5400 -0.3990
vn -0.7368 0.6625 -0.1350
vn -0.0365 -0.9978 0.0553
vn 0.0066 -0.6404 -0.7680
vn -0.2970 -0.8580 0.4191
vn -0.2702 -0.9471 -0.1733
vn -0.1244 -0.9481 -0.2927
vn 0.0103 -0.9917 -0.1279
vn -0.1319 -0.8611 -0.4911
vn -0.0366 -0.0794 -0.9962
vn -0.0448 -0.0006 -0.9990
vn -0.1223 0.2140 -0.9691
vn 0.2105 0.9625 -0.1709
vn -0.2756 -0.1795 -0.9444
vn -0.1371 -0.6594 -0.7392
vn -0.3673 0.6864 -0.6276
vn -0.1563 0.7092 -0.6875
vn 0.0576 0.8145 -0.5773
vn 0.7827 0.5984 -0.1710
vn 0.7673 0.6355 -0.0861
vn -0.5312 0.3611 -0.7664
vn 0.7187 0.5155 -0.4666
vn 0.3807 0.5374 -0.7525
vn -0.8015 -0.0276 -0.5974
vn -0.0175 0.6515 -0.7584
vn -0.2460 0.3321 -0.9106
vn -0.6805 -0.0143 -0.7326
vn 0.0435 -0.9305 -0.3636
vn -0.0279 -0.9295 -0.3677
vn 0.0320 0.7925 -0.6091
vn -0.0333 0.6541 -0.7557
vn 0.5581 0.7543 -0.3458
vn 0.0748 0.1887 0.9792
vn -0.1242 0.2007 0.9717
vn 0.2743 0.1259 0.9534
vn 0.9629 0.2554 0.0871
vn 0.8990 0.1728 0.4025
vn 0.7039 0.1113 0.7016
vn 0.8511 0.2550 0.4588
vn 0.9462 0.3121 0.0851
vn -0.7161 0.1466 0.6824
vn 0.5208 0.1660 0.8374
vn 0.9821 -0.1227 0.1426
vn -0.1191 0.9866 0.1118
vn 0.2700 0.1796 0.9460
vn 0.3578 -0.0995 0.9285
vn -0.1000 0.0087 0.9949
vn -0.0673 0.2889 0.9550
vn -0.3617 0.5128 0.7786
vn -0.3643 0.8190 -0.4433
vn -0.5004 0.8617 -0.0841
vn -0.4306 0.8086 -0.4010
vn 0.9099 0.4146 -0.0127
vn 0.7361 0.4494 0.5062
vn 0.9092 0.3280 0.2564
vn 0.8449 0.5099 -0.1618
vn -0.6593 -0.0920 0.7463
vn 0.3206 0.8698 -0.3750
vn 0.5445 0.8379 -0.0379
vn 0.7932 0.5032 0.3430
vn -0.9619 0.2643 -0.0695
vn -0.9407 -0.1272 0.3146
vn 0.9423 0.2687 0.1997
vn -0.6822 0.1210 0.7211
vn -0.8025 0.5535 0.2227
vn -0.6511 0.6477 -0.3956
vn -0.7138 0.4952 -0.4953
vn -0.4074 0.7072 -0.5778
vn -0.7174 0.4172 -0.5579
vn -0.2294 0.8462 -0.4809
vn 0.9585 0.2589 -0.1192
vn 0.2052 -0.5590 -0.8034
vn 0.8649 0.4216 0.2725
vn 0.9051 0.4252 -0.0010
vn 0.2607 0.4552 -0.8514
vn 0.9253 0.2668 -0.2695
vn 0.6594 -0.7272 -0.1910
vn 0.2367 -0.1758 -0.9556
vn 0.6823 -0.2406 -0.6903
vn 0.8534 0.3655 0.3718
vn 0.3706 0.8889 0.2693
vn 0.5426 -0.7570 -0.3640
vn 0.9524 -0.2168 0.2142
usemtl Stone
s off
f 14/1/1 27/2/1 26/3/1
f 12/4/2 6/5/2 29/6/2
f 87/7/3 86/8/3 28/9/3
f 88/10/4 39/11/4 37/12/4
f 16/13/5 86/8/5 17/14/5
f 18/15/6 83/16/6 90/17/6
f 93/18/7 2/19/7 92/20/7
f 92/20/8 49/21/8 50/22/8
f 91/23/9 47/24/9 20/25/9
f 103/26/10 93/18/10 19/27/10
f 94/28/11 22/29/11 59/30/11
f 4/31/12 42/32/12 22/29/12
f 1/33/13 24/34/13 96/35/13
f 13/36/14 98/37/14 14/1/14
f 99/38/15 98/37/15 13/36/15
f 14/1/16 73/39/16 1/40/16
f 98/37/17 57/41/17 58/42/17
f 83/16/18 18/15/18 75/43/18
f 3/44/19 75/43/19 18/15/19
f 26/45/20 100/46/20 6/47/20
f 27/48/21 100/46/21 26/45/21
f 30/49/22 87/7/22 28/9/22
f 1/33/23 30/49/23 27/48/23
f 29/50/24 25/51/24 19/27/24
f 15/52/25 16/53/25 40/54/25
f 31/55/26 5/56/26 15/52/26
f 32/57/27 84/58/27 34/59/27
f 33/60/28 36/61/28 82/62/28
f 17/14/29 37/12/29 32/57/29
f 38/63/30 37/12/30 39/11/30
f 21/64/31 44/65/31 97/66/31
f 44/65/32 38/63/32 39/11/32
f 102/67/33 88/10/33 87/7/33
f 15/52/34 45/68/34 103/26/34
f 15/52/35 46/69/35 45/68/35
f 40/54/36 35/70/36 46/69/36
f 43/71/37 7/72/37 21/73/37
f 51/74/38 50/75/38 49/76/38
f 55/77/39 51/74/39 49/76/39
f 52/78/40 47/79/40 50/75/40
f 52/78/41 56/80/41 48/81/41
f 51/74/42 104/82/42 52/78/42
f 51/74/43 55/77/43 104/82/43
f 104/82/44 8/83/44 54/84/44
f 54/84/45 8/83/45 53/85/45
f 104/82/46 54/84/46 52/78/46
f 59/30/47 60/86/47 62/87/47
f 62/87/48 60/86/48 105/88/48
f 23/89/49 59/30/49 62/87/49
f 105/88/50 55/77/50 61/90/50
f 42/32/51 21/73/51 106/91/51
f 21/73/52 70/92/52 68/93/52
f 62/87/53 61/90/53 107/94/53
f 61/90/54 49/76/54 89/95/54
f 108/96/55 10/97/55 56/80/55
f 56/80/56 69/98/56 48/81/56
f 52/78/57 54/84/57 108/96/57
f 108/96/58 64/99/58 65/100/58
f 56/80/59 10/97/59 69/98/59
f 68/93/60 67/101/60 106/91/60
f 63/102/61 65/103/61 68/104/61
f 68/104/62 65/103/62 64/105/62
f 54/84/63 53/85/63 64/99/63
f 53/85/64 72/106/64 64/99/64
f 109/107/65 110/108/65 72/106/65
f 110/108/66 106/91/66 67/101/66
f 58/42/67 112/109/67 73/39/67
f 111/110/68 66/111/68 58/42/68
f 73/112/69 9/113/69 24/34/69
f 9/113/70 63/102/70 70/114/70
f 74/115/71 81/116/71 79/117/71
f 79/117/72 77/118/72 11/119/72
f 33/60/73 113/120/73 84/58/73
f 33/60/74 82/121/74 113/120/74
f 113/120/75 78/122/75 114/123/75
f 84/58/76 113/120/76 114/123/76
f 114/123/77 11/119/77 77/118/77
f 23/89/78 83/16/78 115/124/78
f 94/28/79 23/89/79 115/124/79
f 115/124/80 74/115/80 76/125/80
f 45/68/81 75/43/81 3/44/81
f 86/8/82 16/13/82 5/126/82 28/9/82
f 13/36/83 14/1/83 26/3/83
f 14/1/84 1/40/84 27/2/84
f 86/8/85 87/7/85 88/10/85
f 2/19/86 3/44/86 18/15/86 89/95/86
f 86/8/87 88/10/87 37/12/87
f 17/14/88 86/8/88 37/12/88
f 20/25/89 29/50/89 19/27/89 91/23/89
f 18/15/90 90/17/90 89/95/90
f 91/23/91 19/27/91 92/20/91
f 19/27/92 93/18/92 92/20/92
f 93/18/93 45/68/93 3/44/93 2/19/93
f 92/20/94 2/19/94 49/76/94
f 91/23/95 92/20/95 50/22/95
f 91/23/96 50/22/96 47/24/96
f 45/68/97 93/18/97 103/26/97
f 70/114/98 97/66/98 96/35/98 24/34/98
f 94/28/99 4/31/99 22/29/99
f 23/89/100 94/28/100 59/30/100
f 42/32/101 43/71/101 21/73/101
f 21/73/102 97/127/102 70/92/102
f 95/128/103 96/35/103 97/66/103
f 99/38/104 12/4/104 29/6/104 20/129/104
f 98/37/105 99/38/105 57/41/105
f 12/4/106 99/38/106 13/36/106
f 48/81/107 57/41/107 99/38/107 47/79/107
f 20/129/108 47/79/108 99/38/108
f 58/42/109 73/39/109 14/1/109 98/37/109
f 28/9/110 100/46/110 27/48/110 30/49/110
f 83/16/111 75/43/111 74/115/111
f 6/47/112 100/46/112 25/130/112
f 5/126/113 25/130/113 100/46/113 28/9/113
f 102/67/114 30/49/114 96/35/114 95/128/114
f 1/33/115 96/35/115 30/49/115
f 31/55/116 103/26/116 19/27/116 25/51/116
f 34/59/117 35/131/117 40/132/117 32/57/117
f 29/50/118 6/133/118 25/51/118
f 31/55/119 25/51/119 5/56/119
f 15/52/120 5/56/120 16/53/120
f 103/26/121 31/55/121 15/52/121
f 40/54/122 16/53/122 17/134/122
f 32/57/123 38/63/123 84/58/123
f 33/60/124 84/58/124 38/63/124 36/61/124
f 38/63/125 7/135/125 36/61/125
f 115/124/126 101/136/126 42/32/126 4/31/126
f 38/63/127 32/57/127 37/12/127
f 40/132/128 17/14/128 32/57/128
f 97/66/129 44/65/129 95/128/129
f 21/64/130 7/135/130 44/65/130
f 41/137/131 42/32/131 101/136/131
f 76/125/132 80/138/132 41/137/132 101/136/132
f 101/136/133 115/124/133 76/125/133
f 39/11/134 102/67/134 95/128/134 44/65/134
f 41/137/135 80/138/135 78/122/135
f 82/121/136 41/137/136 78/122/136
f 30/49/137 102/67/137 87/7/137
f 36/139/138 43/71/138 41/137/138 82/121/138
f 44/65/139 7/135/139 38/63/139
f 102/67/140 39/11/140 88/10/140
f 15/52/141 40/54/141 46/69/141
f 46/69/142 35/70/142 85/140/142
f 43/71/143 42/32/143 41/137/143
f 43/71/144 36/139/144 7/141/144
f 106/91/145 71/142/145 22/29/145 42/32/145
f 51/74/146 52/78/146 50/75/146
f 52/78/147 48/81/147 47/79/147
f 104/82/148 55/77/148 8/83/148
f 83/16/149 23/89/149 62/87/149
f 105/88/150 60/86/150 8/83/150
f 105/88/151 8/83/151 55/77/151
f 62/87/152 105/88/152 61/90/152
f 62/87/153 107/94/153 90/17/153 83/16/153
f 26/3/154 6/5/154 12/4/154 13/36/154
f 89/95/155 107/94/155 61/90/155
f 89/95/156 90/17/156 107/94/156
f 64/143/157 72/144/157 67/101/157 68/93/157
f 61/90/158 55/77/158 49/76/158
f 2/19/159 89/95/159 49/76/159
f 56/80/160 52/78/160 108/96/160
f 108/96/161 54/84/161 64/99/161
f 108/96/162 65/100/162 10/97/162
f 106/91/163 21/73/163 68/93/163
f 10/145/164 65/103/164 63/102/164 66/146/164
f 9/113/165 66/146/165 63/102/165
f 110/108/166 109/107/166 60/86/166 59/30/166
f 53/85/167 8/83/167 72/106/167
f 8/83/168 60/86/168 109/107/168
f 71/142/169 110/108/169 59/30/169 22/29/169
f 69/98/170 111/110/170 57/41/170 48/81/170
f 110/108/171 71/142/171 106/91/171
f 72/106/172 110/108/172 67/101/172
f 8/83/173 109/107/173 72/106/173
f 58/42/174 66/111/174 112/109/174
f 58/42/175 57/41/175 111/110/175
f 79/117/176 80/138/176 76/125/176 74/115/176
f 69/98/177 10/97/177 111/110/177
f 111/110/178 10/97/178 66/111/178
f 112/109/179 66/111/179 9/147/179
f 73/39/180 112/109/180 9/147/180
f 24/34/181 9/113/181 70/114/181
f 1/33/182 73/112/182 24/34/182
f 70/114/183 63/102/183 68/104/183
f 78/122/184 80/138/184 79/117/184 11/119/184
f 114/123/185 85/140/185 35/131/185 34/59/185
f 74/115/186 75/43/186 81/116/186
f 79/117/187 81/116/187 77/118/187
f 82/121/188 78/122/188 113/120/188
f 114/123/189 78/122/189 11/119/189
f 81/116/190 45/68/190 46/69/190 77/118/190
f 34/59/191 84/58/191 114/123/191
f 85/140/192 114/123/192 77/118/192
f 115/124/193 83/16/193 74/115/193
f 4/31/194 94/28/194 115/124/194
f 46/69/195 85/140/195 77/118/195
f 45/68/196 81/116/196 75/43/196
