# Blender v2.93.3 OBJ File: 'assets.blend'
# www.blender.org
mtllib rock-15.mtl
o Stone-15_Cube.013
v -0.754918 2.755397 -1.188796
v 1.811857 -0.777314 2.048768
v 2.326124 1.556096 2.332930
v 3.226115 -0.890808 -2.132401
v 3.752431 -0.576305 0.786471
v 2.910563 0.805752 -3.211540
v 1.155474 4.710152 -0.330801
v 0.858598 4.436733 1.961238
v -0.739898 -0.532779 0.594487
v -0.596164 -0.062428 1.172870
v -1.030790 2.425584 -0.645219
v 0.164990 -1.125819 0.270880
v -0.436158 -0.893271 -2.398108
v -0.144061 3.122427 -1.420221
v 0.585357 3.165996 -1.584928
v 1.398943 3.148583 -1.475778
v 1.734567 -1.177025 0.418977
v 2.720977 2.674257 0.465509
v 2.681583 2.050739 1.657681
v 1.910881 -0.407875 2.394344
v -0.049228 -0.713060 1.497375
v 0.793448 -0.910920 1.744389
v 1.735524 0.290658 2.596906
v 4.134146 0.248600 -0.529507
v 3.746939 -0.429304 -1.591709
v 3.901845 -0.628962 -0.216616
v 3.934796 1.110515 -0.006236
v 3.959982 0.588351 0.872405
v 3.731334 0.011065 1.393149
v 3.598443 1.010336 1.357958
v 3.586331 1.660404 -0.652798
v 2.447149 2.793008 -0.984573
v 2.186945 -1.156218 -2.387573
v 2.918711 -0.902810 1.357366
v -0.716880 -0.017318 -2.927101
v 0.415796 -0.644132 -3.451268
v -0.374993 -0.520427 -3.105891
v -0.512067 1.141230 -2.878301
v 0.740445 1.411731 -3.191229
v 1.002679 0.269067 -3.774000
v 2.625542 -0.285174 -3.601157
v 1.996486 1.167189 -3.452487
v 2.040861 -0.740769 -3.614051
v -0.777627 -0.555448 -2.336663
v 3.020774 -0.585082 -3.041800
v 3.818877 0.782120 -1.506149
v 2.372036 2.373316 -1.838463
v 0.284411 -1.010932 -2.880445
v -0.605023 5.100547 0.082173
v -0.364051 5.134254 -0.394765
v 0.245148 5.239030 -0.300420
v 1.239566 4.835235 0.473621
v 0.758674 4.927926 1.402200
v -0.013283 4.737422 1.520457
v -0.647248 4.755195 -0.594931
v 1.525714 3.311804 2.228554
v -0.619025 4.617736 0.924995
v -1.005975 0.090643 0.390287
v -1.144796 1.208695 -0.286955
v 3.391544 0.138240 -2.746140
v 1.063562 -0.286060 2.372893
v 0.570501 -0.213775 2.197239
v -0.109185 -0.208262 1.694912
v -0.305106 -0.930238 0.714750
v 0.850949 4.631068 -0.752921
v 0.037313 4.808855 -0.883213
v 4.105908 0.033066 0.301021
v -0.997150 0.109783 -2.420161
v -0.922336 0.926739 -2.409445
v 2.856467 0.267233 2.309554
v 3.110256 -0.407607 1.836207
v 3.121181 -1.057625 0.129641
v -0.206391 0.294383 -3.339219
v 1.876024 -0.405154 -3.805038
v 1.915827 0.263046 -3.880616
v 2.408477 0.205113 -3.756775
v 3.079069 1.558040 -2.263530
v 2.347379 1.472973 -3.038105
v 0.221234 -1.146557 -2.131421
v 2.408613 -0.991606 -3.064617
v 0.277525 5.288537 0.662038
v -0.104160 5.107314 1.050963
v 1.523213 4.280590 1.415124
v -0.996498 4.094706 0.328733
v -0.878499 4.477258 -0.342558
v 0.348975 3.869218 2.038635
v 0.989103 3.316253 2.299048
v -0.480198 4.000757 1.353172
vt 0.625000 0.000000
vt 0.472153 0.104899
vt 0.455876 0.000000
vt 0.375000 0.250000
vt 0.384518 0.066524
vt 0.454551 0.529488
vt 0.515970 0.504915
vt 0.523258 0.583205
vt 0.414359 0.516659
vt 0.443705 0.501392
vt 0.563448 0.531744
vt 0.569258 0.500881
vt 0.628173 0.607841
vt 0.585908 0.688139
vt 0.587138 0.608581
vt 0.611965 0.563953
vt 0.254414 0.613008
vt 0.201517 0.663371
vt 0.187065 0.502504
vt 0.352956 0.612908
vt 0.265010 0.507944
vt 0.313447 0.727837
vt 0.216303 0.750000
vt 0.754029 0.502687
vt 0.813012 0.500421
vt 0.785961 0.513137
vt 0.875000 0.500000
vt 0.813442 0.547907
vt 0.743293 0.558810
vt 0.709274 0.528354
vt 0.436649 0.604071
vt 0.500000 0.644709
vt 0.443001 0.671100
vt 0.553210 0.676936
vt 0.498575 0.709620
vt 0.592152 0.186898
vt 0.625000 0.250000
vt 0.562498 0.256553
vt 0.521107 0.746701
vt 0.456152 0.726612
vt 0.521526 0.784313
vt 0.442181 0.765784
vt 0.593772 0.745744
vt 0.407339 0.686909
vt 0.371869 0.509557
vt 0.391010 0.611445
vt 0.455750 0.822420
vt 0.375000 0.812500
vt 0.387403 0.737598
vt 0.466170 0.281433
vt 0.526632 0.341896
vt 0.403400 0.310500
vt 0.413239 0.499165
vt 0.470797 0.499866
vt 0.645685 0.513397
vt 0.610263 0.511589
vt 0.618069 0.500841
vt 0.601647 0.499067
vt 0.271001 0.500575
vt 0.267563 0.500000
vt 0.396265 0.501389
vt 0.688483 0.500084
vt 0.850021 0.500001
vt 0.875000 0.500000
vt 0.732219 0.630932
vt 0.777749 0.688000
vt 0.677485 0.688430
vt 0.679916 0.554916
vt 0.665190 0.601411
vt 0.854349 0.604827
vt 0.875000 0.721383
vt 0.773313 0.750000
vt 0.636637 0.666310
vt 0.613376 0.683971
vt 0.621405 0.750000
vt 0.625513 0.783150
vt 0.622949 0.099054
vt 0.624235 0.187500
vt 0.625000 0.250000
vt 0.625000 0.028617
vt 0.625000 0.156572
vt 0.450184 0.937818
vt 0.623150 0.875002
vt 0.624427 0.952965
vt 0.625000 0.898313
vt 0.646455 0.533160
vt 0.458437 0.877552
vt 0.455876 1.000000
vt 0.375000 1.000000
vt 0.375000 0.908697
vt 0.125000 0.688090
vt 0.125000 0.500000
vt 0.701094 0.509543
vt 0.462834 0.255737
vt 0.514293 0.134673
vt 0.607194 0.284782
vt 0.402113 0.415581
vt 0.526696 0.451052
vt 0.625000 0.482204
vt 0.516877 0.499617
vt 0.451500 0.495230
vt 0.521833 0.494348
vt 0.159359 0.500000
vt 0.658719 0.750000
vt 0.620578 0.812510
vt 0.625000 1.000000
vn -0.8855 0.0047 0.4646
vn -0.9214 -0.3884 0.0149
vn 0.9478 -0.0475 -0.3152
vn 0.7974 -0.4943 -0.3462
vn 0.8443 0.2977 -0.4456
vn 0.8007 0.5498 0.2378
vn 0.9069 0.3915 -0.1558
vn -0.3801 -0.9249 0.0050
vn -0.0333 -0.9994 0.0078
vn -0.0476 -0.9853 0.1640
vn -0.3096 -0.8853 0.3469
vn -0.2269 0.3176 -0.9207
vn -0.3891 0.3172 -0.8649
vn -0.3438 0.6263 -0.6997
vn 0.2607 0.7300 -0.6318
vn 0.9032 -0.4000 0.1555
vn 0.7493 -0.6381 -0.1771
vn 0.9412 -0.3026 -0.1500
vn 0.9807 0.1792 0.0784
vn 0.9431 -0.0833 0.3218
vn -0.9139 0.2799 -0.2940
vn 0.6667 -0.2434 0.7045
vn 0.2383 -0.2148 0.9471
vn 0.6548 0.2566 0.7109
vn 0.0451 -0.9728 0.2273
vn 0.0872 -0.9962 0.0067
vn 0.4659 -0.8837 -0.0436
vn -0.1235 -0.6707 0.7314
vn -0.5828 -0.1099 -0.8051
vn 0.4748 -0.5909 -0.6523
vn 0.4824 0.6958 -0.5321
vn 0.5425 0.6084 -0.5792
vn 0.8178 0.4975 -0.2892
vn 0.4069 0.5358 -0.7399
vn -0.2832 -0.9392 -0.1940
vn -0.3594 -0.9332 -0.0004
vn -0.1046 -0.8255 -0.5546
vn 0.2772 -0.9505 -0.1403
vn 0.5224 -0.7656 -0.3754
vn -0.3135 0.5999 -0.7361
vn -0.5648 0.5546 -0.6111
vn 0.0117 0.9019 0.4318
vn 0.4892 0.8526 -0.1837
vn -0.6888 0.6339 0.3517
vn -0.6433 0.5359 0.5467
vn 0.8415 0.4667 0.2719
vn 0.8220 0.5632 0.0841
vn 0.6953 0.3542 0.6254
vn 0.6149 0.5080 0.6031
vn -0.9884 0.0913 -0.1217
vn -0.9160 0.1588 -0.3685
vn -0.8926 0.0090 0.4507
vn -0.8914 0.3994 0.2140
vn -0.6365 0.0065 0.7712
vn -0.3041 0.3915 0.8685
vn -0.8785 -0.2396 0.4132
vn 0.8700 -0.2802 -0.4056
vn 0.9483 -0.0194 -0.3167
vn 0.7711 -0.1415 -0.6208
vn 0.7308 0.0521 -0.6806
vn 0.7542 0.5713 0.3237
vn 0.7987 0.5967 0.0770
vn 0.7142 0.6956 -0.0779
vn 0.6595 0.3973 0.6382
vn 0.8573 0.4530 0.2446
vn -0.3327 0.0215 0.9428
vn -0.7567 -0.3660 0.5417
vn -0.0663 -0.2932 0.9537
vn -0.7325 -0.0093 0.6807
vn -0.3498 -0.5864 0.7306
vn -0.5566 -0.3593 0.7491
vn -0.6883 -0.7252 0.0175
vn -0.1898 -0.9567 0.2205
vn 0.5415 0.5504 -0.6355
vn -0.6771 -0.6216 0.3939
vn 0.1830 0.4602 -0.8688
vn -0.9909 0.0726 -0.1135
vn -0.4801 0.2734 -0.8336
vn -0.0496 0.8119 -0.5816
vn 0.4348 0.7748 -0.4589
vn 0.9627 -0.2680 -0.0368
vn 0.9811 0.1764 0.0791
vn 0.9429 0.3025 -0.1391
vn 0.9089 -0.2834 0.3060
vn -0.9494 -0.3139 -0.0051
vn -0.9921 -0.1256 -0.0040
vn -0.8147 0.1323 -0.5647
vn -0.7726 0.3999 -0.4931
vn -0.8314 -0.3654 -0.4186
vn 0.3059 -0.7088 0.6356
vn 0.3809 -0.4307 0.8182
vn 0.2491 0.0850 0.9647
vn 0.6427 -0.5906 0.4881
vn 0.4903 -0.8573 0.1571
vn 0.8463 0.1307 0.5165
vn 0.7347 0.1212 0.6675
vn 0.1145 -0.9831 0.1428
vn 0.0502 -0.9655 0.2557
vn 0.2606 -0.9636 -0.0590
vn -0.3688 -0.1347 -0.9197
vn -0.3035 0.3733 -0.8767
vn -0.6748 0.1497 -0.7226
vn 0.2592 -0.1507 -0.9540
vn -0.1707 -0.1765 -0.9694
vn -0.1157 -0.5336 -0.8378
vn -0.1018 0.4332 -0.8955
vn 0.3421 0.4134 -0.8439
vn 0.6846 0.6633 -0.3023
vn 0.6898 0.0769 -0.7199
vn 0.2980 -0.3574 -0.8852
vn -0.3982 -0.7667 -0.5035
vn 0.8247 0.3625 -0.4342
vn -0.6830 -0.6202 -0.3857
vn 0.0353 0.6955 -0.7177
vn -0.0283 -0.9832 -0.1804
vn -0.0060 -0.9999 -0.0084
vn -0.0120 -0.9707 -0.2399
vn -0.0264 -0.9159 -0.4005
vn 0.4565 -0.6535 -0.6039
vn -0.2040 0.6513 -0.7309
vn 0.2847 0.7350 -0.6155
vn 0.4627 0.7788 -0.4235
vn -0.1766 0.9836 -0.0364
vn -0.0871 0.7558 0.6489
vn -0.2977 0.9432 0.1473
vn -0.6827 0.6673 -0.2978
vn 0.8099 0.5719 -0.1302
vn 0.4445 0.8844 0.1419
vn 0.4157 0.9075 -0.0607
vn -0.3431 0.0136 0.9392
vn 0.6234 0.7412 0.2489
vn 0.5589 0.6699 0.4887
vn 0.7340 0.4378 0.5192
vn -0.9942 0.0688 -0.0828
vn -0.9778 0.0055 0.2096
vn -0.8824 0.1176 0.4555
vn -0.9266 0.3728 0.0496
vn -0.8362 0.5079 -0.2069
vn -0.8038 0.1448 -0.5770
vn -0.1547 0.2686 0.9507
vn -0.5944 -0.0010 0.8042
vn 0.1459 0.1297 0.9808
vn 0.1267 0.2998 0.9455
vn -0.6035 0.2077 0.7699
vn -0.6988 0.2950 0.6516
usemtl Stone
s off
f 88/1/1 58/2/1 10/3/1
f 58/2/2 44/4/2 9/5/2
f 25/6/3 60/7/3 24/8/3
f 4/9/4 45/10/4 25/6/4
f 46/11/5 60/7/5 6/12/5
f 18/13/6 30/14/6 27/15/6
f 31/16/7 27/15/7 46/11/7
f 12/17/8 64/18/8 13/19/8
f 17/20/9 12/17/9 79/21/9
f 17/20/10 22/22/10 12/17/10
f 22/22/11 21/23/11 64/18/11
f 15/24/12 14/25/12 66/26/12
f 14/25/13 55/27/13 66/26/13
f 66/26/14 55/27/14 50/28/14
f 66/26/15 51/29/15 65/30/15
f 26/31/16 67/32/16 5/33/16
f 25/6/17 26/31/17 4/9/17
f 24/8/18 26/31/18 25/6/18
f 27/15/19 28/34/19 24/8/19
f 67/32/20 28/34/20 29/35/20
f 11/36/21 1/37/21 69/38/21
f 70/39/22 71/40/22 29/35/22
f 23/41/23 20/42/23 70/39/23
f 3/43/24 70/39/24 30/14/24
f 17/20/25 34/44/25 22/22/25
f 33/45/26 72/46/26 17/20/26
f 4/9/27 26/31/27 72/46/27
f 61/47/28 22/48/28 2/49/28 20/42/28
f 35/50/29 73/51/29 37/52/29
f 43/53/30 41/54/30 45/10/30
f 47/55/31 77/56/31 78/57/31
f 77/56/32 6/12/32 78/57/32
f 31/16/33 46/11/33 77/56/33
f 78/57/34 6/12/34 42/58/34
f 79/21/35 13/19/35 48/59/35
f 13/19/36 79/21/36 12/17/36
f 48/59/37 36/60/37 43/53/37
f 33/45/38 80/61/38 4/9/38
f 80/61/39 45/10/39 4/9/39
f 14/25/40 39/62/40 38/63/40
f 1/64/41 14/25/41 38/63/41
f 81/65/42 82/66/42 53/67/42
f 7/68/43 51/29/43 52/69/43
f 49/70/44 57/71/44 82/66/44
f 82/66/45 57/71/45 54/72/45
f 18/13/46 83/73/46 19/74/46
f 52/69/47 83/73/47 18/13/47
f 19/74/48 56/75/48 3/43/48
f 83/73/49 8/76/49 56/75/49
f 11/36/50 84/77/50 85/78/50
f 1/37/51 11/36/51 55/79/51
f 58/2/52 88/1/52 84/77/52
f 84/77/53 57/80/53 49/81/53
f 63/82/54 86/83/54 88/84/54
f 86/83/55 8/76/55 54/85/55
f 10/3/56 58/2/56 9/5/56
f 25/6/57 45/10/57 60/7/57
f 24/8/58 60/7/58 46/11/58
f 60/7/59 45/10/59 41/54/59
f 60/7/60 41/54/60 6/12/60
f 18/13/61 19/74/61 30/14/61
f 31/16/62 18/13/62 27/15/62
f 18/13/63 31/16/63 32/86/63
f 19/74/64 3/43/64 30/14/64
f 27/15/65 30/14/65 28/34/65
f 61/47/66 23/41/66 62/87/66
f 10/88/67 9/89/67 21/90/67 63/82/67
f 20/42/68 23/41/68 61/47/68
f 63/82/69 88/84/69 10/88/69
f 62/87/70 21/90/70 22/48/70 61/47/70
f 21/90/71 62/87/71 63/82/71
f 9/91/72 44/92/72 13/19/72 64/18/72
f 12/17/73 22/22/73 64/18/73
f 7/68/74 32/86/74 16/93/74 65/30/74
f 64/18/75 21/23/75 9/91/75
f 65/30/76 16/93/76 15/24/76 66/26/76
f 69/38/77 68/94/77 59/95/77 11/36/77
f 14/25/78 1/64/78 55/27/78
f 66/26/79 50/28/79 51/29/79
f 65/30/80 51/29/80 7/68/80
f 26/31/81 24/8/81 67/32/81
f 67/32/82 24/8/82 28/34/82
f 46/11/83 27/15/83 24/8/83
f 5/33/84 67/32/84 29/35/84
f 44/4/85 58/2/85 68/94/85
f 58/2/86 59/95/86 68/94/86
f 38/96/87 35/50/87 68/94/87 69/38/87
f 69/38/88 1/37/88 38/96/88
f 35/50/89 37/52/89 44/4/89 68/94/89
f 71/40/90 20/42/90 2/49/90 34/44/90
f 70/39/91 20/42/91 71/40/91
f 3/43/92 23/41/92 70/39/92
f 5/33/93 29/35/93 71/40/93 34/44/93
f 5/33/94 34/44/94 72/46/94 26/31/94
f 30/14/95 29/35/95 28/34/95
f 30/14/96 70/39/96 29/35/96
f 17/20/97 72/46/97 34/44/97
f 2/49/98 22/22/98 34/44/98
f 33/45/99 4/9/99 72/46/99
f 36/97/100 37/52/100 73/51/100 40/98/100
f 40/98/101 73/51/101 38/96/101 39/99/101
f 35/50/102 38/96/102 73/51/102
f 76/100/103 41/54/103 74/101/103 75/102/103
f 74/101/104 36/97/104 40/98/104 75/102/104
f 36/97/105 74/101/105 43/53/105
f 75/102/106 40/98/106 39/62/106 42/58/106
f 76/100/107 75/102/107 42/58/107 6/12/107
f 77/56/108 47/55/108 32/86/108 31/16/108
f 76/100/109 6/12/109 41/54/109
f 43/53/110 74/101/110 41/54/110
f 37/103/111 36/60/111 48/59/111 13/19/111
f 77/56/112 46/11/112 6/12/112
f 13/19/113 44/92/113 37/103/113
f 42/58/114 39/62/114 15/24/114 16/93/114
f 33/45/115 79/21/115 48/59/115
f 17/20/116 79/21/116 33/45/116
f 33/45/117 48/59/117 80/61/117
f 80/61/118 48/59/118 43/53/118
f 80/61/119 43/53/119 45/10/119
f 14/25/120 15/24/120 39/62/120
f 78/57/121 42/58/121 16/93/121 47/55/121
f 16/93/122 32/86/122 47/55/122
f 49/70/123 81/65/123 51/29/123 50/28/123
f 54/72/124 8/104/124 53/67/124 82/66/124
f 81/65/125 49/70/125 82/66/125
f 55/27/126 49/70/126 50/28/126
f 52/69/127 18/13/127 32/86/127 7/68/127
f 52/69/128 81/65/128 53/67/128
f 52/69/129 51/29/129 81/65/129
f 87/105/130 86/83/130 62/87/130 23/41/130
f 83/73/131 52/69/131 53/67/131
f 83/73/132 53/67/132 8/76/132
f 19/74/133 83/73/133 56/75/133
f 11/36/134 59/95/134 84/77/134
f 59/95/135 58/2/135 84/77/135
f 84/77/136 88/1/136 57/80/136
f 85/78/137 84/77/137 49/81/137
f 85/78/138 49/81/138 55/79/138
f 55/79/139 11/36/139 85/78/139
f 86/83/140 87/105/140 8/76/140
f 63/82/141 62/87/141 86/83/141
f 56/75/142 87/105/142 23/41/142 3/43/142
f 87/105/143 56/75/143 8/76/143
f 88/84/144 86/83/144 54/85/144
f 57/106/145 88/84/145 54/85/145
