# Blender v2.93.3 OBJ File: 'assets.blend'
# www.blender.org
mtllib rock-18.mtl
o Stone-5_Cube.045
v -2.452222 -0.746572 3.175305
v -2.173608 1.256858 -1.458239
v 0.059677 -0.836750 -0.474012
v -0.306148 -0.907782 0.966618
v -1.078902 -0.209370 3.550415
v -1.055871 0.539610 3.448578
v -1.432423 1.211371 2.203584
v -1.396388 1.285439 0.032126
v -1.174422 0.008429 -2.288920
v -1.252490 -0.452591 -2.020301
v 0.151077 -0.488993 -1.385562
v 0.398194 0.610399 -0.963605
v 0.690243 -0.305362 -0.761589
v 0.656337 0.669194 0.150678
v 0.598891 0.415467 1.172744
v 0.023989 -0.741211 1.642412
v 0.520985 -0.688427 0.724223
v 0.144947 0.530960 1.986446
v -5.286071 -0.588163 1.101295
v -4.724041 -0.588711 3.067522
v -5.026631 -0.189030 3.767427
v -5.765597 0.880190 3.741826
v -6.227345 0.707558 2.850463
v -6.441133 1.222333 1.196052
v -5.317731 0.242997 -0.857692
v -4.907390 -0.464247 -0.243606
v -2.280992 0.563456 -2.235264
v -4.841878 1.589807 -1.306117
v -5.082746 1.952002 4.241473
v -4.342577 1.776784 4.396283
v -2.650275 0.670420 4.277756
v -3.787176 -0.500651 -1.233807
v -3.918188 2.631824 2.283580
v -3.814747 2.492219 0.160452
v -5.584606 2.519239 0.572678
v -4.312942 2.355064 -0.751246
v -4.959951 2.628390 3.357972
v -5.633132 2.299550 3.416789
v -5.894902 1.548992 -0.281017
v -3.866894 2.409320 3.529674
v -6.144489 1.685527 2.908618
v -6.124110 2.116152 1.357256
v -0.111067 0.192596 -1.891307
v 0.856079 -0.114446 0.491362
v 0.075735 -0.200084 2.365110
v -5.754015 -0.126397 2.825454
v -6.281273 0.262889 1.237207
v -3.184311 -0.893230 0.506247
v -3.374598 0.150903 -2.047117
v -2.963993 -0.357395 4.054193
v -3.231536 0.098785 4.418711
v -4.674356 0.182052 4.233467
v -5.060842 2.771691 1.351541
v -4.165830 2.190400 4.160864
v -4.927230 2.175514 -0.856835
vt 0.618912 0.061908
vt 0.622485 0.148222
vt 0.596607 0.146888
vt 0.571991 0.061857
vt 0.596066 0.000000
vt 0.624958 0.015257
vt 0.624843 0.212722
vt 0.606836 0.209930
vt 0.606716 0.430003
vt 0.441363 0.531321
vt 0.528566 0.377451
vt 0.631450 0.619181
vt 0.474914 0.667106
vt 0.352832 0.681709
vt 0.587111 0.765262
vt 0.474388 0.846046
vt 0.572086 0.848727
vt 0.470160 0.946163
vt 0.375000 1.000000
vt 0.375000 0.890585
vt 0.375000 0.745272
vt 0.283632 0.562500
vt 0.221763 0.647991
vt 0.297411 0.500000
vt 0.169799 0.500000
vt 0.264990 0.719572
vt 0.125647 0.741095
vt 0.845360 0.687500
vt 0.765370 0.750000
vt 0.415959 0.415978
vt 0.426547 0.293070
vt 0.499506 0.304609
vt 0.471864 0.062055
vt 0.520188 0.145419
vt 0.403583 0.154625
vt 0.129735 0.588853
vt 0.508271 0.252873
vt 0.417956 0.247056
vt 0.514922 0.221447
vt 0.603587 0.237545
vt 0.560991 0.266958
vt 0.620489 0.999990
vt 0.596066 1.000000
vt 0.514647 0.999603
vt 0.874955 0.659091
vt 0.875000 0.592327
vt 0.875000 0.733240
vt 0.874830 0.537866
vt 0.875000 0.500000
vt 0.565775 0.992675
vt 0.564083 0.953171
vt 0.623969 0.999999
vt 0.625000 1.000000
vt 0.625000 1.000000
vt 0.625000 1.000000
vt 0.846573 0.586622
vt 0.875000 0.500000
vt 0.875000 0.750000
vt 0.875000 0.750000
vt 0.622445 0.241981
vt 0.624156 0.249758
vt 0.625000 0.250000
vt 0.625000 0.250000
vt 0.596759 0.736303
vt 0.477369 0.000000
vt 0.655021 0.504942
vt 0.375000 0.023688
vt 0.403996 0.236367
vt 0.125110 0.593768
vt 0.125029 0.726313
vt 0.125000 0.500000
vt 0.125000 0.500000
vt 0.464091 0.999901
vt 0.437129 0.994197
vt 0.504210 0.993525
vt 0.618690 0.999956
vt 0.375000 1.000000
vt 0.875000 0.722330
vt 0.875000 0.530276
vn -0.9440 0.3210 0.0767
vn -0.8907 0.0486 0.4520
vn -0.5447 0.8368 0.0553
vn -0.8070 0.5140 -0.2908
vn 0.8365 0.1505 -0.5270
vn 0.9713 0.1798 -0.1559
vn 0.8568 -0.5144 -0.0350
vn 0.9230 -0.0437 0.3824
vn 0.8717 0.1578 0.4639
vn 0.2420 -0.8894 0.3878
vn 0.7401 -0.5626 0.3683
vn 0.2614 -0.9650 0.0188
vn 0.1305 -0.9306 -0.3419
vn 0.5561 -0.7936 -0.2470
vn 0.1160 -0.9761 0.1839
vn 0.4105 0.8936 0.1816
vn 0.3626 -0.4821 -0.7975
vn -0.6474 -0.7616 0.0283
vn -0.8558 -0.4907 0.1638
vn 0.0027 -0.9988 -0.0486
vn -0.4473 -0.5735 -0.6863
vn -0.1265 -0.4833 -0.8663
vn -0.6977 0.0080 -0.7164
vn -0.2489 0.2307 -0.9407
vn -0.4667 -0.1117 0.8773
vn 0.0666 0.9955 0.0677
vn 0.0520 0.9830 -0.1763
vn 0.4334 0.4903 0.7561
vn 0.1246 0.9177 0.3773
vn -0.7701 0.2098 0.6024
vn 0.4446 0.8950 -0.0372
vn 0.4236 0.8741 -0.2377
vn 0.5389 0.7986 0.2679
vn -0.6464 0.4028 -0.6480
vn 0.3461 0.8813 -0.3217
vn -0.8159 0.5598 0.1447
vn -0.9858 0.0746 0.1506
vn -0.8022 0.2034 0.5614
vn -0.8970 0.3635 -0.2513
vn 0.2678 0.7600 -0.5922
vn 0.2196 0.5177 -0.8269
vn 0.7366 0.1669 0.6554
vn 0.7697 -0.1621 -0.6174
vn 0.9405 0.2490 -0.2310
vn 0.9466 0.2964 0.1268
vn -0.7299 -0.4648 0.5013
vn 0.8650 -0.3656 0.3435
vn 0.5104 -0.7055 0.4917
vn 0.2817 -0.9545 0.0976
vn 0.6020 -0.7871 -0.1343
vn 0.2918 0.9492 -0.1177
vn 0.2853 0.9577 0.0374
vn 0.2693 0.9499 -0.1586
vn 0.4117 0.8482 0.3331
vn 0.5983 0.7692 0.2246
vn -0.4478 -0.8460 0.2895
vn -0.8966 -0.1981 -0.3960
vn -0.9840 -0.1606 0.0772
vn -0.6680 -0.6889 -0.2815
vn -0.0986 -0.9934 0.0588
vn -0.4303 -0.8943 0.1227
vn -0.0450 -0.9778 -0.2049
vn -0.1769 -0.9727 -0.1500
vn -0.0145 -0.9982 0.0588
vn -0.1448 -0.6936 0.7056
vn -0.1948 -0.7149 -0.6715
vn -0.1170 -0.1383 -0.9835
vn -0.4741 -0.7178 -0.5099
vn -0.5229 -0.0972 -0.8468
vn 0.4106 -0.0203 0.9116
vn 0.1978 -0.8485 0.4909
vn 0.2596 -0.5053 0.8229
vn -0.1613 -0.0670 0.9846
vn 0.1368 0.1038 0.9851
vn -0.1050 -0.9102 0.4006
vn -0.5699 -0.3764 0.7305
vn -0.4700 0.8798 0.0709
vn 0.1667 0.9844 -0.0566
vn -0.1183 0.9652 -0.2333
vn -0.0442 0.6063 -0.7940
vn 0.1686 0.9715 0.1665
vn -0.0579 0.5124 0.8568
vn 0.3034 0.3701 0.8780
vn 0.4941 0.7219 0.4844
vn -0.1550 0.7947 0.5869
vn -0.3292 0.7713 0.5447
vn 0.4967 0.8671 0.0378
vn 0.4950 0.8587 0.1330
vn -0.6583 0.6048 -0.4482
vn -0.2146 0.9226 -0.3205
vn 0.1519 0.7269 -0.6697
usemtl Stone
s off
f 41/1/1 42/2/1 24/3/1
f 23/4/2 22/5/2 41/1/2
f 42/2/3 38/6/3 35/7/3
f 42/2/4 35/7/4 39/8/4
f 12/9/5 13/10/5 43/11/5
f 14/12/6 44/13/6 13/10/6
f 13/10/7 44/13/7 17/14/7
f 15/15/8 45/16/8 44/13/8
f 15/15/9 18/17/9 45/16/9
f 5/18/10 1/19/10 16/20/10
f 45/16/11 16/20/11 17/21/11
f 3/22/12 17/14/12 4/23/12
f 11/24/13 3/22/13 10/25/13
f 13/10/14 3/22/14 11/24/14
f 4/23/15 16/26/15 1/27/15
f 7/28/16 18/29/16 14/12/16
f 43/11/17 11/30/17 10/31/17 9/32/17
f 46/33/18 47/34/18 19/35/18
f 23/4/19 47/34/19 46/33/19
f 4/23/20 48/36/20 3/22/20
f 49/37/21 32/38/21 25/39/21
f 9/32/22 10/31/22 49/37/22
f 28/40/23 25/39/23 39/8/23
f 27/41/24 49/37/24 28/40/24
f 29/42/25 22/43/25 52/44/25
f 33/45/26 53/46/26 37/47/26
f 34/48/27 36/49/27 53/46/27
f 31/50/28 6/51/28 54/52/28
f 54/52/29 40/53/29 37/54/29
f 22/43/30 29/42/30 38/55/30
f 8/56/31 34/48/31 33/45/31
f 8/56/32 2/57/32 34/48/32
f 6/58/33 7/28/33 40/59/33
f 39/8/34 55/60/34 28/40/34
f 36/61/35 34/62/35 2/63/35
f 42/2/36 41/1/36 38/6/36
f 23/4/37 41/1/37 24/3/37
f 41/1/38 22/5/38 38/6/38
f 24/3/39 42/2/39 39/8/39
f 43/11/40 27/41/40 2/63/40 12/9/40
f 9/32/41 27/41/41 43/11/41
f 6/51/42 5/18/42 45/16/42 18/17/42
f 11/30/43 43/11/43 13/10/43
f 12/9/44 14/12/44 13/10/44
f 14/12/45 15/64/45 44/13/45
f 46/33/46 21/65/46 22/5/46 23/4/46
f 44/13/47 45/16/47 17/21/47
f 45/16/48 5/18/48 16/20/48
f 4/23/49 17/14/49 16/26/49
f 3/22/50 13/10/50 17/14/50
f 12/66/51 8/56/51 14/12/51
f 8/56/52 7/28/52 14/12/52
f 12/66/53 2/57/53 8/56/53
f 7/28/54 6/58/54 18/29/54
f 14/12/55 18/29/55 15/64/55
f 20/67/56 21/65/56 46/33/56
f 39/8/57 25/39/57 47/34/57 24/3/57
f 23/4/58 24/3/58 47/34/58
f 25/39/59 26/68/59 19/35/59 47/34/59
f 19/69/60 48/36/60 1/27/60 20/70/60
f 20/67/61 46/33/61 19/35/61
f 32/71/62 10/25/62 3/22/62 48/36/62
f 26/72/63 32/71/63 48/36/63 19/69/63
f 4/23/64 1/27/64 48/36/64
f 21/73/65 50/74/65 51/75/65 52/44/65
f 49/37/66 10/31/66 32/38/66
f 27/41/67 9/32/67 49/37/67
f 25/39/68 32/38/68 26/68/68
f 28/40/69 49/37/69 25/39/69
f 51/75/70 5/18/70 6/51/70 31/50/70
f 5/18/71 50/74/71 1/19/71
f 5/18/72 51/75/72 50/74/72
f 52/44/73 51/75/73 30/76/73 29/42/73
f 31/50/74 30/76/74 51/75/74
f 20/77/75 1/19/75 50/74/75 21/73/75
f 52/44/76 22/43/76 21/73/76
f 38/78/77 37/47/77 53/46/77 35/79/77
f 33/45/78 34/48/78 53/46/78
f 53/46/79 36/49/79 35/79/79
f 36/61/80 27/41/80 28/40/80 55/60/80
f 40/59/81 33/45/81 37/47/81
f 29/42/82 30/76/82 54/52/82
f 30/76/83 31/50/83 54/52/83
f 54/52/84 6/51/84 40/53/84
f 29/42/85 54/52/85 37/54/85
f 38/55/86 29/42/86 37/54/86
f 7/28/87 8/56/87 33/45/87
f 40/59/88 7/28/88 33/45/88
f 39/8/89 35/7/89 55/60/89
f 55/60/90 35/7/90 36/61/90
f 27/41/91 36/61/91 2/63/91
