# Blender v2.93.3 OBJ File: 'assets.blend'
# www.blender.org
mtllib rock-3.mtl
o Stone-18_Cube.057
v -0.662090 -0.990833 1.313398
v -2.023886 2.181123 -1.672479
v 1.464946 1.604850 1.016258
v -0.837800 4.025262 0.724124
v 0.698786 4.213929 -0.325413
v -0.727000 1.441040 -2.796105
v -3.410900 -0.400101 -0.602251
v -2.997734 -0.531934 1.494839
v -3.329411 1.563742 0.640543
v 1.852836 1.559812 0.600946
v -0.493283 -0.690471 2.407783
v 0.173233 0.895253 2.523510
v -2.495126 -0.956397 0.006452
v 0.479740 3.278941 1.624048
v -2.000101 2.493935 -0.086093
v -2.182887 2.391249 -0.946901
v -2.757161 1.324754 -1.653942
v -3.003077 0.628863 -1.556097
v -1.783380 0.035660 -2.344547
v -0.431383 -0.838857 -2.123537
v -0.343860 2.286026 -1.657095
v 0.474541 2.264463 -1.441925
v 1.658158 1.266838 -0.899320
v 1.323395 0.266318 -1.173418
v 0.289163 -0.883760 -0.836356
v 1.497137 2.489216 -0.357697
v 1.573150 2.435927 0.334645
v 1.204206 0.531406 1.252285
v 1.107806 -0.075204 1.118589
v 0.569722 -0.846821 0.610355
v -0.788467 3.143421 1.660157
v -0.913605 4.174181 -0.319029
v -0.396516 4.428124 0.554278
v 0.006091 4.487162 0.607491
v 0.376126 4.420762 -0.228949
v 0.760532 4.196884 0.464176
v 0.120757 4.033312 1.217883
v -0.434913 3.758176 1.408638
v -1.259127 3.786950 -0.319643
v 1.113797 2.770059 1.231773
v 0.788930 3.766791 1.073385
v 0.990870 3.753721 -0.576555
v -1.135751 0.324763 -2.766979
v 0.065858 -0.339318 -2.724600
v -0.761857 -0.320859 -2.737938
v -0.223635 1.608902 -2.765388
v 0.501073 1.498250 -2.593564
v 0.765932 1.004121 -2.549239
v 0.677822 0.016703 -2.499754
v 0.493600 -0.455404 -2.236834
v 0.906261 1.815040 -1.715068
v -1.340635 -0.485435 -2.362121
v -1.448857 1.762688 -2.314970
v -3.437197 -0.450595 0.128511
v -3.355108 -0.077314 1.180285
v -3.617325 0.798180 0.661681
v -3.361095 0.971260 1.169797
v -3.393196 1.747038 -0.402966
v -3.510875 0.883236 -0.955855
v -3.591947 0.119771 -0.646293
v -3.302206 1.567299 -0.948483
v -2.781914 1.725743 1.116399
v -1.913059 2.030688 1.134531
v -2.011812 -0.958129 1.632433
v -2.484645 -0.793492 1.844973
v -3.146261 -0.403116 -1.018957
v -2.109830 -0.606440 -1.588827
v 1.908869 0.346631 -0.514387
v 1.753046 -0.587120 0.149358
v 1.752962 -0.383975 -0.478341
v 1.930370 1.736806 0.296816
v 1.837555 0.803291 0.778989
v 1.902188 1.522296 -0.544743
v 0.878597 -0.574719 -1.069713
v 1.738560 -0.229397 0.636073
v 0.506589 2.797797 -1.376357
v 0.576435 3.855844 -0.794832
v -1.071653 3.243727 -1.217087
v -0.388396 4.148346 -0.651692
v -1.437792 2.290532 -1.731325
v 1.156131 2.397707 -1.036103
v -0.697028 0.514733 2.630892
v 0.447851 0.366462 2.297282
v 0.170395 -0.517704 2.253749
v -0.134030 2.681417 2.187120
v -0.668298 2.455530 2.207423
v -0.616515 1.882453 2.453051
v 0.400722 2.254347 2.187778
v -2.274470 0.216429 2.449305
v -0.975702 0.938446 2.472246
v -1.755064 -0.773312 2.308406
v -2.327698 -0.505488 2.330285
v -2.944295 1.225776 1.553405
v -2.373677 0.714735 2.259960
v -1.319949 1.513251 2.026570
v -1.397632 2.339036 1.162035
v 0.710753 1.547685 2.044581
v 0.852704 -0.614371 0.922574
v -0.427647 -0.905663 2.054373
v -3.104549 1.963872 0.080339
v 0.907462 0.624572 -2.297244
v 1.771544 0.297445 -0.778504
v -0.122234 -0.979827 -0.264914
v -1.681128 2.979424 -0.231243
v 0.385141 4.399253 0.626657
v -2.355160 1.184471 1.964414
v -1.607035 3.060824 -1.136443
v 1.078222 3.765187 0.520477
v 1.279231 3.354113 0.193628
v -0.202616 0.312974 -2.936537
v 0.164279 1.171424 -2.843160
v 0.346704 0.349994 -2.822949
v 0.091718 -0.706032 -2.315634
v -0.552736 -0.706274 -2.510230
v -0.683465 1.944481 -2.475423
v -0.244510 1.978434 -2.460237
v 0.244681 1.874641 -2.412874
v -1.603945 0.888717 -2.560096
v -3.634785 0.033075 0.193519
v -3.707867 0.959229 -0.224746
v -2.787437 -0.774008 -0.731683
v -3.114775 -0.749990 0.029091
v -3.247650 0.052086 -1.213266
v 1.957593 0.261454 0.174767
v 1.445048 -0.827905 0.150706
v 1.447074 -0.746017 -0.349633
v 1.862282 1.973742 -0.186825
v 0.020648 2.986389 -1.388625
v -0.188382 4.483471 -0.211772
v 0.930233 3.249352 -0.984756
v -0.210536 -0.344253 2.554442
v -0.431464 0.046310 2.655662
v -0.155407 1.582999 2.583547
v -1.834058 -0.331549 2.575520
v -3.038495 0.004892 1.842774
v -2.852367 0.432288 2.028198
v -1.032652 1.831313 2.069585
v -0.019809 -0.788217 2.029777
vt 0.623269 0.108106
vt 0.624356 0.028758
vt 0.625000 0.028111
vt 0.571594 0.197168
vt 0.584476 0.151117
vt 0.616991 0.182034
vt 0.605044 0.106080
vt 0.583075 0.063303
vt 0.419420 0.487964
vt 0.523172 0.460543
vt 0.493296 0.482665
vt 0.567953 0.431915
vt 0.589261 0.467930
vt 0.465264 0.509411
vt 0.545290 0.520205
vt 0.476669 0.529526
vt 0.440940 0.738243
vt 0.496778 0.744330
vt 0.369875 0.755864
vt 0.573694 0.728143
vt 0.598155 0.760994
vt 0.515949 0.777153
vt 0.308499 0.572506
vt 0.271128 0.609193
vt 0.248466 0.506853
vt 0.384842 0.645482
vt 0.207352 0.727325
vt 0.135452 0.638954
vt 0.623475 0.137310
vt 0.624994 0.077870
vt 0.624983 0.240269
vt 0.624706 0.207496
vt 0.622122 0.240506
vt 0.755208 0.619049
vt 0.705078 0.625498
vt 0.701518 0.509136
vt 0.875000 0.679240
vt 0.813123 0.732533
vt 0.813151 0.617155
vt 0.729601 0.716262
vt 0.666667 0.609381
vt 0.657664 0.697424
vt 0.608227 0.030653
vt 0.584989 0.012606
vt 0.613544 0.002851
vt 0.624931 0.002289
vt 0.620772 0.298469
vt 0.607143 0.250000
vt 0.628809 0.612027
vt 0.640792 0.633309
vt 0.616717 0.651000
vt 0.622873 0.719722
vt 0.618118 0.567484
vt 0.635800 0.507934
vt 0.462354 0.355537
vt 0.539562 0.397875
vt 0.463454 0.424766
vt 0.555716 0.312632
vt 0.464176 0.275325
vt 0.574776 0.363500
vt 0.375000 0.410694
vt 0.375000 0.277182
vt 0.312482 0.502691
vt 0.213208 0.500908
vt 0.152182 0.500000
vt 0.285694 0.500000
vt 0.622778 0.375000
vt 0.619885 0.430933
vt 0.603496 0.375000
vt 0.593816 0.416000
vt 0.597583 0.331882
vt 0.586015 0.286466
vt 0.375000 0.250000
vt 0.436912 0.252155
vt 0.375000 0.250000
vt 0.495320 0.243558
vt 0.548056 0.239946
vt 0.517983 0.266604
vt 0.520527 0.146429
vt 0.436549 0.203747
vt 0.436796 0.102254
vt 0.514747 0.065482
vt 0.436856 0.018778
vt 0.545077 0.029291
vt 0.128879 0.561985
vt 0.125000 0.500000
vt 0.125000 0.500000
vt 0.516307 0.211571
vt 0.436718 0.243264
vt 0.726602 0.748645
vt 0.664901 0.738283
vt 0.875000 0.750000
vt 0.856366 0.749964
vt 0.630341 0.762907
vt 0.583070 0.657143
vt 0.571985 0.696985
vt 0.516537 0.719364
vt 0.476171 0.646593
vt 0.436712 0.704306
vt 0.410506 0.642956
vt 0.379005 0.531156
vt 0.391369 0.580260
vt 0.378095 0.720109
vt 0.600168 0.602005
vt 0.566469 0.555321
vt 0.624957 0.378971
vt 0.625000 0.302459
vt 0.625744 0.467582
vt 0.624942 0.434579
vt 0.778905 0.505534
vt 0.661490 0.508516
vt 0.637322 0.479160
vt 0.614604 0.491914
vt 0.626478 0.478501
vt 0.579583 0.808028
vt 0.447689 0.853311
vt 0.511736 0.887281
vt 0.471866 0.995824
vt 0.375000 0.792316
vt 0.375000 0.904491
vt 0.563408 0.944546
vt 0.619718 0.855885
vt 0.624451 0.969781
vt 0.625000 0.852806
vt 0.375000 1.000000
vt 0.462969 0.004799
vt 0.531903 0.001957
vt 0.375000 0.000000
vt 0.614060 0.000245
vt 0.625000 0.002083
vt 0.625000 0.000094
vt 0.625000 0.005395
vt 0.625000 0.000000
vt 0.232296 0.747913
vt 0.126563 0.749783
vt 0.132666 0.740398
vt 0.125000 0.750000
vt 0.125448 0.745735
vt 0.125000 0.750000
vt 0.333082 0.690392
vt 0.312891 0.749105
vt 0.375000 0.500300
vt 0.479145 0.562572
vt 0.422457 0.567521
vt 0.875000 0.508687
vt 0.624601 0.277984
vt 0.125000 0.500000
vt 0.375000 0.101883
vt 0.375000 0.220280
vt 0.125573 0.640114
vt 0.125118 0.541950
vt 0.125000 0.648117
vt 0.375000 0.250000
vt 0.816596 0.500072
vt 0.625000 0.981330
vt 0.539981 0.999669
vt 0.625000 1.000000
vt 0.625000 1.000000
vt 0.525885 0.000000
vt 0.399691 0.000000
vt 0.399691 0.999944
vt 0.625000 0.000000
vt 0.220509 0.750000
vn -0.4963 0.7993 0.3388
vn -0.5567 0.7569 -0.3423
vn -0.7490 0.6432 0.1588
vn 0.7948 -0.1009 -0.5984
vn 0.7829 0.3751 -0.4964
vn 0.6617 -0.0160 -0.7496
vn 0.7922 -0.2487 0.5573
vn 0.8066 -0.0536 0.5886
vn 0.1031 -0.9904 -0.0923
vn 0.0902 -0.9956 0.0239
vn -0.0111 -0.9999 -0.0108
vn -0.8163 0.5679 0.1056
vn -0.7008 0.5832 0.4107
vn -0.7381 0.6584 0.1476
vn -0.8872 0.4602 -0.0312
vn 0.2248 0.9742 0.0221
vn -0.4444 0.7145 0.5403
vn 0.1582 0.8064 0.5699
vn 0.5672 0.6850 0.4572
vn -0.3900 0.6745 0.6268
vn -0.4165 0.6384 0.6473
vn -0.1872 0.5743 -0.7969
vn -0.7193 0.6423 -0.2646
vn 0.9315 0.3237 0.1658
vn 0.9003 0.1998 0.3866
vn 0.9528 0.2924 -0.0821
vn 0.9247 0.3409 -0.1693
vn 0.8712 0.4852 -0.0744
vn 0.8334 0.3408 0.4351
vn 0.2011 0.0206 -0.9794
vn -0.1782 0.0396 -0.9832
vn 0.0013 0.1762 -0.9844
vn 0.4710 0.1749 -0.8646
vn 0.4828 -0.3134 -0.8178
vn 0.0085 -0.3058 -0.9520
vn 0.1941 -0.9706 -0.1425
vn 0.0026 -0.5076 -0.8616
vn 0.1147 0.9323 -0.3429
vn 0.5122 0.7483 -0.4217
vn -0.0225 0.6358 -0.7715
vn -0.2929 0.5316 -0.7948
vn -0.5855 -0.4753 -0.6567
vn -0.5921 0.0967 -0.8001
vn -0.5099 0.3150 -0.8005
vn -0.9924 -0.1061 -0.0616
vn -0.9572 -0.1349 0.2562
vn -0.8811 0.3404 0.3283
vn -0.1368 -0.9729 -0.1862
vn -0.4153 -0.7731 -0.4794
vn -0.7194 0.1592 -0.6761
vn -0.7726 -0.0486 -0.6330
vn -0.5959 0.4966 -0.6311
vn -0.0105 0.5839 0.8117
vn 0.3850 0.5728 0.7236
vn -0.3881 0.5313 0.7531
vn 0.3441 0.4321 0.8336
vn 0.9616 0.0443 0.2709
vn 0.9509 -0.2352 0.2012
vn 0.6472 -0.2607 0.7163
vn 0.2816 -0.8594 -0.4268
vn -0.4635 0.8848 -0.0478
vn 0.4760 -0.6829 0.5542
vn 0.8885 0.4489 0.0948
vn 0.9874 0.1422 -0.0693
vn 0.0412 0.5454 -0.8372
vn 0.2010 0.4616 -0.8640
vn 0.1094 0.9935 -0.0305
vn 0.2786 0.7272 -0.6273
vn 0.2555 0.1028 -0.9613
vn 0.1371 0.2916 -0.9467
vn 0.4991 0.0761 -0.8632
vn 0.8598 0.2547 -0.4425
vn 0.4959 0.5095 -0.7032
vn 0.4768 0.6346 -0.6083
vn 0.4756 -0.1255 0.8707
vn 0.0107 -0.2452 0.9694
vn 0.3245 -0.5811 0.7463
vn -0.1861 0.1375 0.9729
vn 0.2000 0.0100 0.9797
vn 0.2573 0.3236 0.9105
vn -0.0329 -0.5214 0.8526
vn -0.0618 0.0177 0.9979
vn -0.8212 0.1151 0.5589
vn -0.7354 0.4729 0.4853
vn -0.9015 -0.0138 0.4326
vn -0.8285 -0.3475 0.4391
vn -0.5728 0.3710 0.7309
vn 0.7349 0.1905 0.6509
vn 0.6851 0.3099 0.6592
vn 0.5929 0.0982 0.7992
vn -0.7598 0.3183 0.5669
vn -0.4889 0.3325 0.8065
vn -0.0424 -0.9595 0.2784
vn -0.3338 -0.7593 0.5586
vn -0.6438 -0.5484 0.5337
vn 0.4576 -0.8601 0.2256
vn -0.3457 0.8765 0.3352
vn -0.5569 0.7572 -0.3413
vn -0.5280 0.7769 0.3430
vn 0.7942 0.3310 -0.5096
vn 0.8965 -0.1187 -0.4269
vn 0.8193 -0.4800 -0.3135
vn 0.8946 -0.2058 -0.3967
vn 0.8490 0.0103 -0.5284
vn 0.7125 0.2364 -0.6607
vn 0.5945 -0.3703 -0.7138
vn 0.8830 -0.2092 -0.4202
vn -0.7703 0.6175 -0.1589
vn 0.8133 -0.0706 0.5775
vn 0.7986 -0.2769 0.5343
vn 0.6541 0.0162 0.7562
vn 0.7507 -0.5085 0.4217
vn -0.0182 -0.9972 -0.0726
vn 0.1176 -0.9897 -0.0817
vn 0.4211 0.3916 0.8181
vn -0.8504 0.4702 0.2359
vn -0.8496 0.3777 0.3682
vn 0.5053 0.8629 -0.0015
vn -0.1836 0.7753 0.6044
vn -0.6331 0.7585 0.1543
vn -0.2729 0.7425 0.6117
vn 0.4044 0.6857 0.6052
vn -0.2116 0.5209 0.8270
vn -0.6093 0.6247 0.4883
vn -0.4787 0.4810 0.7345
vn -0.3514 0.6804 -0.6431
vn 0.8174 0.5726 -0.0629
vn -0.3028 0.5400 -0.7853
vn 0.8483 0.2598 -0.4614
vn 0.4583 -0.8664 -0.1981
vn 0.7222 0.5805 0.3762
vn 0.8924 0.2831 0.3515
vn -0.0175 0.1155 -0.9932
vn -0.1786 -0.1472 -0.9728
vn 0.2686 0.3944 -0.8788
vn 0.4553 0.0793 -0.8868
vn 0.6444 -0.0955 -0.7587
vn 0.2118 -0.2221 -0.9518
vn 0.1067 -0.9298 -0.3523
vn -0.2608 -0.9024 -0.3429
vn 0.5338 -0.5878 -0.6080
vn -0.3073 -0.6021 -0.7369
vn 0.1999 -0.7232 -0.6611
vn -0.2595 0.7187 -0.6451
vn 0.2271 0.8840 -0.4087
vn 0.0049 0.9221 -0.3869
vn 0.2433 0.5912 -0.7689
vn 0.2738 0.6778 -0.6824
vn 0.5850 0.6385 -0.5001
vn -0.4344 -0.3123 -0.8449
vn -0.1296 0.5407 -0.8312
vn -0.5085 -0.1089 -0.8541
vn -0.5702 -0.0865 -0.8170
vn -0.5176 0.4271 -0.7414
vn -0.4259 0.3136 -0.8487
vn -0.3108 0.0891 -0.9463
vn -0.8635 -0.4503 0.2272
vn -0.9948 -0.0355 0.0952
vn -0.9169 0.3737 0.1400
vn -0.9176 0.2954 -0.2662
vn -0.9337 -0.3508 -0.0717
vn -0.9656 -0.0028 -0.2599
vn -0.4335 -0.8871 -0.1585
vn -0.3038 -0.9489 0.0858
vn -0.2411 -0.8987 -0.3663
vn -0.0229 -0.9997 0.0057
vn -0.5834 -0.7953 0.1649
vn -0.5175 -0.4969 -0.6966
vn -0.6908 -0.7192 -0.0746
vn -0.5348 -0.7761 -0.3340
vn -0.5998 -0.2053 -0.7734
vn -0.8076 -0.3500 -0.4748
vn 0.9986 0.0145 -0.0514
vn -0.8551 -0.1142 -0.5057
vn -0.7304 0.2297 -0.6433
vn -0.1963 0.5379 0.8198
vn -0.5894 0.5723 0.5702
vn 0.2183 0.5411 0.8121
vn 0.9713 -0.2223 -0.0847
vn 0.9812 0.0021 0.1930
vn 0.9426 -0.1328 0.3063
vn 0.6693 -0.7206 -0.1809
vn 0.5732 -0.1660 0.8024
vn 0.5887 0.0346 0.8076
vn 0.4529 -0.4860 0.7474
vn 0.7310 0.1423 0.6673
vn 0.7902 0.4178 -0.4485
vn 0.2434 -0.8706 0.4276
vn 0.1819 -0.9705 -0.1581
vn 0.5211 -0.6407 -0.5638
vn 0.5303 -0.6755 0.5123
vn 0.7339 0.4009 0.5483
vn 0.8224 0.5671 -0.0466
vn 0.1026 0.7413 -0.6633
vn -0.0070 0.5338 -0.8456
vn -0.0241 0.4818 -0.8759
vn -0.3872 0.9212 -0.0386
vn -0.1490 0.9884 0.0309
vn -0.0768 0.3563 0.9312
vn -0.2762 0.8209 -0.4998
vn 0.0653 0.3274 -0.9426
vn 0.5463 0.1940 -0.8148
vn 0.3068 0.4428 -0.8425
vn 0.3079 -0.0717 0.9487
vn 0.5447 -0.2109 0.8117
vn 0.0088 -0.3961 0.9181
vn -0.0080 0.0483 0.9988
vn 0.4555 0.1409 0.8790
vn -0.1747 0.2842 0.9427
vn -0.3196 0.1407 0.9371
vn -0.1355 0.1177 0.9838
vn -0.6053 -0.0836 0.7916
vn -0.4077 -0.1192 0.9053
vn -0.2182 -0.5332 0.8174
vn -0.8945 0.0125 0.4468
vn -0.6994 -0.4254 0.5744
vn -0.6717 0.2574 0.6946
vn -0.5235 0.2096 0.8258
vn -0.7373 0.2820 0.6140
vn 0.6663 0.3239 0.6717
vn 0.7960 0.1306 0.5911
vn -0.8115 0.3063 0.4977
vn -0.6545 0.5165 0.5522
vn 0.1988 -0.9752 0.0976
vn -0.1789 -0.9296 0.3221
vn 0.0027 -0.9936 0.1133
vn 0.0149 -0.8528 0.5220
vn 0.3018 -0.7606 0.5747
vn 0.5978 -0.7171 0.3585
usemtl Stone
s off
f 15/1/1 63/2/1 96/3/1
f 61/4/2 58/5/2 16/6/2
f 100/7/3 58/5/3 9/8/3
f 49/9/4 48/10/4 101/11/4
f 48/10/5 47/12/5 51/13/5
f 24/14/6 23/15/6 102/16/6
f 29/17/7 28/18/7 84/19/7
f 3/20/8 97/21/8 83/22/8
f 25/23/9 103/24/9 20/25/9
f 125/26/10 1/27/10 103/24/10
f 103/24/11 1/27/11 13/28/11
f 15/1/12 104/29/12 16/6/12
f 96/3/13 104/29/13 15/1/13
f 4/30/14 32/31/14 39/32/14
f 104/29/15 39/32/15 107/33/15
f 34/34/16 105/35/16 35/36/16
f 4/37/17 38/38/17 33/39/17
f 34/34/18 37/40/18 105/35/18
f 36/41/19 105/35/19 41/42/19
f 62/43/20 93/44/20 106/45/20
f 63/2/21 95/46/21 96/3/21
f 107/33/22 80/47/22 2/48/22
f 39/32/23 32/31/23 107/33/23
f 109/49/24 108/50/24 27/51/24
f 27/51/25 40/52/25 3/20/25
f 27/51/26 26/53/26 109/49/26
f 26/53/27 42/54/27 109/49/27
f 109/49/28 42/54/28 108/50/28
f 108/50/29 41/42/29 40/52/29
f 110/55/30 111/56/30 112/57/30
f 6/58/31 110/55/31 43/59/31
f 46/60/32 111/56/32 6/58/32
f 111/56/33 47/12/33 48/10/33
f 112/57/34 49/9/34 44/61/34
f 110/55/35 44/61/35 45/62/35
f 20/25/36 113/63/36 25/23/36
f 114/64/37 45/65/37 44/66/37
f 21/67/38 22/68/38 116/69/38
f 22/68/39 51/13/39 117/70/39
f 116/69/40 46/60/40 115/71/40
f 115/71/41 6/58/41 53/72/41
f 67/73/42 19/74/42 52/75/42
f 18/76/43 17/77/43 118/78/43
f 53/72/44 118/78/44 17/77/44
f 120/79/45 60/80/45 119/81/45
f 56/82/46 119/81/46 55/83/46
f 9/8/47 56/82/47 57/84/47
f 20/25/48 13/28/48 121/85/48
f 121/85/49 66/86/49 67/87/49
f 18/76/50 59/88/50 17/77/50
f 18/76/51 123/89/51 59/88/51
f 17/77/52 61/4/52 2/48/52
f 38/38/53 85/90/53 37/40/53
f 41/42/54 37/40/54 14/91/54
f 31/92/55 86/93/55 38/38/55
f 14/91/56 85/90/56 88/94/56
f 71/95/57 10/96/57 72/97/57
f 124/98/58 75/99/58 69/100/58
f 28/18/59 29/17/59 72/97/59
f 25/23/60 74/101/60 126/102/60
f 100/7/61 15/1/61 16/6/61 58/5/61
f 98/103/62 125/26/62 75/99/62
f 27/51/63 71/95/63 127/104/63
f 127/104/64 71/95/64 73/105/64
f 128/106/65 79/107/65 77/108/65
f 76/109/66 128/106/66 77/108/66
f 35/36/67 129/110/67 34/34/67
f 5/111/68 77/112/68 35/36/68
f 22/68/69 21/67/69 76/109/69
f 21/67/70 128/106/70 76/109/70
f 22/68/71 76/109/71 81/113/71
f 81/113/72 130/114/72 42/54/72
f 130/114/73 77/108/73 42/54/73
f 42/54/74 77/112/74 5/111/74
f 83/22/75 12/115/75 131/116/75
f 131/116/76 132/117/76 134/118/76
f 84/119/77 131/116/77 11/120/77
f 82/121/78 133/122/78 87/123/78
f 12/115/79 133/122/79 132/117/79
f 88/94/80 85/124/80 133/122/80
f 11/120/81 134/118/81 91/125/81
f 132/117/82 82/121/82 134/118/82
f 135/126/83 136/127/83 57/84/83
f 57/84/84 93/44/84 9/8/84
f 55/83/85 135/126/85 56/82/85
f 8/128/86 135/126/86 55/83/86
f 136/127/87 94/129/87 93/44/87
f 40/52/88 88/94/88 97/21/88
f 41/42/89 14/91/89 88/94/89
f 97/21/90 88/94/90 12/115/90
f 137/130/91 86/131/91 31/132/91
f 95/46/92 90/133/92 137/130/92
f 99/134/93 91/135/93 64/136/93
f 91/135/94 92/137/94 65/138/94
f 65/138/95 92/137/95 8/139/95
f 30/140/96 98/103/96 138/141/96
f 62/43/97 63/2/97 15/1/97 100/7/97
f 2/48/98 61/4/98 16/6/98
f 62/43/99 100/7/99 9/8/99
f 51/13/100 81/113/100 23/15/100 48/10/100
f 48/10/101 23/15/101 24/14/101 101/11/101
f 50/142/102 49/9/102 24/14/102 74/101/102
f 24/14/103 49/9/103 101/11/103
f 73/105/104 68/143/104 102/16/104 23/15/104
f 23/15/105 81/113/105 73/105/105
f 70/144/106 74/101/106 24/14/106 102/16/106
f 102/16/107 68/143/107 70/144/107
f 107/33/108 2/48/108 16/6/108 104/29/108
f 28/18/109 3/20/109 83/22/109
f 84/19/110 28/18/110 83/22/110
f 83/22/111 97/21/111 12/115/111
f 98/103/112 29/17/112 84/19/112
f 20/25/113 103/24/113 13/28/113
f 25/23/114 125/26/114 103/24/114
f 125/26/115 30/140/115 1/27/115
f 104/29/116 4/30/116 39/32/116
f 31/132/117 4/30/117 104/29/117 96/3/117
f 36/41/118 5/111/118 35/36/118 105/35/118
f 37/40/119 34/34/119 33/39/119 38/38/119
f 33/39/120 32/145/120 4/37/120
f 106/45/121 95/46/121 63/2/121 62/43/121
f 41/42/122 105/35/122 37/40/122
f 94/129/123 90/133/123 95/46/123 106/45/123
f 62/43/124 9/8/124 93/44/124
f 106/45/125 93/44/125 94/129/125
f 79/107/126 78/146/126 107/33/126 32/31/126
f 5/111/127 36/41/127 108/50/127 42/54/127
f 107/33/128 78/146/128 80/47/128
f 26/53/129 81/113/129 42/54/129
f 50/142/130 74/101/130 25/23/130 113/63/130
f 108/50/131 36/41/131 41/42/131
f 27/51/132 108/50/132 40/52/132
f 6/58/133 111/56/133 110/55/133
f 45/62/134 43/59/134 110/55/134
f 111/56/135 46/60/135 47/12/135
f 112/57/136 111/56/136 48/10/136
f 112/57/137 48/10/137 49/9/137
f 110/55/138 112/57/138 44/61/138
f 113/63/139 20/25/139 114/64/139
f 52/147/140 114/64/140 20/25/140 67/87/140
f 44/66/141 49/9/141 50/142/141 113/63/141
f 114/64/142 52/147/142 45/65/142
f 113/63/143 114/64/143 44/66/143
f 53/72/144 2/48/144 80/47/144 115/71/144
f 116/69/145 22/68/145 117/70/145
f 115/71/146 80/47/146 21/67/146 116/69/146
f 46/60/147 116/69/147 117/70/147 47/12/147
f 22/68/148 81/113/148 51/13/148
f 117/70/149 51/13/149 47/12/149
f 43/59/150 45/62/150 52/75/150 19/74/150
f 115/71/151 46/60/151 6/58/151
f 19/74/152 118/78/152 43/59/152
f 19/74/153 18/76/153 118/78/153
f 17/77/154 2/48/154 53/72/154
f 53/72/155 6/58/155 118/78/155
f 118/78/156 6/58/156 43/59/156
f 54/148/157 8/128/157 55/83/157 119/81/157
f 56/82/158 120/79/158 119/81/158
f 120/79/159 56/82/159 9/8/159 58/5/159
f 61/4/160 59/88/160 120/79/160 58/5/160
f 7/149/161 54/148/161 119/81/161 60/80/161
f 120/79/162 59/88/162 60/80/162
f 122/150/163 7/151/163 121/85/163 13/28/163
f 65/138/164 122/150/164 13/28/164 64/136/164
f 67/87/165 20/25/165 121/85/165
f 13/28/166 1/27/166 64/136/166
f 8/139/167 54/152/167 122/150/167 65/138/167
f 66/153/168 123/89/168 19/74/168 67/73/168
f 7/151/169 122/150/169 54/152/169
f 121/85/170 7/151/170 66/86/170
f 18/76/171 19/74/171 123/89/171
f 7/149/172 60/80/172 123/89/172 66/153/172
f 124/98/173 68/143/173 73/105/173 71/95/173
f 59/88/174 123/89/174 60/80/174
f 17/77/175 59/88/175 61/4/175
f 38/38/176 86/93/176 85/90/176
f 4/37/177 31/92/177 38/38/177
f 14/91/178 37/40/178 85/90/178
f 124/98/179 69/100/179 70/144/179 68/143/179
f 124/98/180 71/95/180 72/97/180
f 124/98/181 72/97/181 75/99/181
f 69/100/182 125/26/182 126/102/182 70/144/182
f 72/97/183 29/17/183 75/99/183
f 3/20/184 28/18/184 72/97/184
f 29/17/185 98/103/185 75/99/185
f 3/20/186 72/97/186 10/96/186
f 127/104/187 73/105/187 81/113/187 26/53/187
f 98/103/188 30/140/188 125/26/188
f 125/26/189 25/23/189 126/102/189
f 74/101/190 70/144/190 126/102/190
f 75/99/191 125/26/191 69/100/191
f 71/95/192 27/51/192 3/20/192 10/96/192
f 26/53/193 27/51/193 127/104/193
f 79/154/194 129/110/194 35/36/194 77/112/194
f 128/106/195 78/146/195 79/107/195
f 80/47/196 78/146/196 128/106/196
f 32/145/197 33/39/197 129/110/197
f 33/39/198 34/34/198 129/110/198
f 85/124/199 86/155/199 87/123/199 133/122/199
f 32/145/200 129/110/200 79/154/200
f 21/67/201 80/47/201 128/106/201
f 81/113/202 76/109/202 130/114/202
f 130/114/203 76/109/203 77/108/203
f 131/116/204 12/115/204 132/117/204
f 84/19/205 83/22/205 131/116/205
f 11/120/206 131/116/206 134/118/206
f 82/121/207 132/117/207 133/122/207
f 12/115/208 88/94/208 133/122/208
f 89/156/209 82/121/209 90/157/209 94/158/209
f 90/157/210 82/121/210 87/123/210
f 82/121/211 89/156/211 134/118/211
f 89/159/212 136/127/212 135/126/212 92/160/212
f 134/118/213 89/156/213 92/161/213
f 91/125/214 134/118/214 92/161/214
f 56/82/215 135/126/215 57/84/215
f 8/128/216 92/160/216 135/126/216
f 87/162/217 86/131/217 137/130/217 90/133/217
f 136/127/218 89/159/218 94/129/218
f 57/84/219 136/127/219 93/44/219
f 40/52/220 41/42/220 88/94/220
f 3/20/221 40/52/221 97/21/221
f 96/3/222 137/130/222 31/132/222
f 96/3/223 95/46/223 137/130/223
f 99/134/224 1/27/224 30/140/224 138/141/224
f 64/136/225 91/135/225 65/138/225
f 1/27/226 99/134/226 64/136/226
f 99/134/227 11/163/227 91/135/227
f 84/19/228 11/163/228 99/134/228 138/141/228
f 138/141/229 98/103/229 84/19/229
