# Blender v2.93.3 OBJ File: 'assets.blend'
# www.blender.org
mtllib rock-16.mtl
o Stone-1_Cube.041
v -0.551133 -0.478227 -2.491545
v -0.451248 1.043375 -3.023650
v 2.670662 -0.434055 -2.300385
v 4.128131 1.177596 -1.434600
v -0.517378 -0.662981 -1.387421
v -0.551606 -0.478522 -0.283188
v -0.612292 0.015111 0.271151
v -0.608218 0.838763 -0.029322
v -0.438961 1.419773 -1.960223
v -0.612054 0.014643 -3.043518
v 0.275321 -0.390253 -3.173561
v -0.323158 -0.274848 -3.223514
v 0.077146 1.789734 -2.905412
v 0.940000 2.049857 -3.021516
v 1.677755 1.555624 -3.207237
v 0.869909 0.846516 -3.686926
v 1.824437 0.169707 -3.154181
v 2.794627 -0.742038 -1.591776
v 1.694200 2.436345 -1.998448
v 1.705001 2.552262 -1.102393
v 1.485849 2.297249 0.220883
v 0.877045 1.506177 0.990429
v 0.407166 0.840346 1.152155
v 0.216902 0.117010 0.948852
v -0.175718 -0.424263 0.323403
v 2.212241 -0.399155 0.589456
v 0.343727 1.838381 0.457632
v -0.300289 1.417514 0.026048
v 4.581269 0.441901 -1.330430
v 4.748110 -0.234647 -0.936844
v 4.617661 -0.549758 0.009814
v 4.283006 -0.540843 -1.129869
v 4.608938 1.039079 -0.481977
v 4.249121 1.198558 0.482940
v 4.343889 0.768315 0.820958
v 4.614042 0.020436 0.767840
v 4.151862 -0.425280 0.600919
v 2.711219 1.854916 0.629425
v 2.564765 1.907344 -2.348513
v -0.781206 -0.089430 -0.502569
v -0.773851 -0.305196 -1.861693
v -0.847036 0.274451 -1.898114
v -0.340392 0.614045 -3.539714
v 0.222431 0.082404 -3.631187
v 0.103193 0.617085 -3.758518
v 0.277912 1.273346 -3.638952
v 2.817479 1.311340 1.039993
v 3.641058 -0.016009 1.007655
v 3.771559 0.466430 1.093070
v -0.152033 1.020293 0.797131
v -0.346178 0.135929 0.743989
v -0.097740 -0.704280 -2.410965
v 0.256190 -0.845977 -1.355958
v -0.096017 -0.709854 -0.347911
v 0.678427 2.296928 -2.255576
v 0.760090 2.432502 -0.730256
v 0.166142 2.106636 -0.794354
v 5.081027 0.067457 -0.343989
v 4.978701 0.509611 -0.378460
v 4.953819 -0.273677 0.081080
v 4.959287 0.309825 0.396362
v 3.640885 -0.717464 0.105412
v 3.642130 -0.808710 -0.559451
v 2.654896 2.195026 -0.045798
v 3.529663 1.788267 -1.271903
v 3.580703 1.850163 -0.573489
v 2.786965 0.702481 -2.794475
v 3.696984 -0.035837 -2.065696
v 3.742548 0.814964 -2.132440
vt 0.463166 0.062500
vt 0.524166 0.158225
vt 0.437500 0.158557
vt 0.463940 0.000000
vt 0.587787 0.018313
vt 0.463878 0.250000
vt 0.375000 0.217870
vt 0.375000 0.125000
vt 0.562435 0.389320
vt 0.500000 0.436142
vt 0.500000 0.371528
vt 0.405114 0.312356
vt 0.602957 0.277131
vt 0.523194 0.312116
vt 0.625000 0.459988
vt 0.557965 0.482354
vt 0.443221 0.487080
vt 0.437544 0.384001
vt 0.457795 0.722592
vt 0.500000 0.727565
vt 0.500000 0.855476
vt 0.537895 0.702239
vt 0.548784 0.738532
vt 0.561655 0.808498
vt 0.394607 0.731338
vt 0.437652 0.866914
vt 0.433655 0.691345
vt 0.480265 0.698759
vt 0.562500 0.913954
vt 0.463401 0.937855
vt 0.625000 0.847459
vt 0.375000 0.918456
vt 0.216165 0.562521
vt 0.259522 0.625000
vt 0.147812 0.625000
vt 0.215991 0.687392
vt 0.385221 0.576078
vt 0.750660 0.517274
vt 0.833598 0.588960
vt 0.752852 0.660700
vt 0.665012 0.500000
vt 0.696289 0.562717
vt 0.642163 0.567156
vt 0.875000 0.731687
vt 0.812585 0.732170
vt 0.722459 0.750000
vt 0.697873 0.659741
vt 0.375000 0.032448
vt 0.649193 0.625000
vt 0.637195 0.719527
vt 0.500000 0.610556
vt 0.459232 0.641288
vt 0.461216 0.575798
vt 0.540923 0.611601
vt 0.513885 0.665897
vt 0.515565 0.550726
vt 0.572206 0.677296
vt 0.394844 0.625000
vt 0.426256 0.576769
vt 0.426056 0.643232
vt 0.402407 0.667205
vt 0.616740 0.675175
vt 0.606720 0.625000
vt 0.593325 0.531675
vt 0.590958 0.715958
vt 0.574624 0.612269
vt 0.600059 0.581821
vt 0.567104 0.557896
vt 0.500000 0.502925
vt 0.458207 0.528396
vt 0.526653 0.526149
vt 0.406907 0.531907
vt 0.625000 0.155381
vt 0.625000 0.375000
vt 0.375000 0.392635
vt 0.585888 1.000000
vt 0.463940 1.000000
vt 0.625000 0.937500
vt 0.375000 1.000000
vt 0.267635 0.500000
vt 0.125000 0.532130
vt 0.187500 0.500000
vt 0.206544 0.750000
vt 0.125000 0.717552
vt 0.847869 0.500000
vn -0.9921 -0.1244 0.0144
vn -0.9761 0.0787 0.2025
vn -0.9763 -0.1339 -0.1699
vn -0.7520 -0.6535 -0.0864
vn 0.0416 0.1684 -0.9848
vn -0.7620 -0.5226 -0.3825
vn -0.9327 0.1521 -0.3269
vn 0.1487 0.5346 -0.8319
vn 0.2868 -0.3092 -0.9067
vn -0.0020 -0.1738 0.9848
vn 0.2512 0.3405 0.9061
vn -0.0010 0.2367 0.9716
vn -0.0387 -0.6674 0.7437
vn 0.2211 -0.5347 0.8156
vn 0.2410 -0.2320 0.9424
vn -0.5204 0.0631 0.8516
vn -0.3966 0.5464 0.7377
vn -0.0677 -0.7330 0.6769
vn -0.2278 -0.9722 -0.0542
vn -0.2318 -0.9715 0.0502
vn 0.0273 -0.9895 -0.1421
vn -0.6751 0.7332 -0.0816
vn -0.0484 0.9456 -0.3216
vn -0.3135 0.8672 -0.3868
vn -0.8836 0.4642 0.0622
vn -0.6405 0.7272 0.2467
vn -0.4864 0.8377 0.2485
vn -0.8634 -0.5000 0.0667
vn -0.0534 0.9821 0.1804
vn 0.8214 -0.5389 -0.1867
vn 0.9694 0.2309 0.0838
vn 0.9034 0.1787 -0.3899
vn 0.7124 0.5238 0.4670
vn 0.8030 -0.2891 0.5211
vn 0.0323 -0.9953 -0.0908
vn 0.3083 -0.9462 -0.0979
vn -0.0146 -0.8547 0.5190
vn 0.3501 0.9367 0.0020
vn 0.2843 0.8086 -0.5150
vn 0.3929 0.8340 0.3873
vn 0.6110 0.7856 0.0980
vn 0.6215 0.7750 -0.1141
vn 0.5786 0.6850 -0.4428
vn 0.4627 -0.2648 -0.8460
vn 0.4264 0.1207 -0.8965
vn 0.5335 0.4312 -0.7276
vn 0.7233 0.3623 -0.5879
vn 0.4033 -0.6757 -0.6171
vn -0.9864 0.1413 0.0834
vn -0.8891 -0.3858 0.2462
vn -0.9415 0.3365 0.0187
vn -0.9385 0.3287 -0.1055
vn -0.9603 0.1546 -0.2321
vn -0.9062 -0.3601 -0.2215
vn -0.4273 -0.3060 -0.8507
vn -0.6386 0.5285 -0.5593
vn -0.4273 0.2709 -0.8626
vn 0.1495 -0.1974 -0.9689
vn -0.6831 -0.2565 -0.6838
vn 0.2471 -0.6590 -0.7104
vn -0.3036 0.7380 -0.6026
vn 0.2015 0.3809 -0.9024
vn 0.0233 0.6573 0.7533
vn -0.0751 -0.6980 -0.7122
vn 0.0279 0.0941 0.9952
vn 0.3270 0.6175 0.7154
vn -0.0268 -0.2639 0.9642
vn -0.0137 -0.7134 0.7006
vn 0.3945 0.0775 0.9156
vn -0.8777 0.1669 0.4491
vn -0.3676 0.4563 0.8103
vn -0.3420 -0.1698 0.9242
vn -0.1695 0.7511 0.6380
vn -0.6785 0.5918 0.4353
vn -0.8341 0.4083 0.3707
vn -0.6496 -0.5882 0.4818
vn 0.1049 -0.9222 -0.3722
vn -0.2843 -0.6295 0.7232
vn -0.3664 -0.8608 -0.3533
vn -0.1356 -0.8910 -0.4333
vn -0.5377 0.8394 -0.0792
vn -0.0335 -0.9211 0.3879
vn -0.3923 -0.8623 0.3202
vn -0.4332 -0.8911 0.1354
vn -0.4224 -0.8960 -0.1370
vn -0.1360 0.9859 -0.0972
vn -0.7945 0.6046 0.0562
vn -0.7848 0.5871 -0.1987
vn -0.2871 0.8932 0.3461
vn 0.8091 0.4679 -0.3557
vn 0.9733 -0.1161 0.1981
vn 0.8822 -0.0545 -0.4676
vn 0.7809 0.5969 0.1841
vn 0.4762 -0.7016 0.5300
vn 0.6462 0.1808 0.7414
vn 0.6155 -0.7693 -0.1712
vn -0.0188 -0.9912 0.1307
vn 0.1987 -0.9539 -0.2247
vn -0.0542 -0.9003 0.4320
vn 0.3743 0.9199 -0.1171
vn 0.2489 -0.8716 -0.4224
vn 0.1804 -0.9744 0.1341
vn 0.1915 -0.9191 0.3445
vn 0.6810 -0.1612 -0.7143
vn 0.4560 0.8570 0.2400
vn 0.1323 0.9690 0.2087
vn 0.1757 0.8850 0.4311
vn 0.6633 0.7117 -0.2313
vn 0.4154 0.8666 -0.2765
vn 0.5217 0.2901 -0.8023
vn 0.5744 -0.0945 -0.8131
vn 0.4102 -0.1318 -0.9024
vn 0.3208 0.7131 -0.6234
vn 0.5987 0.5260 -0.6041
vn 0.5905 -0.4954 -0.6371
vn 0.3800 -0.5347 -0.7548
usemtl Stone
s off
f 40/1/1 42/2/1 41/3/1
f 7/4/2 8/5/2 40/1/2
f 42/2/3 10/6/3 41/3/3
f 41/3/4 1/7/4 5/8/4
f 46/9/5 16/10/5 45/11/5
f 10/6/6 12/12/6 1/7/6
f 2/13/7 43/14/7 10/6/7
f 14/15/8 15/16/8 46/9/8
f 16/10/9 17/17/9 44/18/9
f 48/19/10 49/20/10 23/21/10
f 49/20/11 35/22/11 47/23/11
f 23/21/12 47/23/12 22/24/12
f 26/25/13 48/19/13 24/26/13
f 48/19/14 37/27/14 36/28/14
f 48/19/15 36/28/15 49/20/15
f 23/21/16 50/29/16 51/30/16
f 22/24/17 27/31/17 50/29/17
f 26/25/18 24/26/18 25/32/18
f 52/33/19 53/34/19 5/35/19
f 53/34/20 54/36/20 5/35/20
f 18/37/21 53/34/21 52/33/21
f 13/38/22 9/39/22 57/40/22
f 14/41/23 55/42/23 19/43/23
f 14/41/24 13/38/24 55/42/24
f 9/39/25 8/44/25 28/45/25
f 28/45/26 27/46/26 57/40/26
f 57/40/27 27/46/27 56/47/27
f 41/3/28 5/8/28 6/48/28 40/1/28
f 20/49/29 56/47/29 21/50/29
f 58/51/30 60/52/30 30/53/30
f 59/54/31 61/55/31 58/51/31
f 29/56/32 59/54/32 58/51/32
f 34/57/33 35/22/33 61/55/33
f 61/55/34 36/28/34 60/52/34
f 53/34/35 18/37/35 63/58/35
f 63/58/36 32/59/36 31/60/36
f 62/61/37 37/27/37 26/25/37
f 64/62/38 66/63/38 20/49/38
f 19/43/39 39/64/39 14/41/39
f 38/65/40 34/57/40 64/62/40
f 34/57/41 33/66/41 66/63/41
f 66/63/42 33/66/42 65/67/42
f 65/67/43 4/68/43 39/64/43
f 17/17/44 67/69/44 68/70/44
f 16/10/45 15/16/45 67/69/45
f 15/16/46 39/64/46 69/71/46
f 69/71/47 4/68/47 29/56/47
f 3/72/48 68/70/48 32/59/48
f 40/1/49 8/5/49 42/2/49
f 6/48/50 7/4/50 40/1/50
f 8/5/51 9/73/51 42/2/51
f 42/2/52 9/73/52 2/13/52
f 42/2/53 2/13/53 10/6/53
f 41/3/54 10/6/54 1/7/54
f 44/18/55 12/12/55 43/14/55 45/11/55
f 46/9/56 43/14/56 2/13/56 13/74/56
f 43/14/57 46/9/57 45/11/57
f 45/11/58 16/10/58 44/18/58
f 10/6/59 43/14/59 12/12/59
f 17/17/60 3/72/60 11/75/60 44/18/60
f 13/74/61 14/15/61 46/9/61
f 46/9/62 15/16/62 16/10/62
f 38/65/63 21/50/63 22/24/63 47/23/63
f 12/12/64 44/18/64 11/75/64
f 23/21/65 49/20/65 47/23/65
f 34/57/66 38/65/66 47/23/66 35/22/66
f 24/26/67 48/19/67 23/21/67
f 26/25/68 37/27/68 48/19/68
f 49/20/69 36/28/69 35/22/69
f 8/76/70 7/77/70 51/30/70 50/29/70
f 23/21/71 22/24/71 50/29/71
f 24/26/72 23/21/72 51/30/72
f 22/24/73 21/50/73 27/31/73
f 50/29/74 27/31/74 28/78/74
f 50/29/75 28/78/75 8/76/75
f 7/77/76 6/79/76 25/32/76 51/30/76
f 52/33/77 11/80/77 3/72/77 18/37/77
f 25/32/78 24/26/78 51/30/78
f 1/81/79 12/82/79 52/33/79
f 12/82/80 11/80/80 52/33/80
f 57/40/81 56/47/81 55/42/81 13/38/81
f 54/36/82 26/25/82 25/83/82
f 54/36/83 25/83/83 6/84/83
f 5/35/84 54/36/84 6/84/84
f 1/81/85 52/33/85 5/35/85
f 56/47/86 20/49/86 19/43/86 55/42/86
f 57/40/87 9/39/87 28/45/87
f 13/38/88 2/85/88 9/39/88
f 56/47/89 27/46/89 21/50/89
f 33/66/90 59/54/90 29/56/90 4/68/90
f 58/51/91 61/55/91 60/52/91
f 30/53/92 29/56/92 58/51/92
f 61/55/93 59/54/93 33/66/93 34/57/93
f 36/28/94 37/27/94 31/60/94 60/52/94
f 61/55/95 35/22/95 36/28/95
f 31/60/96 32/59/96 30/53/96 60/52/96
f 63/58/97 62/61/97 54/36/97 53/34/97
f 63/58/98 18/37/98 32/59/98
f 26/25/99 54/36/99 62/61/99
f 65/67/100 19/43/100 20/49/100 66/63/100
f 18/37/101 3/72/101 32/59/101
f 62/61/102 63/58/102 31/60/102
f 62/61/103 31/60/103 37/27/103
f 29/56/104 30/53/104 68/70/104 69/71/104
f 64/62/105 34/57/105 66/63/105
f 21/50/106 64/62/106 20/49/106
f 21/50/107 38/65/107 64/62/107
f 65/67/108 33/66/108 4/68/108
f 19/43/109 65/67/109 39/64/109
f 67/69/110 15/16/110 69/71/110
f 68/70/111 67/69/111 69/71/111
f 17/17/112 16/10/112 67/69/112
f 14/41/113 39/64/113 15/16/113
f 69/71/114 39/64/114 4/68/114
f 68/70/115 30/53/115 32/59/115
f 3/72/116 17/17/116 68/70/116
