# Blender v2.93.3 OBJ File: 'assets.blend'
# www.blender.org
mtllib rock-23.mtl
o Stone-6_Cube.046
v -0.826563 2.036691 2.262048
v -2.337622 0.294427 -1.059437
v 0.380360 3.550231 -0.866840
v 0.932710 1.728091 1.077327
v -1.859505 5.618636 0.626409
v 0.388347 -0.896934 -0.351305
v 0.205452 -0.766240 1.057715
v -0.382224 -0.363681 1.804448
v -0.194599 0.136773 1.968017
v -2.197130 3.997666 -0.764314
v 0.216191 -0.661748 -1.130394
v 1.389495 0.606711 -1.345482
v 1.361413 -0.156543 -1.290721
v 1.347792 -0.689463 0.040786
v 1.272177 -0.588409 -0.917266
v 1.757526 0.856567 0.090735
v 1.669830 -0.102577 0.482484
v 1.112565 -0.453435 0.930449
v -2.174653 -0.702458 -0.010639
v -2.064625 -0.270167 1.749219
v -2.257889 0.383099 1.577075
v -2.501579 1.007130 -0.120470
v -2.181971 -0.451582 -0.937076
v -1.658515 0.295773 -1.677750
v -2.102393 0.298854 -1.434314
v -1.546052 -0.733224 1.525635
v -2.121687 -0.590694 1.228029
v -1.647439 -0.486443 -1.320807
v 0.150714 3.213853 1.049627
v 0.253704 3.867307 -0.120469
v 1.187175 1.912549 -0.669663
v 0.957786 2.112259 0.316696
v -0.058828 2.690254 1.720278
v -2.362699 4.711505 0.062052
v -0.938886 4.603941 -1.153072
v -1.242193 3.990646 1.846001
v 0.478384 2.350988 -1.395195
v 0.337978 0.697877 -1.678985
v 1.580616 0.988521 -0.934468
v -2.098110 3.705649 1.598239
v 1.223944 1.069332 1.038434
v -0.746994 2.833311 2.100526
v -2.056405 5.635060 -0.004053
v -1.213977 5.515250 -0.311866
v -1.750074 5.779730 0.020924
v -1.529011 5.607400 0.552588
v -0.691338 5.027544 -0.727908
v -1.241756 4.830953 1.283435
v -2.005668 5.506144 -0.388272
v -1.881422 5.033195 1.224228
v 1.003494 1.872335 -1.223457
v 0.419533 -0.208624 -1.557376
v 1.727530 -0.324923 -0.549987
v 1.864434 0.146562 -0.632518
v 0.872264 0.173564 1.403250
v -1.814431 4.032913 -1.141522
v -1.155209 3.148710 -1.479582
v -2.427614 -0.237330 -0.070446
v -1.665458 -0.892597 -0.079492
v -1.517136 -0.333557 2.066673
v -1.139911 0.233604 2.280298
v -1.598912 0.264830 2.284706
v -1.913429 0.271426 2.124928
v -0.460096 4.575408 0.524330
v -0.572775 5.008342 -0.182080
v -2.293466 4.266277 0.999332
v -1.780164 3.362741 2.006853
v -1.400403 2.651631 2.249635
v 0.170409 1.781660 1.821682
v -1.678095 5.448265 -0.648839
v -2.133978 5.428165 0.467006
vt 0.618559 0.386360
vt 0.625000 0.387932
vt 0.616828 0.448392
vt 0.737068 0.500000
vt 0.630648 0.536106
vt 0.594318 0.545754
vt 0.512948 0.256705
vt 0.458753 0.368080
vt 0.416166 0.252066
vt 0.556205 0.365606
vt 0.464356 0.478700
vt 0.510973 0.589108
vt 0.436849 0.592212
vt 0.554911 0.478651
vt 0.355918 0.526003
vt 0.355879 0.654103
vt 0.597397 0.777527
vt 0.510306 0.840461
vt 0.481266 0.715226
vt 0.234694 0.586457
vt 0.218623 0.725965
vt 0.224934 0.500000
vt 0.622602 0.267400
vt 0.619830 0.290516
vt 0.624941 0.304891
vt 0.549465 0.031062
vt 0.557260 0.150953
vt 0.451340 0.154491
vt 0.456553 0.000000
vt 0.390469 0.040463
vt 0.511496 0.211528
vt 0.407203 0.240566
vt 0.375000 0.157306
vt 0.512196 0.236077
vt 0.518170 0.999426
vt 0.581428 1.000000
vt 0.446747 0.999842
vt 0.762646 0.579929
vt 0.833199 0.663886
vt 0.782796 0.701352
vt 0.871982 0.716326
vt 0.852691 0.743158
vt 0.624677 0.057536
vt 0.624577 0.153055
vt 0.622291 0.238248
vt 0.625000 0.000000
vt 0.586400 0.661328
vt 0.657575 0.658504
vt 0.637162 0.778525
vt 0.624359 0.985860
vt 0.624626 0.948800
vt 0.625000 0.999303
vt 0.618500 0.898629
vt 0.622986 0.798922
vt 0.625000 0.875000
vt 0.874343 0.646095
vt 0.874983 0.734424
vt 0.875000 0.594908
vt 0.875000 0.654134
vt 0.625000 0.226863
vt 0.625000 0.250856
vt 0.625000 0.303790
vt 0.625000 0.184313
vt 0.625000 0.189201
vt 0.624013 0.999730
vt 0.625000 0.999998
vt 0.625000 1.000000
vt 0.625000 1.000000
vt 0.625000 1.000000
vt 0.625000 0.070781
vt 0.625000 0.115631
vt 0.625000 0.000000
vt 0.625000 0.022829
vt 0.375000 0.476927
vt 0.375000 0.349934
vt 0.436849 0.946817
vt 0.402267 0.784627
vt 0.513097 0.935040
vt 0.617005 0.976487
vt 0.514766 0.982490
vt 0.375000 0.911769
vt 0.125049 0.721063
vt 0.125176 0.592465
vt 0.129116 0.589847
vt 0.126093 0.732402
vt 0.125000 0.500000
vt 0.125000 0.500000
vt 0.436933 0.995710
vt 0.516614 0.995373
vt 0.375000 1.000000
vt 0.375000 1.000000
vt 0.838868 0.739379
vt 0.828825 0.600838
vt 0.804650 0.531203
vt 0.869124 0.593987
vt 0.625000 1.000000
vt 0.621631 0.996516
vn 0.5750 0.3688 -0.7303
vn 0.8658 0.3886 -0.3154
vn 0.8392 0.4464 -0.3107
vn -0.0482 -0.4152 -0.9084
vn 0.0257 -0.1306 -0.9911
vn 0.8180 -0.3211 -0.4773
vn 0.8584 0.1097 -0.5011
vn 0.5733 -0.8088 -0.1306
vn 0.7516 -0.0267 0.6591
vn 0.1659 -0.9797 0.1124
vn 0.1284 -0.9412 -0.3125
vn -0.3190 0.1216 -0.9399
vn -0.1689 0.2396 -0.9561
vn 0.4795 0.3863 -0.7879
vn 0.1274 0.1573 -0.9793
vn -0.9910 -0.0540 0.1224
vn -0.9467 -0.2175 0.2374
vn -0.9902 -0.0639 -0.1244
vn -0.8648 -0.4864 -0.1249
vn -0.8800 -0.4683 0.0799
vn -0.8176 -0.2552 -0.5161
vn -0.8513 -0.1171 0.5114
vn 0.7995 0.4918 0.3450
vn 0.6316 0.6423 0.4341
vn -0.9955 0.0329 0.0892
vn -0.9759 0.0539 -0.2113
vn -0.9373 0.0429 0.3459
vn 0.8473 0.5232 0.0911
vn 0.8474 0.3511 0.3983
vn 0.5063 0.3862 0.7710
vn 0.6855 0.2493 0.6841
vn 0.6255 0.0708 0.7770
vn 0.7391 0.3991 0.5426
vn 0.0933 0.9579 0.2717
vn -0.3790 0.8611 -0.3390
vn 0.2888 0.7814 -0.5532
vn 0.5120 0.4408 -0.7373
vn -0.2060 0.8681 -0.4517
vn -0.2062 0.4049 0.8908
vn 0.1767 0.7085 0.6832
vn -0.9494 0.3135 -0.0186
vn -0.9103 0.2052 -0.3596
vn -0.8366 0.3189 0.4454
vn -0.6389 0.7376 0.2187
vn 0.7406 0.2846 -0.6087
vn 0.2854 -0.0916 -0.9540
vn 0.2092 -0.6931 -0.6898
vn 0.0094 -0.6880 -0.7256
vn 0.4361 -0.4268 0.7922
vn 0.9595 -0.2594 0.1095
vn 0.9857 -0.0219 0.1672
vn 0.6939 -0.5476 -0.4675
vn 0.8081 -0.0717 -0.5846
vn 0.9528 0.2749 -0.1290
vn 0.8764 0.1112 0.4685
vn 0.6843 -0.6394 0.3506
vn 0.8058 -0.5681 0.1674
vn -0.7717 0.0942 -0.6290
vn 0.6960 -0.2428 0.6757
vn 0.3093 -0.0441 0.9499
vn 0.3298 -0.6978 0.6358
vn 0.2569 -0.9588 -0.1214
vn 0.3487 -0.8789 0.3254
vn -0.0151 0.0719 -0.9973
vn -0.4776 0.1052 -0.8722
vn -0.3124 -0.9437 0.1089
vn 0.1458 0.1959 -0.9697
vn -0.9649 -0.1972 0.1737
vn -0.9493 -0.2328 -0.2115
vn -0.0499 -0.9530 -0.2987
vn 0.0089 -0.9953 0.0960
vn -0.3156 -0.9077 -0.2767
vn -0.5049 -0.4029 -0.7634
vn -0.4708 -0.3848 0.7939
vn 0.3526 0.1579 -0.9223
vn -0.0144 -0.3440 0.9388
vn 0.1245 -0.8170 0.5630
vn 0.2168 -0.4252 0.8788
vn -0.4253 -0.7328 0.5312
vn 0.6680 0.4948 0.5559
vn 0.6645 0.6797 0.3106
vn 0.8010 0.5845 -0.1297
vn 0.7822 0.5790 0.2301
vn 0.8537 0.4330 0.2893
vn 0.6300 0.7688 -0.1098
vn 0.5978 0.7904 0.1336
vn 0.9084 0.3970 0.1309
vn -0.8109 0.0459 0.5834
vn 0.8981 0.4384 -0.0338
vn -0.9891 0.0128 0.1467
vn -0.9706 0.0480 -0.2359
vn 0.9043 0.4145 -0.1027
vn 0.8333 0.4820 0.2709
vn 0.1712 0.1793 0.9688
vn -0.4596 0.0526 0.8865
vn 0.0002 0.0127 0.9999
vn 0.4641 0.1746 0.8684
vn 0.1422 0.2702 0.9522
vn -0.0585 0.2944 0.9539
vn 0.6836 0.2620 0.6812
vn 0.4024 -0.0078 0.9155
vn 0.4684 -0.0254 0.8832
vn -0.6355 0.2845 -0.7178
vn 0.4817 0.8725 0.0825
vn -0.4322 0.8878 0.1581
vn 0.2084 0.6295 -0.7485
vn -0.2335 0.3396 -0.9111
vn 0.1774 0.8895 -0.4211
vn 0.0985 0.5536 0.8270
vn -0.6100 0.3055 0.7311
vn 0.5731 0.4557 0.6811
vn 0.1579 0.7026 0.6938
vn -0.9625 0.2105 0.1711
vn -0.8050 0.2789 0.5237
vn -0.6704 0.5423 0.5064
vn -0.9303 0.2927 -0.2211
usemtl Stone
s off
f 37/1/1 3/2/1 51/3/1
f 51/3/2 3/4/2 31/5/2
f 51/3/3 31/5/3 39/6/3
f 24/7/4 52/8/4 28/9/4
f 38/10/5 52/8/5 24/7/5
f 13/11/6 54/12/6 53/13/6
f 12/14/7 39/6/7 54/12/7
f 15/15/8 53/13/8 14/16/8
f 41/17/9 55/18/9 17/19/9
f 6/20/10 14/16/10 7/21/10
f 15/15/11 6/20/11 11/22/11
f 24/7/12 56/23/12 57/24/12
f 56/23/13 35/25/13 57/24/13
f 35/25/14 3/2/14 37/1/14
f 57/24/15 37/1/15 38/10/15
f 21/26/16 22/27/16 58/28/16
f 20/29/17 21/26/17 27/30/17
f 22/27/18 2/31/18 58/28/18
f 58/28/19 23/32/19 19/33/19
f 27/30/20 58/28/20 19/33/20
f 23/32/21 2/31/21 25/34/21
f 63/35/22 21/36/22 20/37/22
f 30/38/23 64/39/23 29/40/23
f 64/39/24 46/41/24 48/42/24
f 22/27/25 66/43/25 34/44/25
f 22/27/26 10/45/26 2/31/26
f 21/26/27 40/46/27 66/43/27
f 16/47/28 31/5/28 32/48/28
f 41/17/29 16/47/29 4/49/29
f 42/50/30 33/51/30 36/52/30
f 69/53/31 4/54/31 33/51/31
f 55/18/32 41/17/32 69/53/32
f 33/51/33 4/54/33 29/55/33
f 46/41/34 45/56/34 5/57/34
f 45/56/35 49/58/35 43/59/35
f 70/60/36 44/61/36 47/62/36
f 35/25/37 47/62/37 3/2/37
f 49/63/38 45/64/38 70/60/38
f 67/65/39 36/52/39 50/66/39
f 48/67/40 46/68/40 5/69/40
f 34/44/41 71/70/41 43/71/41
f 34/44/42 49/63/42 10/45/42
f 66/43/43 50/72/43 71/70/43
f 71/70/44 5/73/44 43/71/44
f 12/14/45 51/3/45 39/6/45
f 12/14/46 13/11/46 52/8/46 38/10/46
f 15/74/47 11/75/47 52/8/47 13/11/47
f 28/9/48 52/8/48 11/75/48
f 8/76/49 18/77/49 55/18/49 9/78/49
f 53/13/50 54/12/50 17/19/50
f 54/12/51 16/47/51 17/19/51
f 15/15/52 13/11/52 53/13/52
f 13/11/53 12/14/53 54/12/53
f 39/6/54 16/47/54 54/12/54
f 16/47/55 41/17/55 17/19/55
f 14/16/56 17/19/56 18/77/56
f 14/16/57 53/13/57 17/19/57
f 10/45/58 56/23/58 25/34/58 2/31/58
f 17/19/59 55/18/59 18/77/59
f 9/78/60 1/79/60 61/80/60
f 18/77/61 8/76/61 7/81/61
f 6/20/62 15/15/62 14/16/62
f 7/21/63 14/16/63 18/77/63
f 38/10/64 24/7/64 57/24/64
f 24/7/65 25/34/65 56/23/65
f 27/82/66 19/83/66 59/84/66 26/85/66
f 57/24/67 35/25/67 37/1/67
f 27/30/68 21/26/68 58/28/68
f 58/28/69 2/31/69 23/32/69
f 28/86/70 11/22/70 6/20/70 59/84/70
f 59/84/71 6/20/71 7/21/71 26/85/71
f 23/87/72 28/86/72 59/84/72 19/83/72
f 25/34/73 24/7/73 28/9/73 23/32/73
f 63/35/74 20/37/74 60/88/74 62/89/74
f 51/3/75 12/14/75 38/10/75 37/1/75
f 61/80/76 62/89/76 60/88/76
f 26/90/77 7/81/77 8/76/77 60/88/77
f 60/88/78 8/76/78 9/78/78 61/80/78
f 20/37/79 27/91/79 26/90/79 60/88/79
f 48/42/80 33/92/80 29/40/80 64/39/80
f 64/39/81 65/93/81 46/41/81
f 65/93/82 30/38/82 3/4/82 47/94/82
f 30/38/83 65/93/83 64/39/83
f 29/40/84 4/49/84 32/48/84 30/38/84
f 47/94/85 44/95/85 65/93/85
f 65/93/86 44/95/86 46/41/86
f 31/5/87 30/38/87 32/48/87
f 67/65/88 40/96/88 21/36/88 63/35/88
f 3/4/89 30/38/89 31/5/89
f 22/27/90 21/26/90 66/43/90
f 10/45/91 22/27/91 34/44/91
f 16/47/92 39/6/92 31/5/92
f 4/49/93 16/47/93 32/48/93
f 68/97/94 1/79/94 42/50/94
f 68/97/95 67/65/95 63/35/95 62/89/95
f 1/79/96 68/97/96 62/89/96 61/80/96
f 33/51/97 42/50/97 1/79/97 69/53/97
f 68/97/98 42/50/98 36/52/98
f 67/65/99 68/97/99 36/52/99
f 69/53/100 41/17/100 4/54/100
f 1/79/101 9/78/101 69/53/101
f 9/78/102 55/18/102 69/53/102
f 70/60/103 56/23/103 10/45/103 49/63/103
f 46/41/104 44/95/104 45/56/104
f 5/57/105 45/56/105 43/59/105
f 35/25/106 70/60/106 47/62/106
f 56/23/107 70/60/107 35/25/107
f 70/60/108 45/64/108 44/61/108
f 50/66/109 36/52/109 48/67/109
f 40/96/110 67/65/110 50/66/110
f 36/52/111 33/51/111 48/67/111
f 50/66/112 48/67/112 5/69/112
f 34/44/113 66/43/113 71/70/113
f 66/43/114 40/46/114 50/72/114
f 71/70/115 50/72/115 5/73/115
f 34/44/116 43/71/116 49/63/116
