# Blender v2.93.3 OBJ File: 'assets.blend'
# www.blender.org
mtllib rock-25.mtl
o Stone-11_Cube.050
v 0.815076 -0.320360 1.482417
v -5.829873 -0.249746 0.491072
v -3.442829 -0.359052 5.486947
v -5.895310 1.666307 -0.335752
v 0.576467 -0.571539 5.558533
v 1.947347 1.445201 3.175097
v -3.101116 3.904845 -1.031474
v -3.683273 4.857492 0.578179
v -1.233613 -0.918488 0.404841
v 2.055616 -0.187974 2.797680
v -1.568578 3.576066 -0.896136
v -2.270179 0.114982 -1.423992
v -2.134528 -0.512671 -1.003843
v -0.679645 1.143324 -0.984418
v -0.503242 0.109489 -0.880611
v -0.482870 -0.562685 -0.360016
v -0.141215 2.513989 -0.339249
v 0.606312 2.395179 0.535298
v 1.079887 0.345342 1.238473
v 0.935314 -0.918528 4.094252
v 1.472546 -0.680796 3.174999
v 0.554399 3.412189 2.257009
v -0.107312 3.669219 3.289766
v -5.042811 -0.534579 2.211931
v -5.135914 1.733516 3.663235
v -5.087916 3.208933 2.491611
v -5.737194 2.482332 0.855916
v -6.007488 0.092527 -0.102257
v -5.272876 1.599222 -1.086370
v -3.128726 3.587394 4.521174
v -1.826692 -0.973327 5.167651
v -2.799729 -0.709500 5.542058
v -5.589425 -0.426030 -0.182254
v -4.596095 -0.496016 -0.840056
v 0.297734 0.254833 5.959598
v 2.208841 0.077362 3.163130
v 1.734325 -0.582251 4.013460
v 1.869331 0.860659 4.110463
v 1.161915 0.782008 5.131317
v -2.346226 0.557301 6.213529
v -1.201126 0.884905 6.182283
v -0.150307 1.554836 5.659932
v -0.991323 -0.801410 5.896163
v -2.248350 -0.371421 6.139692
v -4.014147 2.098975 5.080009
v -3.201537 2.308595 5.423674
v -2.775866 1.389166 5.967619
v -1.017571 3.060391 4.868863
v 1.241845 2.569160 1.969185
v -2.168190 4.474612 -0.658760
v -0.923488 4.505994 0.229599
v -2.166476 4.832304 -0.222267
v -1.742630 4.945036 0.452814
v -4.518278 4.021360 -0.320674
v -3.120250 4.962690 1.443115
v -1.472025 4.202520 3.577380
v -1.825173 4.871453 1.717641
v -4.326905 4.430175 1.651269
v -4.447878 3.566090 3.451051
v -3.802626 2.668920 -1.390342
v -3.711642 4.568997 2.624229
v -2.792482 4.559725 3.110486
v -1.097925 -0.303520 -0.950091
v 0.196255 0.127499 -0.188650
v 0.259170 0.964099 -0.299824
v -1.875110 2.290750 5.612241
v -0.648131 3.882086 -0.110410
v -5.594764 0.233195 2.279242
v -6.118125 0.908464 1.008755
v -4.157341 -0.900045 1.054422
v -4.067954 0.243199 -1.476491
v -5.542676 0.293348 -1.004885
v 1.990113 -0.119662 4.157402
v 1.257688 -0.220700 5.184072
v -0.739542 -0.439373 6.191509
v -4.067911 0.422065 5.255507
v -3.237803 0.210078 5.882023
v 0.856624 2.193778 4.304026
v 2.052364 0.652821 2.372507
v 1.899315 1.346178 2.323393
v -3.935239 4.312964 -0.562219
v -0.717766 4.523495 1.396663
v -4.640697 3.070247 -1.023967
v -2.545200 2.663659 -1.353927
v -4.934466 3.742973 0.279125
vt 0.872604 0.750000
vt 0.865242 0.747562
vt 0.874349 0.746165
vt 0.808088 0.737799
vt 0.865920 0.721875
vt 0.870443 0.690453
vt 0.875000 0.750000
vt 0.875000 0.750000
vt 0.409018 0.333933
vt 0.509276 0.346462
vt 0.436849 0.417962
vt 0.375000 0.497262
vt 0.564823 0.484234
vt 0.513142 0.581296
vt 0.472522 0.479771
vt 0.595742 0.593679
vt 0.578165 0.687934
vt 0.559972 0.752064
vt 0.437403 0.711520
vt 0.436903 0.580058
vt 0.375000 0.704212
vt 0.345443 0.532366
vt 0.874792 0.750000
vt 0.871421 0.750000
vt 0.847529 0.750000
vt 0.866306 0.750000
vt 0.832424 0.749603
vt 0.874931 0.750000
vt 0.875000 0.750000
vt 0.241823 0.500000
vt 0.233327 0.587355
vt 0.125000 0.500000
vt 0.312907 0.745870
vt 0.235285 0.745943
vt 0.136277 0.740498
vt 0.624403 0.482176
vt 0.635231 0.646136
vt 0.644349 0.529208
vt 0.717367 0.586882
vt 0.437032 0.106449
vt 0.512353 0.157036
vt 0.388830 0.219827
vt 0.527994 0.048924
vt 0.454844 0.007393
vt 0.575119 0.209193
vt 0.464720 0.216536
vt 0.375000 0.103037
vt 0.130509 0.593169
vt 0.125216 0.643731
vt 0.125065 0.513021
vt 0.125000 0.518260
vt 0.514450 0.268726
vt 0.410928 0.251688
vt 0.508199 0.240424
vt 0.406421 0.245411
vt 0.405336 0.753201
vt 0.282815 0.750000
vt 0.150496 0.750000
vt 0.132571 0.749602
vt 0.579779 0.931180
vt 0.521253 0.976401
vt 0.457698 0.927661
vt 0.402207 0.973133
vt 0.589566 0.998647
vt 0.539846 0.999844
vt 0.431048 0.996600
vt 0.625000 1.000000
vt 0.586890 0.003384
vt 0.625000 0.000000
vt 0.375000 0.000000
vt 0.459384 0.000346
vt 0.394403 0.000000
vt 0.551140 0.000000
vt 0.590979 0.000162
vt 0.625000 0.000000
vt 0.769815 0.748591
vt 0.775574 0.749850
vt 0.812500 0.750000
vt 0.718451 0.750000
vt 0.624582 0.759223
vt 0.500002 0.757393
vt 0.625000 0.737681
vt 0.125000 0.750000
vt 0.125444 0.745874
vt 0.125000 0.750000
vt 0.750851 0.712201
vt 0.832523 0.500000
vt 0.872698 0.558156
vt 0.614426 0.351473
vt 0.614301 0.270983
vt 0.751164 0.656231
vt 0.669455 0.689808
vt 0.718484 0.735539
vt 0.688288 0.741784
vt 0.622520 0.242895
vt 0.592325 0.239468
vt 0.624871 0.194568
vt 0.625000 0.250000
vt 0.622581 0.151779
vt 0.875000 0.750000
vt 0.594242 0.149469
vt 0.605078 0.063354
vt 0.462440 0.845450
vt 0.587059 0.846016
vt 0.375000 0.842185
vt 0.464363 0.781288
vt 0.397231 0.999939
vt 0.625000 1.000000
vt 0.375000 1.000000
vt 0.125000 0.750000
vt 0.875000 0.549682
vt 0.625000 0.292477
vt 0.624453 0.024173
vt 0.625000 0.033617
vn -0.2591 0.8230 0.5055
vn 0.0195 0.9727 0.2312
vn -0.3645 0.9228 0.1251
vn -0.6344 0.7126 0.2995
vn 0.1498 -0.5274 -0.8363
vn 0.1920 -0.8090 -0.5555
vn 0.5916 0.0200 -0.8060
vn 0.7597 0.1803 -0.6248
vn 0.8507 -0.1504 -0.5037
vn 0.6979 -0.5837 -0.4149
vn -0.1073 0.5773 0.8094
vn 0.2111 0.5472 0.8100
vn 0.0840 0.7609 0.6434
vn -0.0071 0.3728 0.9279
vn -0.0240 -0.9646 -0.2625
vn 0.1023 -0.9366 -0.3352
vn 0.6769 -0.6210 -0.3952
vn 0.0161 -0.9998 -0.0095
vn 0.5465 0.3312 -0.7692
vn 0.7311 0.3671 -0.5751
vn 0.4597 0.5006 -0.7335
vn -0.9231 -0.3230 0.2086
vn -0.8749 -0.1556 0.4587
vn -0.9895 0.0504 -0.1356
vn -0.9501 -0.2890 0.1177
vn -0.7736 -0.5788 0.2580
vn -0.3414 -0.9392 0.0354
vn -0.0091 -0.9999 -0.0126
vn -0.4636 -0.8836 0.0658
vn -0.1780 -0.9700 -0.1656
vn -0.2785 -0.5046 -0.8172
vn -0.7172 -0.5039 -0.4814
vn -0.8886 -0.0047 -0.4586
vn 0.6055 -0.7900 -0.0962
vn 0.3956 -0.8672 0.3024
vn 0.1966 -0.9422 0.2714
vn 0.0761 -0.9864 0.1455
vn 0.6552 0.1020 0.7485
vn 0.5509 -0.2066 0.8086
vn 0.0230 0.0150 0.9996
vn 0.3906 -0.2920 0.8730
vn 0.2630 0.3019 0.9163
vn -0.7759 0.3519 0.5236
vn -0.6228 -0.2822 0.7297
vn -0.4431 -0.3980 0.8033
vn -0.3745 0.0797 0.9238
vn -0.4362 0.3000 0.8484
vn 0.4817 0.6879 0.5429
vn 0.5616 0.5054 0.6552
vn 0.7599 0.5208 0.3889
vn 0.7641 -0.2888 -0.5769
vn 0.8459 0.3344 -0.4155
vn -0.1560 -0.7911 0.5915
vn -0.3878 -0.6018 0.6982
vn -0.0506 0.9948 -0.0881
vn -0.1008 0.6550 -0.7489
vn 0.0304 0.0314 -0.9990
vn 0.1564 0.3485 -0.9242
vn -0.0532 0.9898 -0.1319
vn 0.3978 0.7089 -0.5824
vn 0.3564 0.8987 0.2556
vn 0.5791 0.7967 0.1728
vn 0.4506 0.8879 -0.0927
vn 0.3591 0.8574 -0.3686
vn -0.7113 0.3320 -0.6195
vn -0.5387 0.5446 -0.6428
vn 0.3051 0.1456 -0.9411
vn -0.8104 0.4761 -0.3414
vn -0.1260 0.9583 0.2564
vn -0.4303 0.7409 0.5156
vn 0.0203 0.8209 0.5707
vn 0.1444 0.9395 0.3105
vn 0.0571 0.9965 0.0617
vn -0.3989 0.9088 0.1226
vn 0.2837 -0.2528 -0.9250
vn 0.2526 0.0227 -0.9673
vn 0.2411 -0.9583 -0.1533
vn 0.4556 -0.5364 -0.7104
vn 0.8490 -0.1318 -0.5116
vn 0.8352 0.1116 -0.5385
vn 0.6290 -0.4640 -0.6238
vn 0.6977 -0.1457 -0.7015
vn 0.6005 0.1351 -0.7881
vn 0.7833 -0.4634 -0.4143
vn 0.0444 0.6680 0.7428
vn -0.1185 0.4644 0.8777
vn -0.5292 0.5556 0.6413
vn -0.4425 0.5338 0.7206
vn 0.1617 0.4364 0.8851
vn 0.7732 0.5047 -0.3840
vn -0.7482 -0.5257 0.4049
vn 0.4862 0.2085 -0.8486
vn 0.4665 0.5731 -0.6738
vn -0.9321 -0.0464 0.3593
vn -0.9321 0.2464 0.2654
vn -0.8322 0.3612 0.4207
vn -0.2346 -0.9656 0.1120
vn -0.9722 0.2324 -0.0301
vn -0.0500 -0.9791 -0.1972
vn -0.0413 -0.6036 -0.7962
vn -0.4779 -0.8332 0.2781
vn -0.4461 -0.6610 -0.6034
vn -0.2672 0.0395 -0.9628
vn -0.7819 -0.6120 -0.1190
vn -0.7593 0.1169 -0.6401
vn 0.8075 0.1172 0.5781
vn 0.4606 -0.8147 -0.3524
vn 0.3868 -0.9221 -0.0124
vn 0.8490 -0.5241 0.0672
vn 0.9638 0.1601 0.2131
vn 0.6454 -0.6152 0.4528
vn 0.5227 0.3584 0.7735
vn -0.5491 0.1252 0.8263
vn 0.1744 0.0676 0.9824
vn -0.0379 -0.0832 0.9958
vn -0.0481 0.2602 0.9644
vn -0.0546 -0.6081 0.7920
vn 0.7126 0.6440 0.2781
vn -0.7919 0.0886 0.6042
vn -0.3094 -0.1077 0.9448
vn 0.9785 0.1956 -0.0651
vn 0.4036 0.7512 0.5223
vn 0.4732 0.6077 0.6378
vn 0.7112 0.4635 0.5285
vn 0.7879 0.6068 0.1046
vn 0.7382 0.1159 -0.6645
vn 0.8882 0.4479 -0.1022
vn 0.7201 0.6750 -0.1608
vn 0.9455 -0.1440 -0.2919
vn 0.6633 -0.4756 -0.5778
vn -0.1162 -0.9286 0.3524
vn 0.2462 -0.7097 0.6601
vn -0.1901 0.9016 -0.3885
vn -0.1048 0.7694 -0.6301
vn -0.5183 0.8106 -0.2725
vn 0.3188 0.9448 0.0758
vn 0.3991 0.8771 0.2671
vn -0.2332 0.4224 -0.8759
vn -0.3215 0.1776 -0.9301
vn -0.7595 0.4471 -0.4725
vn -0.8225 0.5633 0.0789
vn 0.0290 0.2635 -0.9642
vn 0.1496 0.3108 -0.9386
vn -0.6497 0.7544 -0.0934
vn -0.7328 0.6313 0.2538
vn -0.8654 0.4596 -0.1999
usemtl Stone
s off
f 30/1/1 62/2/1 61/3/1
f 57/4/2 55/5/2 62/2/2
f 61/3/3 55/5/3 8/6/3
f 59/7/4 61/3/4 58/8/4
f 13/9/5 12/10/5 63/11/5
f 13/9/6 63/11/6 16/12/6
f 14/13/7 65/14/7 15/15/7
f 17/16/8 18/17/8 65/14/8
f 80/18/9 19/19/9 64/20/9
f 64/20/10 1/21/10 16/22/10
f 30/1/11 46/23/11 66/24/11
f 48/25/12 66/24/12 42/26/12
f 56/27/13 30/1/13 48/25/13
f 66/24/14 47/28/14 41/29/14
f 13/30/15 9/31/15 34/32/15
f 16/22/16 9/31/16 13/30/16
f 16/22/17 1/21/17 21/33/17
f 9/31/18 20/34/18 31/35/18
f 17/16/19 11/36/19 67/37/19
f 18/17/20 17/16/20 67/37/20
f 67/37/21 11/38/21 50/39/21
f 68/40/22 69/41/22 2/42/22
f 25/43/23 68/40/23 76/44/23
f 69/41/24 4/45/24 28/46/24
f 69/41/25 28/46/25 2/42/25
f 68/40/26 2/42/26 24/47/26
f 70/48/27 24/49/27 33/50/27
f 9/31/28 31/35/28 70/48/28
f 33/50/29 24/49/29 2/51/29
f 70/48/30 33/50/30 34/32/30
f 71/52/31 34/53/31 72/54/31
f 33/55/32 28/46/32 72/54/32
f 72/54/33 28/46/33 4/45/33
f 21/33/34 10/56/34 37/57/34
f 20/34/35 37/57/35 5/58/35
f 20/34/36 5/58/36 43/59/36
f 20/34/37 43/59/37 31/35/37
f 39/60/38 35/61/38 74/62/38
f 74/62/39 35/61/39 5/63/39
f 41/64/40 40/65/40 75/66/40
f 5/63/41 35/61/41 75/66/41
f 42/67/42 41/64/42 35/61/42
f 25/43/43 45/68/43 59/69/43
f 3/70/44 77/71/44 76/44/44
f 3/70/45 44/72/45 77/71/45
f 77/71/46 40/73/46 47/74/46
f 45/68/47 47/74/47 46/75/47
f 23/76/48 48/25/48 78/77/48
f 78/77/49 42/26/49 39/78/49
f 78/77/50 38/79/50 6/80/50
f 19/19/51 79/81/51 10/56/51
f 18/17/52 49/82/52 80/18/52
f 43/59/53 44/83/53 32/84/53
f 32/84/54 44/83/54 3/85/54
f 53/86/55 8/6/55 55/5/55
f 7/87/56 81/88/56 50/39/56
f 84/89/57 12/10/57 71/52/57 60/90/57
f 7/87/58 50/39/58 11/38/58
f 8/6/59 53/86/59 52/91/59
f 50/39/60 52/91/60 51/92/60
f 82/93/61 57/4/61 56/27/61
f 22/94/62 82/93/62 23/76/62
f 51/92/63 53/86/63 82/93/63
f 53/86/64 51/92/64 52/91/64
f 4/45/65 83/95/65 29/96/65
f 83/95/66 54/97/66 81/98/66
f 84/89/67 11/36/67 14/13/67
f 85/99/68 54/97/68 4/45/68
f 61/3/69 62/2/69 55/5/69
f 59/7/70 30/1/70 61/3/70
f 30/1/71 56/27/71 62/2/71
f 56/27/72 57/4/72 62/2/72
f 57/4/73 53/86/73 55/5/73
f 58/8/74 61/3/74 8/6/74
f 63/11/75 12/10/75 15/15/75
f 14/13/76 15/15/76 12/10/76 84/89/76
f 21/33/77 20/34/77 9/31/77 16/22/77
f 63/11/78 15/15/78 16/22/78
f 65/14/79 80/18/79 64/20/79
f 65/14/80 18/17/80 80/18/80
f 15/15/81 64/20/81 16/22/81
f 15/15/82 65/14/82 64/20/82
f 14/13/83 17/16/83 65/14/83
f 1/21/84 64/20/84 19/19/84
f 48/25/85 30/1/85 66/24/85
f 66/24/86 46/23/86 47/28/86
f 30/1/87 59/7/87 45/100/87
f 30/1/88 45/100/88 46/23/88
f 42/26/89 66/24/89 41/29/89
f 67/37/90 51/92/90 49/82/90 18/17/90
f 24/47/91 3/70/91 76/44/91 68/40/91
f 17/16/92 14/13/92 11/36/92
f 51/92/93 67/37/93 50/39/93
f 68/40/94 25/43/94 69/41/94
f 27/101/95 69/41/95 25/43/95 26/102/95
f 25/43/96 59/69/96 26/102/96
f 32/84/97 24/49/97 70/48/97 31/35/97
f 69/41/98 27/101/98 4/45/98
f 34/32/99 9/31/99 70/48/99
f 34/53/100 71/52/100 12/10/100 13/9/100
f 24/49/101 32/84/101 3/85/101
f 72/54/102 34/53/102 33/55/102
f 29/96/103 60/90/103 71/52/103 72/54/103
f 33/55/104 2/42/104 28/46/104
f 29/96/105 72/54/105 4/45/105
f 39/60/106 74/62/106 73/103/106 38/104/106
f 21/33/107 1/21/107 10/56/107
f 20/34/108 21/33/108 37/57/108
f 73/103/109 37/105/109 10/56/109 36/106/109
f 38/104/110 73/103/110 36/106/110 6/80/110
f 74/62/111 5/63/111 37/105/111 73/103/111
f 39/60/112 42/67/112 35/61/112
f 47/74/113 45/68/113 76/44/113 77/71/113
f 35/61/114 41/64/114 75/66/114
f 75/66/115 40/65/115 44/107/115
f 41/64/116 47/108/116 40/65/116
f 43/109/117 75/66/117 44/107/117
f 6/80/118 22/94/118 23/76/118 78/77/118
f 25/43/119 76/44/119 45/68/119
f 77/71/120 44/72/120 40/73/120
f 6/80/121 36/106/121 79/81/121 80/18/121
f 56/27/122 48/25/122 23/76/122
f 78/77/123 48/25/123 42/26/123
f 78/77/124 39/78/124 38/79/124
f 49/82/125 22/94/125 6/80/125
f 19/19/126 80/18/126 79/81/126
f 80/18/127 49/82/127 6/80/127
f 51/92/128 82/93/128 22/94/128 49/82/128
f 10/56/129 79/81/129 36/106/129
f 1/21/130 19/19/130 10/56/130
f 31/35/131 43/59/131 32/84/131
f 43/59/132 5/58/132 75/110/132
f 52/91/133 81/88/133 8/6/133
f 50/39/134 81/88/134 52/91/134
f 8/6/135 81/88/135 54/111/135
f 82/93/136 53/86/136 57/4/136
f 23/76/137 82/93/137 56/27/137
f 81/98/138 7/112/138 60/90/138 83/95/138
f 60/90/139 29/96/139 83/95/139
f 4/45/140 54/97/140 83/95/140
f 58/113/141 85/99/141 27/101/141 26/102/141
f 84/89/142 60/90/142 7/112/142
f 84/89/143 7/112/143 11/36/143
f 8/114/144 54/97/144 85/99/144 58/113/144
f 26/102/145 59/69/145 58/113/145
f 27/101/146 85/99/146 4/45/146
