# Blender v2.93.3 OBJ File: 'assets.blend'
# www.blender.org
mtllib rock-14.mtl
o Stone-14_Cube.051
v -1.543589 2.098489 1.080257
v 1.995990 2.519292 0.711679
v 2.667844 2.236796 -0.890793
v 3.748866 -0.263844 0.249498
v 0.274169 4.020227 0.628275
v -1.784799 -0.782161 -0.511394
v -1.491447 -0.606537 0.838161
v -1.593397 0.206117 1.228452
v -2.026969 0.333561 0.705422
v -2.128002 0.961618 -0.473497
v -1.437990 -0.708515 -2.180049
v -0.838776 -1.008833 -1.550388
v 0.451932 1.754711 -3.138302
v 1.776343 2.940345 -2.609865
v 1.168273 -0.818082 -0.170925
v 1.998725 3.042122 0.089128
v 1.371695 0.270784 0.994504
v 1.271890 -0.342991 0.612912
v 1.581602 1.397755 1.160688
v -0.233638 3.382442 1.130728
v -0.971536 2.884845 1.207033
v 2.865599 1.616976 -2.648661
v 2.967230 -0.689012 0.829767
v 2.717940 -1.071550 -0.451076
v 2.929305 0.575178 1.388266
v 2.867680 -0.008317 1.291038
v 1.895914 3.457319 -1.009863
v 1.102028 -0.952427 -1.738148
v 3.728462 0.022987 -1.732664
v 3.486887 1.350986 0.357066
v 3.680759 0.630481 0.647377
v 3.496064 -0.512222 -1.961247
v 3.531080 -0.278891 0.840708
v 2.750627 1.787569 0.841176
v -1.225408 3.830751 0.071208
v 0.104714 4.154561 -0.809536
v 0.414398 4.228099 0.044875
v -1.098521 3.679799 0.707327
v -1.664356 2.729202 -0.798800
v -1.705468 0.036720 -2.236239
v -0.945984 -0.220783 -3.011687
v 0.342312 -0.241014 -3.406374
v 1.587524 2.243735 -3.325720
v 1.638907 1.139407 -3.598421
v 2.343968 2.168174 -3.212930
v 2.516450 -0.435853 -3.042660
v 1.402395 -0.266349 -3.458211
v 3.447234 0.200856 -2.544404
v 3.474403 0.824849 -2.370943
v 2.593554 -0.040169 -3.219349
v -0.486473 -0.607341 -3.059764
v 3.367151 1.370103 -1.939925
v 2.740101 -0.738462 -2.685922
v 2.842355 -0.975037 -1.979684
v -2.119493 -0.142211 -0.310580
v -0.836069 -0.148637 1.291727
v -0.829325 0.617604 1.517333
v -0.955695 -0.908948 0.187032
v 1.028102 4.014714 -0.087003
v 1.006957 3.981608 -0.921272
v -0.251935 -0.813130 -2.838616
v 2.241659 2.656409 -2.779234
v 2.442445 1.472161 1.196461
v 3.814514 0.586265 0.011198
v 3.279258 0.858496 1.158425
v 3.325671 -0.869361 -0.229847
v -0.927442 3.913639 -0.624754
v -0.466965 4.222472 0.163796
v -1.716777 2.932027 0.293070
v 0.023440 3.697456 -1.437392
v -0.828038 3.410534 -1.285890
v 0.281379 0.789062 -3.431290
v 2.403008 1.253875 -3.419271
v 3.632562 0.996156 -1.668941
v -0.754607 0.760159 -2.964670
vt 0.533505 0.062174
vt 0.581156 0.146848
vt 0.505826 0.134850
vt 0.518760 0.234323
vt 0.622075 0.580007
vt 0.592948 0.507220
vt 0.597519 0.501100
vt 0.532223 0.500092
vt 0.588097 0.725234
vt 0.591464 0.692609
vt 0.611063 0.679260
vt 0.515908 0.772570
vt 0.618105 0.856429
vt 0.514608 0.922618
vt 0.375000 0.759502
vt 0.437150 0.924665
vt 0.400993 0.989796
vt 0.125000 0.500000
vt 0.197206 0.551286
vt 0.125000 0.600355
vt 0.194703 0.669488
vt 0.136420 0.728357
vt 0.625165 0.667491
vt 0.629293 0.562560
vt 0.648021 0.660455
vt 0.622925 0.594841
vt 0.622730 0.477592
vt 0.228192 0.508440
vt 0.154363 0.500396
vt 0.372206 0.491792
vt 0.621059 0.496203
vt 0.597142 0.488632
vt 0.546109 0.735557
vt 0.353724 0.664777
vt 0.378511 0.610344
vt 0.407654 0.693753
vt 0.338466 0.561768
vt 0.374858 0.524669
vt 0.541223 0.514252
vt 0.577519 0.658065
vt 0.496619 0.619214
vt 0.508205 0.692675
vt 0.425672 0.644952
vt 0.428668 0.698326
vt 0.530706 0.724462
vt 0.499996 0.738240
vt 0.454509 0.731577
vt 0.381770 0.611854
vt 0.394412 0.509915
vt 0.800583 0.532363
vt 0.731149 0.658763
vt 0.645467 0.514716
vt 0.840686 0.634082
vt 0.829533 0.739953
vt 0.624406 0.773409
vt 0.623734 0.089454
vt 0.625000 0.000000
vt 0.625000 0.019030
vt 0.625000 0.147822
vt 0.621027 0.210439
vt 0.625000 0.954533
vt 0.619321 0.937515
vt 0.625000 1.000000
vt 0.574610 0.296974
vt 0.624328 0.343203
vt 0.625143 0.437481
vt 0.528827 0.491467
vt 0.441103 0.497184
vt 0.398303 0.500220
vt 0.436991 0.510521
vt 0.380976 0.503675
vt 0.608250 0.376384
vt 0.601013 0.442216
vt 0.541874 0.344419
vt 0.459510 0.500000
vt 0.473224 0.264475
vt 0.389467 0.252255
vt 0.395028 0.338979
vt 0.408542 0.241582
vt 0.409835 0.147433
vt 0.405496 0.021579
vt 0.517746 0.000000
vt 0.443523 0.763484
vt 0.517746 1.000000
vt 0.384014 0.736009
vt 0.192723 0.500000
vt 0.657703 0.750000
vt 0.625000 0.314553
vt 0.521541 0.448809
vn -0.9961 0.0053 0.0882
vn -0.9762 -0.0390 -0.2135
vn 0.6377 0.7462 -0.1914
vn 0.7899 0.4683 -0.3959
vn 0.5334 0.6466 0.5454
vn 0.1090 0.1146 0.9874
vn 0.1244 -0.7824 0.6102
vn -0.3475 -0.9308 -0.1133
vn -0.3006 -0.9352 0.1870
vn 0.3193 0.9466 -0.0457
vn 0.5040 0.8624 -0.0470
vn 0.4614 0.8336 -0.3038
vn -0.0095 -0.7370 -0.6758
vn -0.2183 -0.9451 -0.2430
vn 0.8461 0.5279 -0.0736
vn 0.8590 0.5054 -0.0816
vn 0.8296 0.4578 -0.3197
vn 0.3664 0.5150 0.7750
vn -0.1003 -0.9478 0.3026
vn -0.0220 -0.9977 -0.0648
vn 0.9187 0.3950 -0.0031
vn 0.9312 0.3205 0.1735
vn 0.9782 -0.0175 0.2069
vn 0.5969 -0.0905 0.7972
vn 0.2982 0.3516 0.8874
vn 0.3425 -0.4922 0.8003
vn 0.9359 -0.0812 0.3427
vn 0.7867 0.0017 0.6173
vn 0.6614 0.5503 0.5096
vn 0.5536 -0.7696 0.3182
vn 0.3263 -0.9447 -0.0331
vn 0.8312 -0.5550 -0.0327
vn 0.5856 0.7910 0.1772
vn 0.8278 0.5597 -0.0385
vn -0.2586 0.9412 -0.2176
vn -0.4668 0.8350 0.2913
vn 0.0404 0.9381 0.3440
vn -0.9770 0.1419 0.1593
vn -0.9099 0.1687 0.3789
vn -0.8103 0.5130 0.2834
vn -0.8832 0.4517 -0.1263
vn -0.1251 0.6735 0.7285
vn -0.2425 0.4882 0.8383
vn -0.6250 0.3415 0.7020
vn -0.7236 0.3549 -0.5920
vn -0.0411 0.8103 -0.5846
vn 0.7233 0.3464 -0.5974
vn 0.2558 -0.4353 -0.8632
vn 0.9634 0.1109 -0.2441
vn 0.9913 0.1031 -0.0822
vn 0.8670 0.4026 -0.2936
vn -0.0260 -0.9952 -0.0940
vn 0.5581 -0.4266 -0.7117
vn -0.2883 0.3243 -0.9009
vn -0.3953 0.3299 -0.8572
vn 0.9011 -0.2359 -0.3639
vn -0.4104 0.1234 -0.9035
vn -0.2885 -0.2273 -0.9301
vn -0.5328 -0.5537 -0.6399
vn -0.9033 -0.3700 -0.2172
vn -0.7602 -0.3563 0.5433
vn -0.7594 0.0706 0.6467
vn 0.8277 0.5496 0.1135
vn 0.1925 -0.2199 0.9563
vn -0.8391 -0.4737 0.2673
vn -0.3713 0.0936 0.9238
vn 0.0106 0.1362 0.9906
vn -0.2460 -0.3651 0.8979
vn 0.0457 -0.9964 0.0713
vn 0.2123 -0.5406 0.8140
vn 0.5354 0.6405 0.5505
vn 0.1213 -0.8559 0.5027
vn 0.1225 -0.8578 0.4992
vn -0.1870 -0.9814 0.0438
vn 0.1671 0.6802 -0.7137
vn 0.6740 0.7097 0.2051
vn 0.1060 0.8672 -0.4865
vn 0.1689 0.9749 -0.1451
vn 0.3761 0.8406 0.3899
vn 0.0149 -0.9895 -0.1436
vn -0.3192 -0.8385 -0.4417
vn -0.0531 -0.6203 -0.7826
vn 0.0500 -0.8113 -0.5825
vn 0.4114 0.8579 -0.3079
vn -0.2225 -0.1138 0.9683
vn -0.0563 0.1794 0.9822
vn -0.2349 -0.5303 0.8146
vn -0.0721 0.3936 0.9165
vn 0.2961 0.3296 0.8965
vn -0.1448 -0.9853 0.0906
vn -0.2342 -0.8174 0.5264
vn 0.9963 -0.0832 -0.0223
vn 0.4958 -0.1934 0.8466
vn 0.3946 0.4900 0.7773
vn 0.7994 0.3968 0.4510
vn 0.6966 -0.6764 0.2394
vn 0.2276 -0.9443 0.2377
vn 0.5764 -0.8097 -0.1103
vn 0.9251 -0.3745 -0.0637
vn 0.7573 0.6522 -0.0340
vn -0.4488 0.8894 -0.0862
vn -0.1604 0.7854 0.5978
vn -0.0171 0.9967 -0.0796
vn -0.9673 0.2371 -0.0905
vn -0.9293 0.1849 -0.3198
vn -0.7729 0.3434 0.5336
vn -0.7970 0.5366 -0.2773
vn -0.3499 0.5722 -0.7417
vn -0.1354 0.7277 -0.6724
vn -0.3145 0.7591 -0.5699
vn -0.4850 0.4583 -0.7448
vn -0.6701 0.3575 -0.6505
vn -0.7037 0.5104 -0.4942
vn -0.0818 -0.0615 -0.9947
vn 0.2283 -0.1255 -0.9655
vn -0.2933 -0.0405 -0.9552
vn -0.1768 0.2282 -0.9574
vn 0.7220 0.1559 -0.6741
vn 0.6249 -0.0285 -0.7802
vn 0.1774 0.2364 -0.9553
vn 0.6640 -0.4052 -0.6284
vn 0.8037 0.1799 -0.5672
vn 0.9470 0.0471 -0.3178
vn 0.1512 -0.7051 -0.6928
vn 0.0401 -0.9457 -0.3226
vn 0.5506 -0.7643 -0.3357
vn -0.7288 -0.3077 -0.6116
vn -0.6763 0.1663 -0.7176
usemtl Stone
s off
f 9/1/1 10/2/1 55/3/1
f 10/2/2 40/4/2 55/3/2
f 3/5/3 52/6/3 22/7/3
f 52/6/4 49/8/4 22/7/4
f 2/9/5 34/10/5 16/11/5
f 19/12/6 20/13/6 57/14/6
f 18/15/7 56/16/7 7/17/7
f 11/18/8 12/19/8 6/20/8
f 6/20/9 58/21/9 7/22/9
f 59/23/10 60/24/10 37/25/10
f 27/26/11 60/24/11 59/23/11
f 27/26/12 14/27/12 60/24/12
f 61/28/13 51/29/13 47/30/13
f 12/19/14 11/18/14 61/28/14
f 27/26/15 3/5/15 62/31/15
f 3/5/16 22/7/16 62/31/16
f 22/7/17 45/32/17 62/31/17
f 63/33/18 34/10/18 2/9/18
f 15/34/19 24/35/19 23/36/19
f 28/37/20 54/38/20 24/35/20
f 74/39/21 30/40/21 64/41/21
f 64/41/22 30/40/22 31/42/22
f 64/41/23 31/42/23 4/43/23
f 33/44/24 65/45/24 25/46/24
f 25/46/25 65/45/25 63/33/25
f 23/36/26 33/44/26 26/47/26
f 33/44/27 4/43/27 31/42/27
f 33/44/28 31/42/28 65/45/28
f 65/45/29 30/40/29 34/10/29
f 23/36/30 66/48/30 33/44/30
f 24/35/31 54/38/31 66/48/31
f 66/48/32 32/49/32 4/43/32
f 34/10/33 30/40/33 3/5/33
f 30/40/34 74/39/34 52/6/34
f 67/50/35 68/51/35 36/52/35
f 35/53/36 38/54/36 68/51/36
f 68/51/37 5/55/37 37/25/37
f 9/1/38 69/56/38 10/2/38
f 1/57/39 69/56/39 9/1/39
f 69/56/40 38/58/40 35/59/40
f 69/56/41 35/59/41 39/60/41
f 5/55/42 38/61/42 20/13/42
f 20/13/43 38/61/43 21/62/43
f 21/62/44 38/61/44 1/63/44
f 75/64/45 40/4/45 71/65/45
f 70/66/46 36/52/46 14/27/46
f 73/67/47 22/7/47 49/8/47
f 47/30/48 50/68/48 46/69/48
f 74/39/49 29/70/49 49/8/49
f 29/70/50 74/39/50 64/41/50
f 74/39/51 49/8/51 52/6/51
f 28/37/52 61/28/52 54/38/52
f 46/69/53 50/68/53 53/71/53
f 13/72/54 43/73/54 72/74/54
f 13/72/55 72/74/55 75/64/55
f 32/49/56 48/75/56 29/70/56
f 75/64/57 72/74/57 41/76/57
f 51/77/58 41/76/58 42/78/58
f 11/79/59 41/76/59 51/77/59
f 40/4/60 11/79/60 6/80/60 55/3/60
f 7/81/61 8/82/61 9/1/61
f 8/82/62 1/57/62 9/1/62
f 3/5/63 27/26/63 16/11/63 34/10/63
f 57/14/64 56/16/64 17/83/64 19/12/64
f 55/3/65 6/80/65 7/81/65 9/1/65
f 1/63/66 8/84/66 57/14/66 21/62/66
f 57/14/67 20/13/67 21/62/67
f 8/84/68 7/17/68 56/16/68 57/14/68
f 15/34/69 58/21/69 12/19/69 28/37/69
f 18/15/70 17/83/70 56/16/70
f 5/55/71 2/9/71 16/11/71 59/23/71
f 58/21/72 15/34/72 18/85/72
f 58/21/73 18/85/73 7/22/73
f 6/20/74 12/19/74 58/21/74
f 45/32/75 43/73/75 14/27/75 62/31/75
f 16/11/76 27/26/76 59/23/76
f 60/24/77 14/27/77 36/52/77
f 37/25/78 60/24/78 36/52/78
f 5/55/79 59/23/79 37/25/79
f 28/37/80 12/19/80 61/28/80
f 61/28/81 11/18/81 51/29/81
f 47/30/82 51/29/82 42/86/82
f 53/71/83 61/28/83 47/30/83
f 14/27/84 27/26/84 62/31/84
f 25/46/85 19/12/85 17/83/85 26/47/85
f 19/12/86 25/46/86 63/33/86
f 26/47/87 17/83/87 18/85/87 23/36/87
f 19/12/88 63/33/88 2/9/88
f 20/13/89 19/12/89 2/9/89 5/55/89
f 15/34/90 28/37/90 24/35/90
f 18/85/91 15/34/91 23/36/91
f 29/70/92 64/41/92 4/43/92
f 26/47/93 33/44/93 25/46/93
f 63/33/94 65/45/94 34/10/94
f 65/45/95 31/42/95 30/40/95
f 33/44/96 66/48/96 4/43/96
f 23/36/97 24/35/97 66/48/97
f 66/48/98 54/38/98 32/49/98
f 4/43/99 32/49/99 29/70/99
f 3/5/100 30/40/100 52/6/100
f 67/50/101 35/53/101 68/51/101
f 68/51/102 38/54/102 5/87/102
f 36/52/103 68/51/103 37/25/103
f 10/2/104 69/56/104 39/60/104
f 10/2/105 39/60/105 40/4/105
f 1/57/106 38/58/106 69/56/106
f 39/60/107 35/59/107 67/88/107
f 70/66/108 43/73/108 13/72/108 71/65/108
f 43/73/109 70/66/109 14/27/109
f 36/52/110 70/66/110 71/65/110 67/88/110
f 13/72/111 75/64/111 71/65/111
f 71/65/112 40/4/112 39/60/112
f 71/65/113 39/60/113 67/88/113
f 47/30/114 42/78/114 72/74/114 44/89/114
f 50/68/115 47/30/115 44/89/115 73/67/115
f 41/76/116 72/74/116 42/78/116
f 72/74/117 43/73/117 44/89/117
f 48/75/118 73/67/118 49/8/118
f 50/68/119 73/67/119 48/75/119
f 73/67/120 44/89/120 43/73/120 45/32/120
f 48/75/121 32/49/121 53/71/121 50/68/121
f 73/67/122 45/32/122 22/7/122
f 49/8/123 29/70/123 48/75/123
f 53/71/124 47/30/124 46/69/124
f 54/38/125 61/28/125 53/71/125
f 54/38/126 53/71/126 32/49/126
f 11/79/127 40/4/127 41/76/127
f 40/4/128 75/64/128 41/76/128
