# Blender v2.93.3 OBJ File: 'assets.blend'
# www.blender.org
mtllib rock-6.mtl
o Stone-25_Cube.067
v 0.373255 -0.757621 -1.947464
v 0.674579 1.337726 -2.828668
v -1.043794 1.434691 -2.698621
v -3.181683 -0.967732 -0.585074
v -0.599188 -0.909832 0.021223
v -1.803194 -0.758664 0.428344
v -2.144375 -0.084100 0.764928
v -2.755212 0.826980 0.556964
v -2.957860 1.197124 -0.114600
v -0.645190 -0.967360 -1.928451
v -2.312290 1.199070 -1.491573
v -2.176813 1.953735 -0.835712
v 0.379250 -0.563281 0.145403
v 0.931763 1.582990 -0.158394
v 0.689723 1.592010 0.335459
v 0.545099 0.158761 0.487859
v -0.234705 -0.360963 0.675078
v -0.600960 1.646085 0.817496
v -1.772534 -0.189620 -2.773011
v -1.124801 -0.548610 -2.863454
v -0.472812 -0.743589 -2.754530
v -0.585058 0.991183 -3.114874
v 0.135040 1.133695 -3.164387
v 0.616257 -0.154890 -2.858012
v 0.338621 -0.589612 -2.706177
v 0.880245 1.242663 -2.484948
v 0.983585 1.434048 -1.532324
v -2.289397 -0.963784 -2.071443
v -1.752820 1.061319 -2.383106
v -3.798492 -0.758381 -0.820026
v -4.222135 -0.154372 -0.251048
v -4.101027 0.484725 -0.178913
v -4.054629 0.531015 -0.679390
v -3.642186 0.264512 -1.586798
v -3.238252 -0.526763 -1.923463
v -2.725260 -0.811500 -2.131719
v -3.055267 0.805477 -1.863724
v -3.884696 0.470795 0.151699
v -3.511036 -0.747273 0.086975
v -4.020595 -0.594813 -0.203400
v -1.727235 2.323527 -0.627016
v -0.335732 2.362338 -0.770190
v 0.592764 2.148859 -0.214978
v 0.173794 2.172738 0.408623
v -1.762438 2.256904 0.428878
v 0.698245 1.910036 -1.458880
v 0.190554 1.846018 0.645573
v -1.900458 2.014597 0.605129
v -3.784890 0.820732 -0.497849
v 0.911737 -0.147643 -1.943539
v 0.857131 0.108977 -2.501154
v 0.862137 -0.153696 -0.201238
v 0.035410 -0.113022 -3.160955
v -4.075226 -0.203980 -0.906644
v -3.917891 -0.213189 0.264865
v -2.308707 0.526006 -2.479325
v -0.564702 2.424396 0.131981
v -0.009719 1.757472 -2.348567
v -2.468627 1.941900 0.111679
vt 0.874970 0.653980
vt 0.875000 0.750000
vt 0.875000 0.750000
vt 0.875000 0.652430
vt 0.875000 0.503028
vt 0.875000 0.604423
vt 0.875000 0.735528
vt 0.466784 0.615488
vt 0.356731 0.510237
vt 0.459676 0.511515
vt 0.507200 0.712766
vt 0.395907 0.665679
vt 0.413518 0.782887
vt 0.615999 0.837568
vt 0.494399 0.932901
vt 0.281148 0.646307
vt 0.191382 0.733946
vt 0.472079 0.262303
vt 0.609230 0.311216
vt 0.475190 0.400778
vt 0.617447 0.403882
vt 0.375000 0.474485
vt 0.375000 0.354344
vt 0.242920 0.510707
vt 0.135453 0.507211
vt 0.232751 0.500252
vt 0.875000 0.500000
vt 0.874712 0.501936
vt 0.852454 0.500937
vt 0.591501 0.112936
vt 0.465652 0.141278
vt 0.470872 0.023868
vt 0.537939 0.219566
vt 0.421480 0.245598
vt 0.625000 0.250000
vt 0.602177 0.251557
vt 0.125249 0.605852
vt 0.125000 0.500000
vt 0.125689 0.503248
vt 0.125000 0.500000
vt 0.605700 0.995511
vt 0.466298 0.997576
vt 0.375000 1.000000
vt 0.375000 1.000000
vt 0.823326 0.586813
vt 0.722280 0.667823
vt 0.721848 0.565408
vt 0.649069 0.616098
vt 0.646928 0.529406
vt 0.635529 0.723101
vt 0.718274 0.505615
vt 0.866583 0.672396
vt 0.859232 0.563902
vt 0.875000 0.750000
vt 0.818624 0.706016
vt 0.874742 0.526092
vt 0.620251 0.761621
vt 0.624394 0.970517
vt 0.624938 0.267551
vt 0.625000 0.410191
vt 0.349956 0.499617
vt 0.464233 0.471604
vt 0.506771 0.488963
vt 0.624762 0.473238
vt 0.617184 0.489142
vt 0.617474 0.523960
vt 0.617393 0.618867
vt 0.616844 0.688151
vt 0.133158 0.616085
vt 0.375000 0.929734
vt 0.412127 0.283883
vt 0.375000 0.147855
vt 0.375000 0.023971
vt 0.609110 0.010793
vt 0.126536 0.727094
vt 0.125051 0.727838
vt 0.375000 0.250000
vt 0.578339 0.999320
vt 0.609110 1.000000
vt 0.471981 1.000000
vt 0.654066 0.750000
vt 0.625000 0.904091
vn -0.4223 0.7339 0.5320
vn -0.5846 0.7452 -0.3206
vn -0.7305 0.6829 -0.0046
vn -0.4897 0.7968 0.3540
vn 0.7495 -0.6618 0.0190
vn 0.7368 -0.4204 0.5296
vn 0.6728 -0.7369 0.0665
vn 0.4865 -0.4631 0.7408
vn 0.0377 -0.0639 0.9972
vn 0.3228 -0.9425 0.0866
vn 0.1052 -0.7898 0.6043
vn -0.2062 -0.0751 -0.9756
vn -0.0691 0.0028 -0.9976
vn 0.1640 -0.6244 -0.7637
vn 0.0203 -0.9661 -0.2575
vn -0.5662 0.6734 -0.4754
vn -0.4005 0.5479 -0.7344
vn -0.9697 0.0966 -0.2246
vn -0.7860 -0.1456 -0.6008
vn -0.5720 0.2154 -0.7915
vn -0.5655 -0.7012 -0.4343
vn -0.1717 -0.7460 -0.6435
vn -0.2736 0.0359 0.9612
vn -0.5239 -0.6004 0.6042
vn -0.3685 0.1031 -0.9239
vn -0.0358 0.9963 -0.0776
vn 0.3080 0.9388 -0.1541
vn 0.2701 0.9519 0.1450
vn -0.1342 0.8939 -0.4278
vn 0.1961 0.9285 -0.3153
vn -0.7789 0.5824 -0.2327
vn -0.8012 0.3879 0.4556
vn -0.5311 0.6750 0.5121
vn -0.4230 0.9051 0.0430
vn -0.3597 0.9146 -0.1848
vn 0.0309 0.5786 0.8150
vn -0.1355 0.0909 0.9866
vn -0.0397 0.7904 -0.6114
vn 0.7561 -0.6202 -0.2088
vn -0.5162 0.7846 0.3434
vn 0.8660 -0.4166 -0.2765
vn 0.8450 -0.0169 -0.5345
vn 0.9943 -0.0183 -0.1048
vn 0.9983 -0.0473 0.0347
vn 0.8983 -0.0456 0.4370
vn 0.2369 -0.0327 0.9710
vn 0.5401 0.0349 0.8408
vn 0.0097 -0.9998 0.0180
vn -0.0243 -0.4561 0.8896
vn 0.7316 0.5395 0.4169
vn 0.2021 -0.9791 0.0241
vn 0.2142 -0.8037 0.5552
vn 0.8573 0.5142 -0.0246
vn 0.4974 -0.0205 -0.8673
vn 0.6260 0.4786 0.6157
vn -0.2033 -0.1220 -0.9715
vn 0.1936 -0.9562 -0.2196
vn 0.3693 -0.5077 -0.7783
vn -0.0175 -0.5317 -0.8468
vn -0.6038 0.6077 -0.5159
vn -0.1331 -0.7838 -0.6066
vn -0.8769 -0.4458 -0.1796
vn -0.4194 0.7759 -0.4713
vn -0.3071 0.8924 -0.3306
vn -0.8793 0.1630 -0.4475
vn -0.9784 0.1936 -0.0728
vn -0.7070 0.5238 -0.4752
vn -0.7540 -0.4510 -0.4775
vn -0.3554 -0.9264 0.1240
vn -0.5636 0.0627 -0.8237
vn -0.4587 -0.1919 -0.8676
vn -0.0478 -0.9634 0.2638
vn -0.2751 -0.9450 -0.1767
vn -0.1904 -0.4819 0.8553
vn -0.3796 0.1689 0.9096
vn -0.8418 0.1145 0.5275
vn 0.7891 0.5694 -0.2304
vn -0.8290 -0.3305 0.4512
vn -0.3318 -0.3814 -0.8628
vn -0.4983 -0.0177 -0.8668
vn -0.1241 0.9906 0.0584
vn 0.0408 0.7909 0.6106
vn 0.2291 0.9734 -0.0088
vn -0.0638 0.9274 -0.3686
vn 0.2798 0.8841 -0.3742
vn 0.0325 0.5827 0.8120
vn -0.6245 0.4228 0.6567
vn -0.5785 0.7982 -0.1682
vn -0.7999 0.4690 -0.3744
vn -0.1890 0.0964 0.9772
vn -0.1690 0.5759 -0.7999
vn -0.4072 0.3647 -0.8374
vn 0.0702 0.7984 -0.5980
usemtl Stone
s off
f 9/1/1 38/2/1 8/3/1
f 49/4/2 37/5/2 33/6/2
f 49/4/3 33/6/3 32/7/3
f 49/4/4 32/7/4 38/2/4
f 52/8/5 1/9/5 50/10/5
f 52/8/6 16/11/6 13/12/6
f 1/9/7 52/8/7 13/12/7
f 13/12/8 16/11/8 17/13/8
f 17/13/9 18/14/9 7/15/9
f 1/9/10 13/12/10 5/16/10
f 5/16/11 17/13/11 6/17/11
f 19/18/12 22/19/12 53/20/12
f 22/19/13 23/21/13 53/20/13
f 53/20/14 25/22/14 21/23/14
f 10/24/15 28/25/15 21/26/15
f 56/27/16 29/28/16 3/29/16
f 29/28/17 56/27/17 37/5/17
f 33/30/18 54/31/18 31/32/18
f 54/31/19 34/33/19 35/34/19
f 37/35/20 56/36/20 34/33/20
f 30/37/21 35/38/21 36/39/21
f 28/25/22 36/39/22 20/40/22
f 7/15/23 8/41/23 55/42/23
f 55/42/24 40/43/24 39/44/24
f 22/19/25 19/18/25 56/36/25
f 41/45/26 57/46/26 42/47/26
f 42/47/27 43/48/27 46/49/27
f 57/46/28 44/50/28 43/48/28
f 58/51/29 3/29/29 41/45/29
f 46/49/30 58/51/30 42/47/30
f 9/1/31 59/52/31 12/53/31
f 8/3/32 59/52/32 9/1/32
f 48/54/33 45/55/33 59/52/33
f 59/52/34 45/55/34 41/45/34
f 37/5/35 49/4/35 9/1/35 11/56/35
f 18/14/36 47/57/36 48/58/36
f 18/14/37 48/58/37 7/15/37
f 3/59/38 58/60/38 23/21/38
f 25/61/39 24/62/39 50/10/39 1/9/39
f 9/1/40 49/4/40 38/2/40
f 51/63/41 50/10/41 24/62/41
f 2/64/42 26/65/42 51/63/42 24/62/42
f 26/65/43 27/66/43 50/10/43 51/63/43
f 52/8/44 50/10/44 27/66/44 14/67/44
f 16/11/45 52/8/45 14/67/45 15/68/45
f 18/14/46 17/13/46 16/11/46 47/57/46
f 16/11/47 15/68/47 47/57/47
f 5/16/48 4/69/48 28/25/48 10/24/48
f 17/13/49 7/15/49 6/70/49
f 43/48/50 44/50/50 15/68/50 14/67/50
f 10/24/51 1/9/51 5/16/51
f 5/16/52 13/12/52 17/13/52
f 46/49/53 43/48/53 14/67/53 27/66/53
f 24/62/54 53/20/54 23/21/54 2/64/54
f 47/57/55 15/68/55 44/50/55
f 19/18/56 53/20/56 20/71/56
f 21/26/57 25/61/57 1/9/57 10/24/57
f 53/20/58 24/62/58 25/61/58
f 20/71/59 53/20/59 21/23/59
f 12/53/60 3/29/60 29/28/60 11/56/60
f 21/26/61 28/25/61 20/40/61
f 54/31/62 30/72/62 40/73/62 31/32/62
f 3/29/63 12/53/63 41/45/63
f 11/56/64 29/28/64 37/5/64
f 33/30/65 34/33/65 54/31/65
f 32/74/66 33/30/66 31/32/66
f 33/30/67 37/35/67 34/33/67
f 30/72/68 54/31/68 35/34/68
f 30/37/69 4/69/69 39/75/69 40/76/69
f 34/33/70 56/36/70 35/34/70
f 35/34/71 19/18/71 36/77/71
f 4/69/72 5/16/72 6/17/72 39/75/72
f 36/39/73 28/25/73 4/69/73 30/37/73
f 39/44/74 6/70/74 7/15/74 55/42/74
f 55/42/75 8/41/75 38/78/75
f 32/79/76 31/80/76 55/42/76 38/78/76
f 2/64/77 46/49/77 27/66/77 26/65/77
f 55/42/78 31/80/78 40/43/78
f 20/71/79 36/77/79 19/18/79
f 19/18/80 35/34/80 56/36/80
f 41/45/81 45/55/81 57/46/81
f 57/46/82 45/55/82 44/81/82
f 42/47/83 57/46/83 43/48/83
f 42/47/84 58/51/84 41/45/84
f 46/49/85 2/64/85 58/51/85
f 45/82/86 48/58/86 47/57/86 44/50/86
f 8/3/87 48/54/87 59/52/87
f 12/53/88 59/52/88 41/45/88
f 11/56/89 9/1/89 12/53/89
f 7/15/90 48/58/90 8/41/90
f 22/19/91 3/59/91 23/21/91
f 22/19/92 56/36/92 3/59/92
f 23/21/93 58/60/93 2/64/93
