# Blender v2.93.3 OBJ File: 'assets.blend'
# www.blender.org
mtllib rock-4.mtl
o Stone-23_Cube.065
v -1.967408 1.064408 0.701231
v -2.491461 -0.674583 -1.430384
v 0.783423 -0.552108 0.391500
v 0.724424 -0.131180 0.775427
v 0.490181 2.862987 -0.844630
v -0.676354 3.335325 -0.849741
v 0.436651 3.383465 0.560114
v -2.545506 -0.833093 -0.897655
v -2.607940 -0.879003 0.231130
v -2.576120 -0.462124 1.170415
v -1.580537 0.007109 1.262087
v -1.390731 1.094815 0.968592
v -2.387706 0.669976 0.253075
v -1.494815 2.800791 -0.110899
v -2.346018 0.713438 -0.936593
v -2.148828 -0.411698 -1.797070
v -1.817221 -0.000856 -1.847720
v -0.630697 0.109931 -1.890858
v 0.722516 -0.126521 -1.460922
v 0.832934 -0.692604 -0.138600
v 0.688255 -0.569078 -1.221356
v 1.055818 -0.187488 -0.952692
v 0.793561 3.030041 -0.140981
v 0.074308 -0.634842 0.829538
v -0.844416 3.647101 0.105692
v -0.990396 3.297942 -0.688957
v 0.190518 3.633884 -0.685201
v 0.659699 3.358006 -0.443431
v 0.577188 3.642106 0.079535
v -0.476707 3.426175 0.717650
v -0.991034 3.148085 0.567661
v -2.966192 -0.639848 -0.114016
v -2.850944 -0.658700 0.602319
v -2.738564 -0.218986 0.830904
v -2.769919 -0.573005 -1.229443
v -2.226480 0.406184 -1.522416
v -2.557786 -0.686202 0.961195
v -2.577669 -0.161867 -1.575799
v 0.138473 -0.202789 -1.802041
v 1.181413 -0.175374 -0.345441
v 1.060612 -0.169292 0.288417
v 0.203989 -0.160945 1.092264
v -0.450358 -0.349943 1.178705
v -0.506941 0.182252 1.217687
v 0.044384 -0.730169 -1.404546
v -0.146440 -0.888625 0.045673
v 0.734744 2.992515 0.256398
v 0.319298 3.895070 -0.175618
v -0.252624 3.905480 -0.383729
v -0.243853 4.003994 0.101227
v 0.100371 3.902413 0.317089
v -1.345770 2.924366 0.247631
v -0.021183 3.104839 0.803633
v -0.003441 3.085912 -1.022352
v -2.870539 -0.405897 -0.911318
v -2.515156 -0.235815 1.157953
vt 0.508702 0.271882
vt 0.505577 0.237403
vt 0.559913 0.245364
vt 0.436867 0.261975
vt 0.375000 0.250000
vt 0.414676 0.241058
vt 0.488624 0.192836
vt 0.497715 0.358477
vt 0.453359 0.422918
vt 0.375000 0.360797
vt 0.375000 0.504895
vt 0.623033 0.500000
vt 0.455412 0.562500
vt 0.461734 0.500000
vt 0.633549 0.625000
vt 0.454685 0.687500
vt 0.458074 0.625000
vt 0.499147 0.958808
vt 0.443370 0.998154
vt 0.437012 0.886659
vt 0.260933 0.532140
vt 0.128357 0.562500
vt 0.125000 0.500000
vt 0.375000 0.718063
vt 0.348447 0.638785
vt 0.357356 0.522539
vt 0.280475 0.750000
vt 0.630745 0.687500
vt 0.644648 0.562500
vt 0.657285 0.650300
vt 0.784546 0.640890
vt 0.725642 0.687500
vt 0.698717 0.600900
vt 0.688252 0.500000
vt 0.777865 0.562500
vt 0.849314 0.500000
vt 0.875000 0.562500
vt 0.775913 0.750000
vt 0.625057 0.773121
vt 0.624356 0.124815
vt 0.624083 0.199545
vt 0.599950 0.188097
vt 0.624965 0.062500
vt 0.625000 0.000000
vt 0.625000 0.094496
vt 0.457210 0.812176
vt 0.623643 0.838142
vt 0.505808 0.871814
vt 0.623512 0.412037
vt 0.624580 0.288145
vt 0.625000 0.436748
vt 0.418078 0.119822
vt 0.501564 0.996673
vt 0.532658 0.999896
vt 0.588936 0.941910
vt 0.625000 1.000000
vt 0.390655 1.000000
vt 0.625000 0.000000
vt 0.618596 0.062009
vt 0.510785 0.000000
vt 0.127987 0.663952
vt 0.125000 0.718305
vt 0.125000 0.595437
vt 0.458273 0.750000
vt 0.375000 0.844525
vt 0.375000 1.000000
vt 0.125000 0.750000
vt 0.242176 0.660966
vt 0.875000 0.655504
vt 0.875000 0.750000
vt 0.657520 0.750000
vt 0.625000 1.000000
vt 0.624629 0.913712
vt 0.125000 0.500000
vt 0.390655 0.023757
vn -0.3780 0.3155 -0.8704
vn -0.3650 0.1821 -0.9130
vn -0.6233 -0.2301 -0.7474
vn -0.9240 0.1289 -0.3599
vn 0.0189 -0.2299 -0.9730
vn -0.0117 -0.8075 -0.5898
vn 0.3542 -0.6024 -0.7153
vn 0.8330 0.1731 -0.5255
vn 0.9769 0.1064 0.1852
vn 0.0071 -0.2061 0.9785
vn -0.0181 -0.9578 -0.2868
vn 0.8356 -0.5164 0.1873
vn 0.2789 -0.9492 -0.1456
vn 0.2746 -0.9228 0.2702
vn 0.9825 0.1028 0.1551
vn 0.8144 0.1707 -0.5547
vn 0.9375 0.3458 -0.0399
vn 0.9470 0.2749 0.1661
vn 0.2307 0.9690 0.0881
vn 0.1922 0.8527 -0.4857
vn -0.3752 0.7376 -0.5613
vn -0.1776 0.7506 0.6365
vn 0.5938 0.6232 0.5090
vn 0.7796 0.5936 -0.1995
vn -0.8255 0.4638 -0.3215
vn -0.7949 0.4554 -0.4010
vn -0.7174 0.5749 0.3933
vn -0.8020 0.5824 0.1327
vn 0.2199 0.1009 0.9703
vn -0.0213 0.5294 -0.8481
vn 0.4522 0.3458 -0.8222
vn -0.9562 -0.2293 -0.1820
vn -0.7947 0.2447 0.5555
vn -0.3953 0.4482 0.8018
vn -0.9008 0.0045 0.4342
vn -0.8034 0.5133 0.3018
vn -0.6033 -0.7938 0.0762
vn -0.5113 -0.8571 -0.0631
vn -0.5818 -0.3474 -0.7354
vn -0.8814 0.4076 -0.2388
vn -0.7541 0.5056 -0.4191
vn -0.0267 -0.1010 -0.9945
vn 0.4719 0.2130 -0.8555
vn 0.4946 -0.4431 -0.7477
vn 0.0537 -0.6071 -0.7928
vn 0.7625 -0.3526 -0.5424
vn 0.9704 0.1304 -0.2033
vn 0.7427 -0.3915 0.5433
vn 0.7770 -0.6077 -0.1643
vn 0.4758 -0.5396 0.6946
vn 0.1468 -0.0567 0.9875
vn 0.0522 -0.0674 0.9964
vn 0.0427 -0.7174 0.6954
vn -0.0026 0.2609 0.9654
vn 0.0252 -0.9601 0.2787
vn 0.2581 -0.5215 0.8133
vn 0.1805 -0.9800 -0.0833
vn 0.2337 -0.9424 0.2393
vn 0.0077 -0.9969 -0.0782
vn 0.8011 0.0955 0.5908
vn 0.9533 0.1446 -0.2651
vn -0.5373 0.8142 -0.2199
vn 0.5897 0.3769 -0.7143
vn 0.8488 0.3204 0.4206
vn 0.0905 0.9756 -0.1998
vn 0.6150 0.6278 -0.4772
vn -0.0908 0.6698 -0.7369
vn -0.4696 0.7018 0.5356
vn -0.7862 0.3814 0.4863
vn 0.1695 0.5059 0.8458
vn 0.5531 0.7997 0.2338
vn -0.8839 0.4091 0.2265
vn -0.4069 0.2507 0.8784
vn -0.7690 0.6251 -0.1334
vn -0.1054 0.1525 0.9827
vn 0.4704 0.1007 0.8767
vn -0.0873 0.3049 -0.9484
vn 0.1712 0.4738 0.8639
vn 0.4189 0.2265 -0.8793
vn 0.2049 0.2342 -0.9504
vn -0.3686 0.3890 -0.8443
vn -0.6036 -0.7725 -0.1973
vn -0.9731 0.1651 0.1609
vn -0.9185 0.3927 0.0464
vn -0.9156 0.4021 0.0081
vn -0.1334 0.0903 0.9869
vn -0.1791 0.2853 0.9416
vn -0.7127 0.4799 0.5116
vn -0.6752 -0.5322 0.5108
vn -0.9207 0.3896 0.0219
vn -0.8989 0.4183 -0.1307
vn -0.4002 -0.8789 0.2596
usemtl Stone
s off
f 17/1/1 38/2/1 36/3/1
f 16/4/2 38/2/2 17/1/2
f 2/5/3 35/6/3 16/4/3
f 35/6/4 55/7/4 38/2/4
f 16/4/5 18/8/5 39/9/5
f 2/5/6 16/4/6 45/10/6
f 45/10/7 39/9/7 21/11/7
f 5/12/8 22/13/8 19/14/8
f 23/15/9 41/16/9 40/17/9
f 11/18/10 10/19/10 43/20/10
f 45/21/11 8/22/11 2/23/11
f 41/16/12 3/24/12 20/25/12 40/17/12
f 21/26/13 20/25/13 45/21/13
f 20/25/14 3/24/14 24/27/14
f 41/16/15 23/15/15 47/28/15
f 22/13/16 5/12/16 28/29/16
f 23/15/17 28/29/17 29/30/17
f 23/15/18 29/30/18 47/28/18
f 50/31/19 51/32/19 48/33/19
f 27/34/20 49/35/20 48/33/20
f 6/36/21 26/37/21 49/35/21
f 50/31/22 30/38/22 51/32/22
f 51/32/23 7/39/23 29/30/23
f 48/33/24 29/30/24 28/29/24
f 14/40/25 26/41/25 15/42/25
f 15/42/26 26/41/26 36/3/26
f 52/43/27 31/44/27 25/45/27
f 52/43/28 25/45/28 14/40/28
f 42/46/29 53/47/29 44/48/29
f 54/49/30 6/50/30 27/51/30
f 54/49/31 27/51/31 5/12/31
f 55/7/32 35/6/32 32/52/32
f 56/53/33 34/54/33 10/19/33
f 12/55/34 1/56/34 56/53/34
f 10/19/35 34/54/35 33/57/35
f 1/58/36 13/59/36 34/60/36
f 9/61/37 33/62/37 32/63/37
f 9/61/38 32/63/38 8/22/38
f 16/4/39 35/6/39 38/2/39
f 15/42/40 38/2/40 55/7/40
f 36/3/41 38/2/41 15/42/41
f 16/4/42 17/1/42 18/8/42
f 39/9/43 5/12/43 19/14/43
f 21/11/44 39/9/44 19/14/44
f 45/10/45 16/4/45 39/9/45
f 21/26/46 19/14/46 22/13/46
f 22/13/47 23/15/47 40/17/47
f 41/16/48 4/64/48 3/24/48
f 20/25/49 21/26/49 22/13/49 40/17/49
f 24/65/50 3/24/50 4/64/50 42/46/50
f 42/46/51 44/48/51 43/20/51
f 44/48/52 11/18/52 43/20/52
f 37/66/53 24/65/53 43/20/53 10/19/53
f 44/48/54 12/55/54 11/18/54
f 24/27/55 37/67/55 9/61/55 46/68/55
f 42/46/56 43/20/56 24/65/56
f 45/21/57 20/25/57 46/68/57
f 46/68/58 20/25/58 24/27/58
f 46/68/59 9/61/59 8/22/59 45/21/59
f 47/28/60 7/39/60 4/64/60 41/16/60
f 23/15/61 22/13/61 28/29/61
f 25/69/62 50/31/62 49/35/62 26/37/62
f 28/29/63 5/12/63 27/51/63
f 47/28/64 29/30/64 7/39/64
f 48/33/65 49/35/65 50/31/65
f 27/34/66 48/33/66 28/29/66
f 27/34/67 6/36/67 49/35/67
f 30/38/68 50/31/68 25/69/68 31/70/68
f 31/44/69 52/43/69 13/59/69 1/58/69
f 51/32/70 30/38/70 7/71/70
f 48/33/71 51/32/71 29/30/71
f 13/59/72 52/43/72 14/40/72
f 31/72/73 1/56/73 12/55/73 30/73/73
f 14/40/74 25/45/74 26/41/74
f 30/73/75 12/55/75 44/48/75 53/47/75
f 53/47/76 42/46/76 4/64/76 7/39/76
f 6/50/77 54/49/77 18/8/77 17/1/77
f 53/47/78 7/39/78 30/73/78
f 5/12/79 39/9/79 54/49/79
f 39/9/80 18/8/80 54/49/80
f 26/41/81 6/50/81 17/1/81 36/3/81
f 35/74/82 2/23/82 8/22/82 32/63/82
f 33/75/83 34/60/83 32/52/83
f 34/60/84 13/59/84 32/52/84
f 13/59/85 55/7/85 32/52/85
f 11/18/86 56/53/86 10/19/86
f 11/18/87 12/55/87 56/53/87
f 56/53/88 1/56/88 34/54/88
f 37/66/89 10/19/89 33/57/89
f 13/59/90 14/40/90 55/7/90
f 14/40/91 15/42/91 55/7/91
f 9/61/92 37/67/92 33/62/92
