# Blender v2.93.1 OBJ File: 'SandHills (1).blend'
# www.blender.org
mtllib hill-1.mtl
o Cone.002
v -2.862840 1.660496 -12.091751
v 0.388326 1.619920 -11.368832
v 4.652236 2.034164 -12.271797
v 9.365911 2.464976 -14.056730
v 12.516128 2.486664 -13.886615
v 13.575304 2.485998 -11.372910
v 13.236883 2.447251 -7.336658
v 12.946235 2.386007 -3.988976
v 13.216494 2.404124 -1.886095
v 13.623711 2.448711 0.503125
v 14.417765 2.487296 4.532981
v 14.791434 2.489061 9.458160
v 13.605865 2.486458 12.542142
v 10.441202 2.479280 12.425500
v 6.184531 2.405462 9.734602
v 2.347173 2.070494 7.941329
v -0.696859 2.073770 8.858981
v -2.980392 2.225447 10.614551
v -4.714349 2.312911 11.816104
v -6.062675 2.376368 12.394575
v -6.836295 2.424099 11.922523
v -7.063807 2.358151 10.025002
v -7.150611 2.137160 7.773359
v -7.516958 1.980398 6.248125
v -7.575379 1.758684 4.327055
v -7.549915 1.413384 0.955467
v -9.066211 1.453775 -3.452785
v -7.783092 1.412244 -7.161535
v -7.138020 1.560171 -9.601145
v -6.966190 1.722927 -11.213163
v -6.313680 1.794465 -12.208917
v -5.046654 1.773197 -12.538915
v -1.393451 5.033026 -2.760680
v 6.720045 3.880337 5.518329
v -4.818742 2.879055 -1.187315
v 7.195352 3.130774 -3.312149
v -2.802816 3.963066 1.333365
v 1.586077 3.148783 -7.103336
v 0.820150 3.100073 2.815786
v -4.388924 3.136105 -5.563447
v 7.912520 3.451895 1.580776
v -3.395441 3.592963 0.355045
v 6.075307 3.594000 -6.810022
v -2.257437 3.867782 1.637193
v -2.756999 3.351883 -6.385131
v 5.470208 3.639571 6.049541
v -5.772722 2.338394 -3.118475
v 8.500474 2.964891 -1.990382
v -2.957650 3.848170 1.048586
v 3.848525 3.493042 -7.985832
v -1.847321 3.216051 -6.426163
v -0.817298 3.373080 2.008390
v -3.873610 3.310227 -5.975886
v 6.973613 3.847601 3.580086
v -3.739151 3.419311 -0.085417
v 6.067361 3.409993 -4.896792
v -2.586555 3.967303 1.513027
v -0.417974 3.056577 -6.510376
v 3.147165 3.211090 4.698365
v -5.270610 2.731255 -4.739990
v 8.716184 3.055874 -0.421784
v -3.140889 3.702003 0.697388
v 5.469759 3.675422 -7.996537
v -1.792338 3.698253 1.761468
v -3.376970 3.381150 -6.240734
v 11.876657 3.026179 10.846359
v -6.846310 2.165297 -0.140853
v 11.529625 2.620827 -3.810565
v -4.696292 3.534165 5.968183
v 3.665087 2.342842 -10.823241
v 1.597378 2.688520 5.370772
v -2.698272 1.823298 -11.131106
v 12.579184 2.895713 3.808201
v -6.745275 2.125072 -8.273631
v -5.387313 2.933648 3.070098
v 11.356143 3.051306 -9.907758
v -3.457770 3.386540 6.132867
v -4.497718 2.080908 -11.172532
v 8.599750 3.208733 10.021701
v -8.315406 1.753031 -3.484108
v 11.690943 2.671501 -1.913129
v -4.906449 3.344829 5.028287
v 7.099911 3.037941 -11.670033
v -0.800829 2.869472 5.261357
v -6.016209 2.247444 -9.542881
v 12.966554 2.921830 8.162260
v -5.685289 2.690078 2.008769
v 11.683208 2.730241 -6.745936
v -4.230080 3.528260 6.279437
v 0.187590 1.766912 -10.580732
v 4.652314 2.937735 7.104876
v -7.843713 1.873477 -6.420191
v 11.972363 2.764015 0.213905
v -5.079774 3.094429 3.910393
v 9.776814 3.255836 -11.576585
v -2.434455 3.181810 5.766214
v -5.428094 2.238499 -10.552341
vt 0.287007 0.487084
vt 0.283536 0.464846
vt 0.357255 0.453208
vt 0.365575 0.468971
vt 0.418888 0.408924
vt 0.442335 0.430988
vt 0.453774 0.352601
vt 0.505521 0.378655
vt 0.482994 0.308043
vt 0.546689 0.323910
vt 0.523332 0.277126
vt 0.564916 0.281253
vt 0.536904 0.260340
vt 0.567774 0.261452
vt 0.539440 0.264170
vt 0.567819 0.265560
vt 0.543299 0.250004
vt 0.575456 0.250004
vt 0.536265 0.235985
vt 0.567819 0.234440
vt 0.534615 0.239743
vt 0.567774 0.238548
vt 0.530270 0.222186
vt 0.564916 0.218747
vt 0.521339 0.182405
vt 0.546689 0.176089
vt 0.457329 0.145610
vt 0.505521 0.121345
vt 0.400807 0.108089
vt 0.442335 0.069012
vt 0.341401 0.076829
vt 0.365575 0.031029
vt 0.274724 0.091608
vt 0.287007 0.012916
vt 0.228703 0.099669
vt 0.216362 0.012551
vt 0.195197 0.114641
vt 0.159992 0.027687
vt 0.171274 0.132178
vt 0.116663 0.050447
vt 0.150620 0.150620
vt 0.080294 0.080294
vt 0.127292 0.168009
vt 0.050447 0.116663
vt 0.109458 0.191786
vt 0.028269 0.158156
vt 0.098958 0.219956
vt 0.014612 0.203178
vt 0.090165 0.250000
vt 0.010000 0.250000
vt 0.074625 0.284884
vt 0.014612 0.296822
vt 0.042464 0.335964
vt 0.028269 0.341844
vt 0.078930 0.364305
vt 0.050447 0.383337
vt 0.109759 0.390241
vt 0.080294 0.419706
vt 0.141765 0.411986
vt 0.116663 0.449553
vt 0.175835 0.433181
vt 0.159992 0.472313
vt 0.787294 0.490000
vt 0.870555 0.485388
vt 0.964112 0.471731
vt 1.063705 0.449553
vt 1.163416 0.419706
vt 1.255902 0.383337
vt 1.332790 0.341844
vt 1.385225 0.296822
vt 1.404515 0.250000
vt 1.385225 0.203178
vt 1.332790 0.158156
vt 1.255901 0.116663
vt 1.163416 0.080294
vt 1.063705 0.050447
vt 0.964112 0.028269
vt 0.870555 0.014612
vt 0.787294 0.010000
vt 0.716877 0.014612
vt 0.660249 0.028269
vt 0.616663 0.050447
vt 0.580294 0.080294
vt 0.550447 0.116663
vt 0.528269 0.158156
vt 0.514612 0.203178
vt 0.510000 0.250000
vt 0.514612 0.296822
vt 0.528269 0.341844
vt 0.550447 0.383337
vt 0.580294 0.419706
vt 0.616663 0.449553
vt 0.660249 0.471731
vt 0.716877 0.485388
vt 0.220047 0.461439
vt 0.216362 0.487449
vt 0.163760 0.232846
vt 0.170705 0.217155
vt 0.250000 0.250000
vt 0.191966 0.336854
vt 0.169489 0.330511
vt 0.410696 0.290032
vt 0.379875 0.315392
vt 0.455638 0.242589
vt 0.485441 0.238473
vt 0.265281 0.152101
vt 0.318262 0.120670
vt 0.183327 0.205451
vt 0.143096 0.321431
vt 0.350577 0.344644
vt 0.491052 0.250003
vt 0.364562 0.142196
vt 0.199774 0.199774
vt 0.090977 0.315869
vt 0.266558 0.356077
vt 0.235876 0.349700
vt 0.307523 0.358985
vt 0.458138 0.260190
vt 0.418413 0.165204
vt 0.209563 0.189482
vt 0.133220 0.273229
vt 0.212584 0.342414
vt 0.426841 0.256373
vt 0.420805 0.207449
vt 0.220376 0.176832
vt 0.154828 0.250000
vt 0.417337 0.266607
vt 0.425473 0.232586
vt 0.237784 0.163764
vn 0.0515 0.9835 -0.1732
vn -0.1623 0.9465 -0.2790
vn -0.2552 0.8723 -0.4170
vn -0.0256 0.9536 -0.2998
vn 0.2021 0.9761 -0.0796
vn 0.2443 0.9685 0.0488
vn 0.1815 0.9826 0.0395
vn 0.1664 0.9854 -0.0349
vn 0.1857 0.9809 -0.0581
vn 0.2199 0.9735 -0.0622
vn 0.2354 0.9717 -0.0222
vn 0.2112 0.9752 0.0661
vn -0.0196 0.9501 0.3112
vn -0.3305 0.8392 0.4318
vn -0.2354 0.9221 0.3073
vn 0.0648 0.9746 0.2144
vn 0.2332 0.9497 0.2092
vn 0.2265 0.9485 0.2216
vn 0.1699 0.9593 0.2254
vn -0.0612 0.9845 0.1643
vn -0.4577 0.8891 -0.0094
vn -0.5423 0.8368 -0.0752
vn -0.4180 0.9084 -0.0029
vn -0.5044 0.8603 -0.0739
vn -0.5588 0.8291 -0.0157
vn -0.4993 0.8531 0.1514
vn -0.6502 0.7421 -0.1629
vn -0.7026 0.6759 -0.2224
vn -0.5179 0.8519 -0.0776
vn -0.2632 0.9555 -0.1330
vn 0.0354 -0.9993 0.0128
vn -0.0211 0.9725 -0.2318
vn 0.1182 0.9656 -0.2315
vn -0.4889 0.8680 0.0871
vn -0.4234 0.8931 -0.1520
vn -0.1060 0.9199 -0.3775
vn 0.2144 0.9710 -0.1060
vn -0.0049 0.9442 0.3292
vn -0.6150 0.7885 -0.0073
vn -0.4777 0.8747 -0.0814
vn -0.3334 0.7597 -0.5584
vn 0.2102 0.9739 -0.0854
vn -0.3916 0.8101 0.4363
vn -0.5993 0.8005 0.0029
vn -0.5261 0.8493 0.0429
vn 0.1117 0.8848 -0.4524
vn -0.1857 0.8485 -0.4955
vn 0.2102 0.9739 -0.0853
vn -0.4047 0.8006 0.4419
vn -0.1777 0.9653 0.1911
vn -0.5252 0.8507 0.0213
vn -0.0511 0.9132 -0.4044
vn 0.0728 0.8900 -0.4502
vn 0.2173 0.9760 0.0173
vn -0.0914 0.9701 0.2247
vn 0.1775 0.9421 0.2845
vn -0.5061 0.8593 0.0746
vn 0.2372 0.9669 0.0940
vn 0.1392 0.9903 0.0015
vn 0.2569 0.9205 0.2944
vn -0.5146 0.8550 0.0645
vn -0.2792 0.9193 -0.2773
vn 0.1772 0.9839 -0.0229
vn 0.2094 0.9733 -0.0943
vn 0.2345 0.9265 0.2942
vn -0.3616 0.9315 -0.0407
vn -0.3276 0.9417 -0.0764
vn -0.0867 0.9744 -0.2076
vn 0.1375 0.9866 -0.0882
vn 0.0781 0.9864 0.1448
vn -0.4729 0.8728 -0.1208
vn -0.3388 0.9406 -0.0200
vn -0.2692 0.8985 -0.3468
vn 0.0971 0.9933 -0.0624
vn -0.2191 0.9478 0.2316
vn -0.4303 0.8977 -0.0948
vn -0.2883 0.9564 0.0461
vn 0.1370 0.9434 -0.3021
vn -0.1612 0.9377 -0.3078
vn 0.1055 0.9943 -0.0125
vn -0.3265 0.8839 0.3348
vn -0.0501 0.9961 0.0731
vn -0.2793 0.9591 -0.0450
vn -0.0083 0.9674 -0.2532
vn 0.0794 0.9527 -0.2934
vn 0.1317 0.9897 0.0567
vn -0.0229 0.9874 0.1568
vn 0.2143 0.9633 0.1615
vn -0.3731 0.9266 -0.0464
vn 0.1506 0.9846 0.0885
vn 0.1462 0.9892 0.0132
vn 0.2662 0.9490 0.1691
vn -0.4127 0.9077 -0.0758
vn -0.2285 0.9623 -0.1477
vn 0.1103 0.9938 0.0151
vn 0.1692 0.9843 -0.0507
vn 0.2490 0.9559 0.1558
usemtl sand
s off
f 1/1/1 72/2/1 90/3/1 2/4/1
f 2/4/2 90/3/2 70/5/2 3/6/2
f 3/6/3 70/5/3 83/7/3 4/8/3
f 4/8/4 83/7/4 95/9/4 5/10/4
f 5/10/5 95/9/5 76/11/5 6/12/5
f 6/12/6 76/11/6 88/13/6 7/14/6
f 7/14/7 88/13/7 68/15/7 8/16/7
f 8/16/8 68/15/8 81/17/8 9/18/8
f 9/18/9 81/17/9 93/19/9 10/20/9
f 10/20/10 93/19/10 73/21/10 11/22/10
f 11/22/11 73/21/11 86/23/11 12/24/11
f 12/24/12 86/23/12 66/25/12 13/26/12
f 13/26/13 66/25/13 79/27/13 14/28/13
f 14/28/14 79/27/14 91/29/14 15/30/14
f 15/30/15 91/29/15 71/31/15 16/32/15
f 16/32/16 71/31/16 84/33/16 17/34/16
f 17/34/17 84/33/17 96/35/17 18/36/17
f 18/36/18 96/35/18 77/37/18 19/38/18
f 19/38/19 77/37/19 89/39/19 20/40/19
f 20/40/20 89/39/20 69/41/20 21/42/20
f 21/42/21 69/41/21 82/43/21 22/44/21
f 22/44/22 82/43/22 94/45/22 23/46/22
f 23/46/23 94/45/23 75/47/23 24/48/23
f 24/48/24 75/47/24 87/49/24 25/50/24
f 25/50/25 87/49/25 67/51/25 26/52/25
f 26/52/26 67/51/26 80/53/26 27/54/26
f 27/54/27 80/53/27 92/55/27 28/56/27
f 28/56/28 92/55/28 74/57/28 29/58/28
f 29/58/29 74/57/29 85/59/29 30/60/29
f 30/60/30 85/59/30 97/61/30 31/62/30
f 1/63/31 2/64/31 3/65/31 4/66/31 5/67/31 6/68/31 7/69/31 8/70/31 9/71/31 10/72/31 11/73/31 12/74/31 13/75/31 14/76/31 15/77/31 16/78/31 17/79/31 18/80/31 19/81/31 20/82/31 21/83/31 22/84/31 23/85/31 24/86/31 25/87/31 26/88/31 27/89/31 28/90/31 29/91/31 30/92/31 31/93/31 32/94/31
f 31/62/32 97/61/32 78/95/32 32/96/32
f 32/96/33 78/95/33 72/2/33 1/1/33
f 42/97/34 62/98/34 33/99/34
f 53/100/35 40/101/35 33/99/35
f 63/102/36 50/103/36 33/99/36
f 41/104/37 61/105/37 33/99/37
f 52/106/38 39/107/38 33/99/38
f 62/98/39 49/108/39 33/99/39
f 40/101/40 60/109/40 33/99/40
f 50/103/41 38/110/41 33/99/41
f 61/105/42 48/111/42 33/99/42
f 39/107/43 59/112/43 33/99/43
f 49/108/44 37/113/44 33/99/44
f 60/109/45 47/114/45 33/99/45
f 51/115/46 45/116/46 33/99/46
f 38/110/47 58/117/47 33/99/47
f 48/111/48 36/118/48 33/99/48
f 59/112/49 46/119/49 33/99/49
f 37/113/50 57/120/50 33/99/50
f 47/114/51 35/121/51 33/99/51
f 45/116/52 65/122/52 33/99/52
f 58/117/53 51/115/53 33/99/53
f 36/118/54 56/123/54 33/99/54
f 46/119/55 34/124/55 33/99/55
f 57/120/56 44/125/56 33/99/56
f 35/121/57 55/126/57 33/99/57
f 56/123/58 43/127/58 33/99/58
f 34/124/59 54/128/59 33/99/59
f 44/125/60 64/129/60 33/99/60
f 55/126/61 42/97/61 33/99/61
f 65/122/62 53/100/62 33/99/62
f 43/127/63 63/102/63 33/99/63
f 54/128/64 41/104/64 33/99/64
f 64/129/65 52/106/65 33/99/65
f 75/47/66 94/45/66 62/98/66 42/97/66
f 85/59/67 74/57/67 40/101/67 53/100/67
f 95/9/68 83/7/68 50/103/68 63/102/68
f 73/21/69 93/19/69 61/105/69 41/104/69
f 84/33/70 71/31/70 39/107/70 52/106/70
f 94/45/71 82/43/71 49/108/71 62/98/71
f 74/57/72 92/55/72 60/109/72 40/101/72
f 83/7/73 70/5/73 38/110/73 50/103/73
f 93/19/74 81/17/74 48/111/74 61/105/74
f 71/31/75 91/29/75 59/112/75 39/107/75
f 82/43/76 69/41/76 37/113/76 49/108/76
f 92/55/77 80/53/77 47/114/77 60/109/77
f 72/2/78 78/95/78 45/116/78 51/115/78
f 70/5/79 90/3/79 58/117/79 38/110/79
f 81/17/80 68/15/80 36/118/80 48/111/80
f 91/29/81 79/27/81 46/119/81 59/112/81
f 69/41/82 89/39/82 57/120/82 37/113/82
f 80/53/83 67/51/83 35/121/83 47/114/83
f 78/95/84 97/61/84 65/122/84 45/116/84
f 90/3/85 72/2/85 51/115/85 58/117/85
f 68/15/86 88/13/86 56/123/86 36/118/86
f 79/27/87 66/25/87 34/124/87 46/119/87
f 89/39/88 77/37/88 44/125/88 57/120/88
f 67/51/89 87/49/89 55/126/89 35/121/89
f 88/13/90 76/11/90 43/127/90 56/123/90
f 66/25/91 86/23/91 54/128/91 34/124/91
f 77/37/92 96/35/92 64/129/92 44/125/92
f 87/49/93 75/47/93 42/97/93 55/126/93
f 97/61/94 85/59/94 53/100/94 65/122/94
f 76/11/95 95/9/95 63/102/95 43/127/95
f 86/23/96 73/21/96 41/104/96 54/128/96
f 96/35/97 84/33/97 52/106/97 64/129/97
