# Blender v2.93.1 OBJ File: 'waterfall (1).blend'
# www.blender.org
mtllib waterfall.mtl
o Plane
v -8.755936 3.484272 -7.114912
v 5.799233 3.329855 9.083092
v -8.813591 20.528772 -33.586514
v 6.265760 24.206871 -24.778345
v -5.942737 3.016956 9.836673
v -4.272762 2.988230 10.097012
v -2.048857 3.101854 9.124789
v 1.039070 3.159142 8.257848
v 3.603060 3.245232 9.770335
v 3.792187 24.122250 -24.907846
v 1.249382 24.037111 -24.907927
v -1.294930 23.951893 -24.907846
v -3.836585 23.866795 -24.907688
v -5.754047 23.965822 -24.905308
v -8.586594 18.339462 -13.834606
v -8.620867 15.523389 -12.491215
v -8.655140 12.707317 -11.147824
v -8.689413 9.891243 -9.804433
v -8.722893 7.081043 -8.460009
v 5.847516 6.908705 7.375137
v 5.891077 10.487989 5.667660
v 5.934638 14.067276 3.960182
v 5.978200 17.646563 2.252704
v 6.021762 21.225847 0.545226
v -5.785906 6.636511 8.219691
v -5.744527 10.210441 6.512452
v -5.700966 13.789726 4.804974
v -5.657404 17.369013 3.097496
v -5.613843 20.948299 1.390018
v -4.248164 6.568232 8.390565
v -4.204603 10.147515 6.683087
v -4.161041 13.726801 4.975609
v -4.117480 17.306087 3.268131
v -4.073918 20.885374 1.560654
v -2.000535 6.680464 7.416001
v -1.956973 10.259751 5.708524
v -1.913411 13.839037 4.001046
v -1.869850 17.418324 2.293568
v -1.826288 20.997610 0.586090
v 1.080687 6.738348 6.550171
v 1.124249 10.317634 4.842693
v 1.167810 13.896919 3.135215
v 1.211372 17.476206 1.427737
v 1.254933 21.055492 -0.279740
v 3.652375 6.824797 8.063610
v 3.695936 10.404081 6.356133
v 3.739497 13.983368 4.648655
v 3.783059 17.562653 2.941177
v 3.826621 21.141939 1.233699
v 21.975466 3.809141 -6.838845
v 8.360573 3.238054 9.078529
v 21.817381 20.773600 -28.462095
v 7.577628 24.110495 -24.907846
v 20.127632 3.091900 9.843854
v 18.476912 3.023571 10.097012
v 16.251751 3.109615 9.124789
v 13.163320 3.128571 8.257848
v 10.598469 3.182878 9.770335
v 10.150535 24.055952 -24.907806
v 12.694040 24.002361 -24.907927
v 15.239255 23.948729 -24.907846
v 17.781729 23.895140 -24.907688
v 19.638716 24.054518 -24.904949
v 21.699945 18.999279 -12.340103
v 21.756439 16.700979 -11.243463
v 21.812931 14.402676 -10.146820
v 21.869423 12.104373 -9.050180
v 21.923100 9.825791 -7.947072
v 8.261344 6.815577 7.370218
v 8.173385 10.394043 5.662740
v 8.085425 13.972513 3.955262
v 7.997466 17.550983 2.247784
v 7.932995 21.112078 0.551614
v 19.919542 6.712025 8.237029
v 19.841541 10.270540 6.528123
v 19.753582 13.849010 4.820645
v 19.665623 17.427481 3.113167
v 19.577663 21.005951 1.405689
v 18.407879 6.602995 8.390565
v 18.319918 10.181464 6.683087
v 18.231958 13.759934 4.975609
v 18.143997 17.338406 3.268131
v 18.056038 20.916874 1.560654
v 16.159031 6.687334 7.416001
v 16.071070 10.265802 5.708524
v 15.983110 13.844273 4.001046
v 15.895150 17.422743 2.293568
v 15.807192 21.001213 0.586090
v 13.077304 6.707001 6.550171
v 12.989346 10.285473 4.842693
v 12.901385 13.863942 3.135215
v 12.813426 17.442413 1.427737
v 12.725465 21.020884 -0.279740
v 10.504797 6.761547 8.063610
v 10.416836 10.340014 6.356133
v 10.328878 13.918485 4.648655
v 10.240917 17.496956 2.941177
v 10.169264 21.058565 1.239650
v -8.577735 20.083294 -14.694313
v -8.772783 20.524889 -16.110653
v 6.076469 23.558058 -0.516471
v 6.169136 24.114340 -1.420495
v 3.808172 24.063555 -0.840012
v 3.841741 23.508589 0.144674
v 1.220030 23.928102 -2.188355
v 1.281273 23.330143 -1.281941
v -1.471430 23.863165 -1.451579
v -1.714589 23.311352 -0.481719
v -3.940605 23.795187 -0.499389
v -4.018505 23.240782 0.482527
v -5.663213 23.311516 0.232084
v -5.738025 23.914545 -0.897430
v 21.676754 20.235001 -12.949326
v 21.792515 20.783260 -14.364918
v 7.882233 23.644218 -0.973291
v 7.673771 24.020645 -1.412396
v 10.143255 24.001301 -0.829938
v 10.139802 23.448597 0.135789
v 12.724398 23.894293 -2.168473
v 12.670336 23.297989 -1.285440
v 15.418545 23.863638 -1.432274
v 15.668297 23.312593 -0.482930
v 17.887321 23.827394 -0.479572
v 17.971874 23.265911 0.483367
v 19.596037 23.360531 0.248689
v 19.653038 23.985922 -0.858925
vt 1.000000 1.000000
vt 1.000000 1.000000
vt 1.000000 1.000000
vt 1.000000 1.000000
vt 0.833333 0.833333
vt 1.000000 0.833333
vt 1.000000 0.955666
vt 0.833333 0.955847
vt 1.000000 0.666667
vt 1.000000 0.500000
vt 1.000000 0.333333
vt 1.000000 0.166667
vt 1.000000 0.000000
vt 1.000000 0.000000
vt 1.000000 0.166667
vt 1.000000 0.333333
vt 1.000000 0.500000
vt 1.000000 0.666667
vt 1.000000 0.833333
vt 1.000000 1.004371
vt 0.166667 0.833333
vt 0.333333 0.833333
vt 0.333333 0.956089
vt 0.166667 0.956075
vt 0.500000 0.833333
vt 0.500000 0.956046
vt 0.666667 0.833333
vt 0.666667 0.955970
vt 0.166667 1.000000
vt 0.333333 1.000000
vt 0.333333 1.000000
vt 0.166667 1.000000
vt 0.500000 1.000000
vt 0.500000 1.000000
vt 0.666667 1.000000
vt 0.666667 1.000000
vt 0.833333 1.000000
vt 0.833333 1.000000
vt 0.666667 0.000000
vt 0.833333 0.000000
vt 0.833333 0.166667
vt 0.666667 0.166667
vt 0.833333 0.333333
vt 0.666667 0.333333
vt 0.833333 0.500000
vt 0.666667 0.500000
vt 0.833333 0.666667
vt 0.666667 0.666667
vt 0.500000 0.000000
vt 0.500000 0.166667
vt 0.500000 0.333333
vt 0.500000 0.500000
vt 0.500000 0.666667
vt 0.333333 0.000000
vt 0.333333 0.166667
vt 0.333333 0.333333
vt 0.333333 0.500000
vt 0.333333 0.666667
vt 0.166667 0.000000
vt 0.166667 0.166667
vt 0.166667 0.333333
vt 0.166667 0.500000
vt 0.166667 0.666667
vt 0.833333 1.000000
vt 0.833333 1.000000
vt 0.666667 0.833333
vt 0.666667 0.955912
vt 0.833333 0.955991
vt 0.833333 0.833333
vt 1.127280 0.998528
vt 0.166667 0.833333
vt 0.166667 0.955330
vt 0.333333 0.955600
vt 0.333333 0.833333
vt 0.500000 0.955785
vt 0.500000 0.833333
vt 0.166667 1.000000
vt 0.166667 1.000000
vt 0.333333 1.000000
vt 0.333333 1.000000
vt 0.500000 1.000000
vt 0.500000 1.000000
vt 0.666667 1.000000
vt 0.666667 1.000000
vt 0.666667 0.000000
vt 0.666667 0.166667
vt 0.833333 0.166667
vt 0.833333 0.000000
vt 0.666667 0.333333
vt 0.833333 0.333333
vt 0.666667 0.500000
vt 0.833333 0.500000
vt 0.666667 0.666667
vt 0.833333 0.666667
vt 0.500000 0.000000
vt 0.500000 0.166667
vt 0.500000 0.333333
vt 0.500000 0.500000
vt 0.500000 0.666667
vt 0.333333 0.000000
vt 0.333333 0.166667
vt 0.333333 0.333333
vt 0.333333 0.500000
vt 0.333333 0.666667
vt 0.166667 0.000000
vt 0.166667 0.166667
vt 0.166667 0.333333
vt 0.166667 0.500000
vt 0.166667 0.666667
vt 0.000000 0.833333
vt 0.000000 0.930077
vt 0.000000 1.000000
vt 0.000000 1.000000
vt 0.000000 0.000000
vt 0.000000 0.166667
vt 0.000000 0.333333
vt 0.000000 0.500000
vt 0.000000 0.666667
vt 0.000000 0.833333
vt 0.000000 1.000000
vt 0.000000 1.000000
vt 0.000000 0.000000
vt 0.000000 0.166667
vt 0.000000 0.333333
vt 0.000000 0.500000
vt 0.000000 0.666667
vt 0.000000 0.944132
vn 0.0675 0.9977 0.0039
vn 0.2562 0.3991 0.8804
vn 0.0296 0.4346 0.9002
vn -0.1010 0.4261 0.8990
vn 0.3494 0.3809 0.8561
vn 0.2385 0.3934 0.8879
vn 0.0584 0.9983 0.0026
vn -0.0299 0.9995 0.0032
vn -0.0281 0.9996 0.0042
vn -0.0439 0.9990 0.0036
vn -0.4785 0.3830 0.7902
vn -0.4781 0.3829 0.7905
vn 0.2387 0.4159 0.8775
vn 0.2388 0.4157 0.8776
vn 0.3486 0.4007 0.8473
vn 0.3477 0.4003 0.8479
vn -0.1085 0.4189 0.9015
vn -0.0814 0.4302 0.8991
vn -0.0821 0.4299 0.8991
vn 0.2578 0.4131 0.8734
vn 0.2581 0.4134 0.8732
vn 0.0143 0.9999 0.0030
vn 0.4753 0.3695 0.7985
vn -0.3114 0.4437 0.8403
vn 0.0864 0.4284 0.8994
vn -0.3540 0.3772 0.8558
vn -0.2433 0.3911 0.8876
vn -0.0871 0.9962 0.0030
vn 0.0173 0.9998 0.0031
vn 0.0155 0.9999 0.0041
vn 0.0322 0.9995 0.0035
vn 0.4737 0.3889 0.7902
vn 0.4733 0.3888 0.7905
vn 0.4743 0.3879 0.7903
vn -0.2439 0.4129 0.8775
vn -0.2439 0.4127 0.8776
vn -0.3536 0.3963 0.8473
vn -0.3526 0.3959 0.8479
vn 0.0926 0.4192 0.9032
vn 0.0633 0.4321 0.8996
vn 0.0664 0.4310 0.8999
vn -0.2602 0.4101 0.8741
vn -0.2602 0.4106 0.8739
vn -0.2595 0.4118 0.8736
vn -0.0277 0.9996 0.0031
vn -0.4770 0.3646 0.7997
vn 0.1182 0.8542 0.5063
vn -0.3209 0.8014 0.5047
vn 0.1301 0.8397 0.5272
vn 0.1792 0.8430 0.5072
vn -0.0421 0.8761 0.4802
vn -0.1637 0.8117 0.5607
vn 0.3147 0.8018 0.5081
vn -0.1426 0.8320 0.5362
vn -0.1940 0.8328 0.5184
vn 0.0252 0.8674 0.4969
vn 0.0783 0.8220 0.5641
vn 0.9876 0.0705 0.1406
vn -0.7493 0.6622 0.0019
vn -0.9807 0.0957 0.1703
vn -0.9800 0.0952 0.1750
vn -0.9799 0.0954 0.1750
vn 0.8336 0.5523 0.0011
vn 0.9905 0.0615 0.1232
vn 0.9863 0.0893 0.1391
vn 0.9861 0.0906 0.1390
vn -0.9766 0.1417 0.1617
vn 0.9841 0.1255 0.1258
vn -0.9812 0.0771 0.1767
usemtl WATER
s off
f 102/1/1 116/2/1 53/3/1 4/4/1
f 49/5/2 24/6/2 101/7/2 104/8/2
f 24/6/3 23/9/3 22/10/3 21/11/3 20/12/3 2/13/3 51/14/3 69/15/3 70/16/3 71/17/3 72/18/3 73/19/3 115/20/3 101/7/3
f 29/21/4 34/22/4 110/23/4 111/24/4
f 34/22/5 39/25/5 108/26/5 110/23/5
f 39/25/6 44/27/6 106/28/6 108/26/6
f 112/29/7 109/30/7 13/31/7 14/32/7
f 109/30/8 107/33/8 12/34/8 13/31/8
f 107/33/9 105/35/9 11/36/9 12/34/9
f 105/35/10 103/37/10 10/38/10 11/36/10
f 8/39/11 9/40/11 45/41/11 40/42/11
f 40/42/12 45/41/12 46/43/12 41/44/12
f 41/44/12 46/43/12 47/45/12 42/46/12
f 42/46/12 47/45/12 48/47/12 43/48/12
f 43/48/12 48/47/12 49/5/12 44/27/12
f 7/49/13 8/39/13 40/42/13 35/50/13
f 35/50/14 40/42/14 41/44/14 36/51/14
f 36/51/14 41/44/14 42/46/14 37/52/14
f 37/52/14 42/46/14 43/48/14 38/53/14
f 38/53/14 43/48/14 44/27/14 39/25/14
f 6/54/15 7/49/15 35/50/15 30/55/15
f 30/55/16 35/50/16 36/51/16 31/56/16
f 31/56/16 36/51/16 37/52/16 32/57/16
f 32/57/16 37/52/16 38/53/16 33/58/16
f 33/58/16 38/53/16 39/25/16 34/22/16
f 5/59/17 6/54/17 30/55/17 25/60/17
f 25/60/18 30/55/18 31/56/18 26/61/18
f 26/61/19 31/56/19 32/57/19 27/62/19
f 27/62/19 32/57/19 33/58/19 28/63/19
f 28/63/19 33/58/19 34/22/19 29/21/19
f 9/40/20 2/13/20 20/12/20 45/41/20
f 45/41/21 20/12/21 21/11/21 46/43/21
f 46/43/21 21/11/21 22/10/21 47/45/21
f 47/45/21 22/10/21 23/9/21 48/47/21
f 48/47/21 23/9/21 24/6/21 49/5/21
f 117/64/22 59/65/22 53/3/22 116/2/22
f 93/66/23 120/67/23 118/68/23 98/69/23
f 98/69/24 118/68/24 115/70/24 73/19/24
f 78/71/25 125/72/25 124/73/25 83/74/25
f 83/74/26 124/73/26 122/75/26 88/76/26
f 88/76/27 122/75/27 120/67/27 93/66/27
f 126/77/28 63/78/28 62/79/28 123/80/28
f 123/80/29 62/79/29 61/81/29 121/82/29
f 121/82/30 61/81/30 60/83/30 119/84/30
f 119/84/31 60/83/31 59/65/31 117/64/31
f 57/85/32 89/86/32 94/87/32 58/88/32
f 89/86/33 90/89/33 95/90/33 94/87/33
f 90/89/33 91/91/33 96/92/33 95/90/33
f 91/91/33 92/93/33 97/94/33 96/92/33
f 92/93/34 93/66/34 98/69/34 97/94/34
f 56/95/35 84/96/35 89/86/35 57/85/35
f 84/96/36 85/97/36 90/89/36 89/86/36
f 85/97/36 86/98/36 91/91/36 90/89/36
f 86/98/36 87/99/36 92/93/36 91/91/36
f 87/99/36 88/76/36 93/66/36 92/93/36
f 55/100/37 79/101/37 84/96/37 56/95/37
f 79/101/38 80/102/38 85/97/38 84/96/38
f 80/102/38 81/103/38 86/98/38 85/97/38
f 81/103/38 82/104/38 87/99/38 86/98/38
f 82/104/38 83/74/38 88/76/38 87/99/38
f 54/105/39 74/106/39 79/101/39 55/100/39
f 74/106/40 75/107/40 80/102/40 79/101/40
f 75/107/41 76/108/41 81/103/41 80/102/41
f 76/108/41 77/109/41 82/104/41 81/103/41
f 77/109/41 78/71/41 83/74/41 82/104/41
f 58/88/42 94/87/42 69/15/42 51/14/42
f 94/87/43 95/90/43 70/16/43 69/15/43
f 95/90/43 96/92/43 71/17/43 70/16/43
f 96/92/43 97/94/43 72/18/43 71/17/43
f 97/94/44 98/69/44 73/19/44 72/18/44
f 103/37/45 102/1/45 4/4/45 10/38/45
f 44/27/46 49/5/46 104/8/46 106/28/46
f 102/1/47 103/37/47 104/8/47 101/7/47
f 103/37/48 105/35/48 106/28/48 104/8/48
f 105/35/49 107/33/49 108/26/49 106/28/49
f 107/33/50 109/30/50 110/23/50 108/26/50
f 109/30/51 112/29/51 111/24/51 110/23/51
f 116/2/52 115/70/52 118/68/52 117/64/52
f 117/64/53 118/68/53 120/67/53 119/84/53
f 119/84/54 120/67/54 122/75/54 121/82/54
f 121/82/55 122/75/55 124/73/55 123/80/55
f 123/80/56 124/73/56 125/72/56 126/77/56
f 102/1/57 101/7/57 115/70/57 116/2/57
usemtl DIRT
f 64/110/58 113/111/58 125/72/58 78/71/58
f 100/112/59 112/29/59 14/32/59 3/113/59
f 1/114/60 5/59/60 25/60/60 19/115/60
f 19/115/61 25/60/61 26/61/61 18/116/61
f 18/116/62 26/61/62 27/62/62 17/117/62
f 17/117/62 27/62/62 28/63/62 16/118/62
f 16/118/62 28/63/62 29/21/62 15/119/62
f 114/120/63 52/121/63 63/78/63 126/77/63
f 50/122/64 68/123/64 74/106/64 54/105/64
f 68/123/65 67/124/65 75/107/65 74/106/65
f 67/124/66 66/125/66 76/108/66 75/107/66
f 66/125/66 65/126/66 77/109/66 76/108/66
f 65/126/66 64/110/66 78/71/66 77/109/66
f 112/29/67 100/112/67 99/127/67 111/24/67
f 126/77/68 125/72/68 113/111/68 114/120/68
f 15/119/69 29/21/69 111/24/69 99/127/69
