# Blender v2.93.3 OBJ File: 'assets.blend'
# www.blender.org
mtllib log-4.mtl
o Stump-3_Cube.085
v -1.350644 -1.533894 -0.676676
v -1.352612 -0.444553 -1.135570
v 1.274261 -0.759206 -1.213121
v -1.547460 -1.504670 0.244522
v -1.138332 -1.636917 0.734478
v -0.919047 -1.094350 1.324086
v -1.343919 -0.512899 1.144882
v -0.993050 -1.298634 -1.191083
v -0.316469 -1.827422 -0.965330
v -0.453884 -0.458176 -1.555841
v 0.639252 0.553112 -1.456853
v 1.490082 -1.553088 0.280443
v 1.226153 -1.586701 -0.791560
v -0.315674 -1.827918 0.949577
v 0.841548 -1.732787 0.849966
v 1.336696 -0.822173 1.123484
v -1.731096 -0.546730 0.638021
v -1.862573 -0.619617 -0.312199
v 0.372475 -1.183875 -1.451176
v 1.721239 -0.487461 -0.654907
v 1.854199 -0.551264 -0.009194
v 1.723726 -0.528990 0.618949
v 0.372124 -1.333649 1.356779
v 0.734775 -0.544877 1.444926
v 0.005000 -0.558711 1.556419
v 0.740224 -1.940682 -0.298790
v -0.418250 -2.035897 -0.007415
v 1.281164 1.821689 -0.944272
v -1.564194 1.278554 0.521683
v -1.222166 1.675866 -0.840362
v -0.964450 1.275010 1.114952
v 0.601846 2.139057 -1.296092
v -0.405080 1.903747 -1.207083
v 1.182179 1.887536 -1.024254
v 1.617949 1.703207 -0.556318
v 0.798000 1.359150 1.289337
v 1.236222 1.413462 1.039170
v 1.599144 1.467689 0.576875
v 0.524763 1.327885 1.373578
v -1.607480 1.430158 0.074812
v -1.223881 1.284569 1.046029
v 0.273576 2.049441 -1.217288
v -1.527404 1.532097 -0.271457
v -0.016687 1.269020 1.458978
v -1.312574 1.614978 -0.615707
v 1.720824 1.501034 0.003691
v 0.685885 1.345338 1.351015
v -0.258116 1.257521 1.329919
v -0.715968 1.269374 1.192221
vt 0.504668 0.155329
vt 0.401405 0.208347
vt 0.417891 0.100845
vt 0.436849 0.279202
vt 0.375000 0.348200
vt 0.555084 0.437502
vt 0.480343 0.500000
vt 0.452244 0.411513
vt 0.375000 0.473720
vt 0.508851 0.562500
vt 0.378562 0.532830
vt 0.507168 0.687500
vt 0.480129 0.750000
vt 0.405796 0.655820
vt 0.506442 0.875000
vt 0.460124 0.959545
vt 0.436904 0.839973
vt 0.506556 0.812500
vt 0.559840 0.904813
vt 0.546267 0.947511
vt 0.375000 1.000000
vt 0.375000 0.901724
vt 0.375000 0.776259
vt 0.312500 0.593163
vt 0.214177 0.625000
vt 0.221483 0.520861
vt 0.339484 0.734037
vt 0.520799 0.517480
vt 0.537259 0.562500
vt 0.509347 0.062500
vt 0.563319 0.076313
vt 0.566645 0.120217
vt 0.536813 0.828135
vt 0.535944 0.874567
vt 0.536454 0.796723
vt 0.536103 0.812425
vt 0.437500 0.000000
vt 0.515549 0.000000
vt 0.375000 0.026274
vt 0.511283 0.250000
vt 0.568548 0.173959
vt 0.571602 0.213645
vt 0.506136 0.625000
vt 0.519391 0.326307
vt 0.221523 0.729018
vt 0.564423 0.970247
vt 0.515549 1.000000
vt 0.125000 0.723726
vt 0.125000 0.625000
vt 0.125000 0.526129
vt 0.521544 0.750000
vt 0.567880 0.331095
vt 0.580280 0.400166
vt 0.537611 0.625000
vt 0.562801 0.250000
vt 0.528749 0.500000
vt 0.571498 0.435591
vt 0.538599 0.687500
vt 0.561110 1.000000
vt 0.561110 0.000000
vn -0.8872 -0.4266 -0.1760
vn -0.3684 -0.7216 -0.5861
vn 0.2749 -0.0454 -0.9604
vn 0.1873 -0.7117 -0.6771
vn 0.8104 -0.3027 -0.5016
vn 0.8314 -0.3360 0.4426
vn -0.0766 -0.2826 0.9562
vn 0.3568 -0.2642 0.8960
vn -0.2853 0.0778 0.9553
vn -0.3301 -0.6303 0.7027
vn 0.1180 -0.7241 0.6796
vn 0.0276 -0.9774 -0.2098
vn 0.3718 -0.9187 0.1335
vn 0.7633 0.0649 -0.6428
vn -0.9867 0.0984 0.1290
vn 0.1498 0.0544 0.9872
vn 0.4760 0.0559 0.8777
vn -0.9575 -0.2457 0.1513
vn -0.7324 -0.3691 0.5722
vn -0.7705 -0.2998 0.5625
vn -0.7773 -0.2455 -0.5793
vn -0.8547 0.1426 -0.4991
vn 0.8985 -0.3830 -0.2143
vn -0.1528 -0.3093 -0.9386
vn 0.1084 -0.0199 -0.9939
vn -0.4221 -0.1193 -0.8987
vn 0.4149 -0.4321 -0.8008
vn -0.1186 -0.5143 -0.8494
vn 0.1111 -0.9770 0.1822
vn 0.9375 -0.2815 0.2047
vn 0.6408 -0.5185 0.5661
vn 0.1519 -0.1785 0.9721
vn 0.4341 -0.4674 0.7701
vn -0.2944 0.0784 0.9525
vn -0.1190 -0.5274 0.8412
vn -0.3393 -0.9255 0.1684
vn 0.1868 -0.8759 -0.4450
vn 0.5171 -0.8500 -0.1007
vn -0.3844 -0.9112 -0.1480
vn -0.9716 0.1547 -0.1791
vn 0.4899 0.0548 0.8701
vn -0.0464 0.1469 -0.9881
vn -0.0930 0.9934 0.0670
vn 0.0937 0.9450 0.3134
vn -0.0508 0.9777 0.2037
vn -0.1852 0.9648 0.1870
vn -0.2050 0.9661 0.1571
vn -0.0238 0.7079 0.7059
vn 0.0035 0.7741 0.6330
vn 0.1469 0.9557 0.2551
vn -0.0758 0.9333 0.3509
vn -0.0975 0.9945 0.0372
vn -0.0957 0.9945 0.0415
vn -0.0937 0.9943 0.0517
vn -0.1026 0.9941 0.0361
vn -0.0940 0.9917 0.0875
vn -0.0344 0.9795 0.1986
vn 0.0481 0.9979 -0.0427
vn -0.0289 0.9859 0.1649
vn -0.3231 0.8862 0.3320
vn -0.1401 0.9581 0.2497
vn -0.1612 0.9515 0.2622
vn 0.6569 0.0764 -0.7501
vn 0.9821 0.0595 -0.1790
vn -0.8149 0.0985 0.5711
vn -0.4274 0.1453 -0.8923
vn -0.9321 0.1056 -0.3465
vn -0.2537 0.0700 0.9647
vn 0.9766 0.0637 0.2056
vn 0.7782 0.0600 0.6252
vn -0.2560 0.0915 -0.9623
vn -0.4726 0.0413 0.8803
vn 0.1329 0.0526 0.9897
vn 0.4816 0.0868 -0.8721
usemtl wood
s off
f 18/1/1 1/2/1 4/3/1
f 1/2/2 8/4/2 9/5/2
f 11/6/3 3/7/3 19/8/3
f 9/5/4 19/8/4 13/9/4
f 3/7/5 20/10/5 13/11/5
f 22/12/6 16/13/6 12/14/6
f 25/15/7 6/16/7 23/17/7
f 16/13/8 24/18/8 23/17/8
f 25/15/9 48/19/9 49/20/9 6/16/9
f 6/16/10 5/21/10 14/22/10
f 23/17/11 14/22/11 15/23/11
f 26/24/12 27/25/12 9/26/12
f 26/24/13 12/14/13 15/27/13
f 20/10/14 3/7/14 28/28/14 35/29/14
f 17/30/15 29/31/15 40/32/15 18/1/15
f 25/15/16 24/18/16 39/33/16 44/34/16
f 24/18/17 36/35/17 47/36/17
f 4/3/18 17/30/18 18/1/18
f 17/30/19 4/3/19 6/37/19 7/38/19
f 5/39/20 6/37/20 4/3/20
f 8/4/21 1/2/21 18/1/21 2/40/21
f 18/1/22 43/41/22 45/42/22 2/40/22
f 21/43/23 12/14/23 13/11/23 20/10/23
f 8/4/24 10/44/24 19/8/24
f 10/44/25 11/6/25 19/8/25
f 8/4/26 2/40/26 10/44/26
f 19/8/27 3/7/27 13/11/27
f 8/4/28 19/8/28 9/5/28
f 15/27/29 14/45/29 27/25/29 26/24/29
f 21/43/30 22/12/30 12/14/30
f 12/14/31 16/13/31 15/27/31
f 23/17/32 24/18/32 25/15/32
f 15/27/33 16/13/33 23/17/33
f 6/16/34 49/20/34 31/46/34 7/47/34
f 14/22/35 23/17/35 6/16/35
f 5/48/36 4/49/36 27/25/36 14/45/36
f 13/11/37 26/24/37 9/26/37
f 13/11/38 12/14/38 26/24/38
f 27/25/39 4/49/39 1/50/39 9/26/39
f 18/1/40 40/32/40 43/41/40
f 24/18/41 16/13/41 37/51/41 36/35/41
f 10/44/42 33/52/42 42/53/42 11/6/42
f 48/19/43 39/33/43 36/35/43
f 46/54/44 42/53/44 48/19/44
f 45/42/45 43/41/45 49/20/45
f 33/52/46 30/55/46 45/42/46
f 42/53/47 33/52/47 45/42/47
f 34/56/48 32/57/48 42/53/48
f 28/28/49 34/56/49 42/53/49
f 42/53/50 46/54/50 28/28/50
f 46/54/51 35/29/51 28/28/51
f 38/58/52 46/54/52 48/19/52
f 37/51/53 38/58/53 48/19/53
f 36/35/54 37/51/54 48/19/54
f 39/33/55 47/36/55 36/35/55
f 48/19/56 44/34/56 39/33/56
f 49/20/57 48/19/57 45/42/57
f 29/31/58 41/59/58 31/46/58
f 49/20/59 40/32/59 31/46/59
f 40/32/60 29/31/60 31/46/60
f 43/41/61 40/32/61 49/20/61
f 42/53/62 45/42/62 48/19/62
f 34/56/63 28/28/63 3/7/63
f 35/29/64 46/54/64 21/43/64 20/10/64
f 41/60/65 29/31/65 17/30/65 7/38/65
f 30/55/66 33/52/66 10/44/66 2/40/66
f 45/42/67 30/55/67 2/40/67
f 31/46/68 41/59/68 7/47/68
f 46/54/69 38/58/69 22/12/69 21/43/69
f 38/58/70 37/51/70 16/13/70 22/12/70
f 42/53/71 32/57/71 11/6/71
f 44/34/72 48/19/72 25/15/72
f 47/36/73 39/33/73 24/18/73
f 32/57/74 34/56/74 3/7/74 11/6/74
