# Blender v2.93.3 OBJ File: 'assets.blend'
# www.blender.org
mtllib log-3.mtl
o Stump-4_Cube.087
v -1.249465 -1.412839 1.248379
v 1.263373 -1.391297 -1.259258
v -1.602471 -1.435976 -0.704993
v -1.738344 -1.401370 -0.003181
v -1.609136 -1.405375 0.704597
v -1.079959 2.358413 1.063294
v -1.343360 1.068133 -0.540288
v -1.249168 -1.394741 -1.269229
v 0.679777 -1.450587 -1.605788
v 0.002062 -1.410244 -1.728848
v -0.695181 -1.395650 -1.618560
v -0.605128 1.345843 -1.249382
v -0.049402 1.007308 -1.384020
v 1.597019 -1.457733 0.704113
v 1.739599 -1.398066 0.004189
v 1.612094 -1.405236 -0.684338
v 1.335443 1.334544 0.044408
v 1.236422 1.361949 0.597858
v 1.272285 -1.392497 1.248267
v -0.704287 -1.436284 1.602393
v -0.002940 -1.401268 1.738467
v 0.709130 -1.408526 1.607515
v 0.331209 3.252219 1.368047
v -0.050457 1.281659 1.432564
v -0.698258 3.607822 1.387668
v -1.342338 -1.568089 0.773243
v -0.805313 -1.557967 -1.355921
v 1.354648 -1.555687 -0.817609
v 0.789376 -1.555228 1.365216
v -1.852561 7.925061 0.513081
v 0.460747 7.994708 -0.226190
v 0.617555 8.338121 0.730459
v 0.871171 2.188920 1.061527
v -1.077395 2.168311 -0.884999
v -1.408628 0.345801 0.619311
v -1.470740 0.846623 0.029988
v 0.579174 0.346999 1.409050
v -0.627663 0.412813 1.396628
v -1.488872 3.265054 0.449711
v -0.856284 8.783029 1.815519
v -1.533552 8.046191 -0.338569
v -1.569346 8.528469 1.468812
v -0.112395 8.090549 -0.626212
v -0.010297 8.684813 1.662907
v -1.779466 8.248055 1.036501
v -1.762667 7.984230 0.037360
v -0.999218 8.119688 -0.681436
v -1.121449 8.101451 -0.603944
vt 0.602467 0.000000
vt 0.606117 0.085939
vt 0.507601 0.062500
vt 0.383607 0.250000
vt 0.547297 0.312506
vt 0.383701 0.312500
vt 0.546560 0.687497
vt 0.383062 0.750000
vt 0.378454 0.687500
vt 0.607585 0.937256
vt 0.602467 1.000000
vt 0.511911 0.937500
vt 0.380848 0.625000
vt 0.367834 0.542792
vt 0.381208 0.562500
vt 0.382604 0.375000
vt 0.375566 0.292647
vt 0.622154 0.188242
vt 0.532557 0.187502
vt 0.624364 0.062537
vt 0.624653 0.125222
vt 0.619508 0.251439
vt 0.572929 0.250025
vt 0.624980 0.956739
vt 0.624980 -0.016978
vt 0.623544 0.890590
vt 0.621360 0.780611
vt 0.379086 0.062500
vt 0.374878 0.000000
vt 0.528865 0.125000
vt 0.382064 0.187500
vt 0.532204 0.375005
vt 0.547608 0.625000
vt 0.381806 0.437500
vt 0.573477 0.749976
vt 0.382566 0.812500
vt 0.506541 0.812500
vt 0.595651 0.812264
vt 0.543405 0.874990
vt 0.374878 1.000000
vt 0.378654 0.937500
vt 0.372917 0.792099
vt 0.624632 0.645571
vt 0.624304 0.528471
vt 0.383039 0.500000
vt 0.375000 0.996956
vt 0.375188 0.043775
vt 0.618449 0.332485
vt 0.621585 0.441597
vt 0.618280 0.315392
vt 0.382067 0.125000
vt 0.382075 0.875000
vt 0.135643 0.694380
vt 0.172534 0.515506
vn -0.8251 0.0101 0.5649
vn -0.5287 0.1303 -0.8388
vn 0.8583 0.1285 0.4968
vn -0.6252 -0.0116 0.7804
vn 0.5371 -0.8386 -0.0907
vn -0.1050 -0.8257 -0.5543
vn -0.9981 -0.0592 -0.0152
vn -0.9795 -0.0790 0.1855
vn -0.8916 -0.1039 0.4407
vn -0.8525 -0.0176 -0.5225
vn -0.4480 -0.0940 0.8891
vn -0.0097 0.8155 -0.5787
vn -0.8271 0.1214 0.5487
vn -0.9140 0.0608 0.4011
vn -0.9051 0.0885 -0.4159
vn -0.9960 -0.0224 0.0860
vn -0.8452 0.1217 -0.5204
vn -0.1537 0.1368 -0.9786
vn -0.4709 0.1170 -0.8744
vn 0.9724 0.1465 -0.1816
vn 0.1850 0.1426 -0.9723
vn -0.1520 0.1364 -0.9789
vn 0.8740 0.1224 0.4702
vn 0.5303 0.1339 0.8372
vn 0.5809 0.0610 0.8116
vn -0.0642 0.0014 0.9979
vn -0.4025 0.0629 0.9133
vn -0.5375 0.1152 0.8354
vn 0.3719 -0.8691 0.3261
vn 0.1515 -0.9877 0.0394
vn 0.9816 0.0838 0.1715
vn 0.8493 0.1290 -0.5120
vn -0.2632 -0.9006 0.3457
vn -0.0475 -0.9802 0.1924
vn 0.3181 -0.8651 -0.3878
vn 0.0429 -0.9848 -0.1681
vn -0.3804 -0.8741 -0.3021
vn -0.1936 -0.9796 -0.0535
vn -0.3789 -0.0877 0.9213
vn -0.9782 -0.0737 -0.1940
vn -0.9779 0.0286 -0.2073
vn -0.8675 -0.1008 0.4871
vn -0.7954 0.0024 -0.6061
vn -0.4101 -0.0876 0.9078
vn -0.0461 0.9258 -0.3753
vn -0.1353 0.9908 0.0016
vn -0.0980 0.8544 -0.5104
vn -0.0952 0.9899 0.1051
vn 0.0448 0.9782 -0.2026
vn 0.3969 0.8413 -0.3671
vn -0.1709 0.9824 0.0757
vn -0.0777 0.8533 -0.5157
vn -0.5566 0.0356 -0.8300
vn -0.9759 0.1159 -0.1849
vn -0.9750 0.1166 0.1892
vn 0.9721 0.1362 0.1909
vn -0.2092 0.1110 0.9715
vn 0.4485 0.0966 0.8886
vn 0.0666 0.0198 0.9976
vn 0.1952 0.1184 0.9736
vn 0.9804 0.1225 -0.1544
vn 0.3811 -0.9245 -0.0012
vn 0.6060 -0.6964 -0.3845
vn 0.8377 0.0638 0.5423
vn 0.0039 -1.0000 -0.0013
vn 0.0620 0.1067 -0.9924
vn 0.0903 -0.8384 0.5375
vn -0.0200 -0.9385 0.3446
vn 0.3830 -0.7285 0.5679
vn 0.0083 -0.9357 -0.3526
vn -0.3771 -0.7088 -0.5962
vn -0.5358 -0.8392 0.0931
vn -0.3512 -0.9360 -0.0218
vn -0.5517 -0.7550 0.3545
vn 0.1726 -0.0426 0.9841
vn 0.2680 -0.0204 0.9632
vn 0.4654 -0.0188 0.8849
vn -0.1940 0.0708 -0.9785
vn 0.5404 0.1339 -0.8307
usemtl wood
s off
f 6/1/1 39/2/1 35/3/1
f 8/4/2 12/5/2 11/6/2
f 18/7/3 19/8/3 14/9/3
f 25/10/4 6/11/4 38/12/4
f 15/13/5 28/14/5 16/15/5
f 10/16/6 27/17/6 11/6/6
f 39/2/7 46/18/7 7/19/7
f 45/20/8 30/21/8 39/2/8
f 6/1/9 45/20/9 39/2/9
f 46/18/10 41/22/10 34/23/10
f 25/10/11 42/24/11 6/11/11
f 42/25/12 40/26/12 44/27/12
f 5/28/13 1/29/13 35/3/13
f 35/3/14 1/29/14 6/1/14
f 8/4/15 7/19/15 34/23/15
f 35/3/16 39/2/16 36/30/16
f 8/4/17 3/31/17 7/19/17
f 11/6/18 12/5/18 13/32/18
f 8/4/19 34/23/19 12/5/19
f 15/13/20 16/15/20 17/33/20
f 10/16/21 13/32/21 9/34/21
f 11/6/22 13/32/22 10/16/22
f 18/7/23 33/35/23 19/8/23
f 22/36/24 19/8/24 37/37/24
f 33/35/25 23/38/25 37/37/25
f 38/12/26 24/39/26 25/10/26
f 1/40/27 38/12/27 6/11/27
f 1/40/28 20/41/28 38/12/28
f 29/42/29 14/9/29 19/8/29
f 28/14/30 14/9/30 29/42/30
f 18/7/31 17/33/31 32/43/31
f 31/44/32 16/15/32 2/45/32
f 26/46/33 20/41/33 1/40/33
f 20/41/34 26/46/34 29/42/34
f 28/14/35 9/34/35 2/45/35
f 27/17/36 9/34/36 28/14/36
f 27/17/37 3/31/37 8/4/37
f 3/31/38 27/17/38 26/47/38
f 25/10/39 24/39/39 40/26/39
f 39/2/40 30/21/40 46/18/40
f 36/30/41 39/2/41 7/19/41
f 42/25/42 45/20/42 6/1/42
f 7/19/43 46/18/43 34/23/43
f 25/10/44 40/26/44 42/24/44
f 44/27/45 32/43/45 42/25/45
f 41/22/46 32/43/46 47/48/46
f 30/21/47 42/25/47 32/43/47
f 41/22/48 46/18/48 30/21/48
f 43/49/49 47/48/49 32/43/49
f 32/43/50 31/44/50 43/49/50
f 41/22/51 30/21/51 32/43/51
f 30/21/52 45/20/52 42/25/52
f 48/50/53 47/48/53 12/5/53 34/23/53 41/22/53
f 4/51/54 36/30/54 7/19/54 3/31/54
f 35/3/55 36/30/55 4/51/55 5/28/55
f 18/7/56 14/9/56 15/13/56 17/33/56
f 21/52/57 24/39/57 38/12/57 20/41/57
f 19/8/58 33/35/58 37/37/58
f 24/39/59 37/37/59 23/38/59
f 37/37/60 24/39/60 21/52/60 22/36/60
f 17/33/61 16/15/61 31/44/61 32/43/61
f 14/9/62 28/14/62 15/13/62
f 28/14/63 2/45/63 16/15/63
f 33/35/64 18/7/64 32/43/64 44/27/64
f 28/14/65 29/42/65 26/53/65 27/54/65
f 13/32/66 47/48/66 43/49/66 9/34/66
f 22/36/67 21/52/67 29/42/67
f 20/41/68 29/42/68 21/52/68
f 29/42/69 19/8/69 22/36/69
f 9/34/70 27/17/70 10/16/70
f 27/17/71 8/4/71 11/6/71
f 5/28/72 4/51/72 26/47/72
f 3/31/73 26/47/73 4/51/73
f 1/29/74 5/28/74 26/47/74
f 40/26/75 23/38/75 44/27/75
f 23/38/76 40/26/76 24/39/76
f 23/38/77 33/35/77 44/27/77
f 47/48/78 13/32/78 12/5/78
f 9/34/79 43/49/79 31/44/79 2/45/79
