# Blender v2.93.3 OBJ File: 'assets.blend'
# www.blender.org
mtllib log-2.mtl
o Cube.001_Cube.099
v 0.157218 0.653859 0.651277
v 0.983957 -0.666020 -0.635081
v 6.968225 -0.736235 1.366596
v 6.968436 0.736235 1.366596
v 13.774165 -0.586856 1.020189
v 13.779259 0.615627 0.995199
v 9.460963 -0.636415 1.551052
v 9.805969 0.270120 5.131535
v 10.334008 -0.338714 4.612468
v 10.657543 -0.238228 6.759448
v 0.151543 -0.726463 -0.546828
v 0.152099 0.726152 -0.547139
v 1.029142 0.669362 -0.632387
v 1.015735 0.369762 -0.817104
v 0.985467 0.000250 -0.884080
v 1.001465 -0.363818 -0.821577
v 0.970983 -0.853944 -0.335099
v 0.947183 0.852956 -0.336178
v 0.144118 0.902495 -0.015053
v 0.149545 0.838284 0.351977
v 0.149433 0.356170 0.835852
v 3.485680 -0.000225 1.090491
v 0.148963 -0.356314 0.835829
v 0.157251 -0.653896 0.651504
v 8.527983 0.358426 -0.454420
v 7.689118 -0.003894 -0.536233
v 7.651370 -0.359292 -0.475360
v 6.398611 -0.881547 0.784352
v 9.428040 -0.855842 0.137083
v 7.324532 0.896435 0.964858
v 6.329153 0.372373 1.451851
v 6.192721 0.004741 1.484325
v 6.582859 -0.382956 1.548438
v 4.815084 -0.697463 0.935643
v 4.883699 0.687079 0.952550
v 8.511020 -0.659286 -0.240977
v 12.923151 0.359347 -0.395642
v 12.971213 -0.351793 -0.395300
v 13.774633 -0.789367 0.688196
v 12.918941 -0.873248 0.424373
v 13.006047 -0.810187 0.088793
v 12.933320 0.816431 0.092805
v 12.929756 0.872791 0.425301
v 13.799331 0.273430 1.196943
v 13.234397 0.002277 1.272838
v 13.793809 -0.305451 1.182865
v 10.788182 -0.655958 1.188589
v 8.926076 0.791523 1.728556
v 8.752196 0.657010 -0.235079
v 13.759035 0.627066 -0.162736
v 13.759301 -0.625937 -0.160893
v 10.332173 0.669707 1.227672
v 7.929254 -0.833330 1.646637
v 8.831356 -0.922662 1.188740
v 9.209517 -0.830962 1.423783
v 9.528656 -0.210688 1.722268
v 9.445063 0.554027 1.649527
v 8.338645 0.152310 3.304763
v 8.385986 -0.415708 3.231554
v 8.871183 0.664029 2.780044
v 8.469488 -0.655529 2.950529
v 8.513340 -0.739992 2.628820
v 8.990225 -0.647360 2.946655
v 9.362763 -0.273273 3.000342
v 9.393777 -0.000804 2.958396
v 9.359753 0.271304 2.991631
v 7.691551 -0.625162 2.042521
v 7.577171 0.644706 1.893561
v 9.130354 -0.543275 1.987674
v 9.104495 -0.479278 2.411253
v 9.236641 -0.497733 3.018280
v 9.027661 0.572729 2.134605
v 9.231938 0.497220 3.002631
v 9.680344 -0.099167 5.023780
v 10.126215 0.455818 4.716836
v 10.044915 0.406531 5.197669
v 10.022238 -0.448266 4.824286
v 10.296060 -0.413953 4.804882
v 10.683457 -0.096088 5.263891
v 10.526484 0.269086 4.986968
v 9.502757 -0.413346 4.383709
v 9.518955 0.416209 4.400439
v 8.473374 0.477121 3.255486
v 10.254478 0.298513 4.383790
v 10.104981 0.055871 6.999294
v 10.166409 -0.228955 6.900799
v 10.489514 0.322820 6.838132
v 10.220837 0.228118 7.048922
v 10.468108 -0.262035 7.049310
v 10.680212 -0.057706 7.051669
v 10.674877 0.204585 6.847480
v 10.680038 0.260297 5.688569
v 10.654674 -0.293665 5.799946
v 9.870661 -0.260372 5.312861
v 0.143441 -0.195235 -0.860842
v 0.147728 0.348862 -0.809452
v 3.780654 0.376079 1.053478
v 4.786137 -0.396317 1.139627
v 0.142854 -0.000416 0.895149
v 0.143617 -0.897928 -0.007695
v 0.150507 -0.841895 0.345121
v 7.451188 0.356385 2.049460
v 7.205958 -0.000000 1.956241
v 7.494142 -0.341638 2.097490
v 7.689603 0.003563 2.408857
v 3.942397 0.859388 0.563483
v 13.775394 0.792045 0.694783
v 9.761133 -0.936235 0.610546
v 10.517161 -0.846607 0.955776
v 9.278341 0.948314 0.656331
v 8.737181 0.920748 1.222667
v 10.103012 0.850574 1.015434
v 8.889894 0.858065 0.122302
v 13.774938 -0.174952 -0.378380
v 13.772077 0.064129 -0.415056
v 9.340299 0.198548 4.388408
v 9.316933 -0.119698 4.399394
v 10.420898 0.361738 1.372367
v 10.043310 -0.205541 1.522152
v 11.058514 0.001660 1.366630
v 10.933295 -0.354971 1.328431
v 8.780041 -0.753982 2.101485
v 9.265981 0.190292 2.016889
v 9.209894 0.177728 2.373620
v 8.563570 0.727137 2.698031
v 8.638453 0.622743 3.175635
v 10.787643 -0.075908 6.461461
v 10.763978 0.146027 6.391289
v 10.345839 -0.097052 4.399662
v 10.256799 -0.058232 7.281757
v 10.404432 -0.057278 7.349357
v 10.458737 0.174854 7.253629
v 10.552052 -0.058207 7.281775
v 10.529118 0.374391 5.883367
v 10.487154 -0.364826 6.501501
v 9.870104 0.100285 5.626756
vt 0.562499 0.877172
vt 0.749523 0.750000
vt 0.752172 0.687499
vt 0.500000 0.878375
vt 0.437501 0.877213
vt 0.246673 0.625000
vt 0.247906 0.687499
vt 0.375000 0.874518
vt 0.249181 0.521452
vt 0.465775 0.372122
vt 0.500000 0.432952
vt 0.438230 0.437829
vt 0.450711 0.738169
vt 0.500000 0.743570
vt 0.500000 0.752784
vt 0.550327 0.741390
vt 0.589559 0.715204
vt 0.549403 0.738497
vt 0.595000 0.722000
vt 0.562500 0.372613
vt 0.753270 0.625000
vt 0.311261 0.563161
vt 0.609165 0.633824
vt 0.394347 0.650456
vt 0.476484 0.519412
vt 0.537209 0.521197
vt 0.587386 0.557777
vt 0.674366 0.500674
vt 0.750816 0.521372
vt 0.689868 0.563097
vt 0.452551 0.746208
vt 0.500000 0.749020
vt 0.500000 0.746748
vt 0.547638 0.745813
vt 0.525240 0.750000
vt 0.413423 0.742614
vt 0.432956 0.749944
vt 0.382890 0.649260
vt 0.386760 0.678458
vt 0.250482 0.750000
vt 0.410131 0.715492
vt 0.416608 0.546207
vt 0.392865 0.590311
vt 0.405000 0.722000
vt 0.615142 0.675386
vt 0.617079 0.646664
vt 0.614475 0.690728
vt 0.607155 0.589351
vt 0.583404 0.546365
vt 0.561673 0.435876
vt 0.500000 0.510806
vt 0.545573 0.520207
vt 0.382684 0.705981
vt 0.393687 0.582302
vt 0.385853 0.628781
vt 0.392898 0.690478
vt 0.607123 0.700078
vt 0.617627 0.698640
vt 0.614140 0.628733
vt 0.606349 0.582550
vt 0.454612 0.519347
vt 0.454222 0.519364
vt 0.545392 0.519383
vt 0.412682 0.557663
vt 0.456376 0.727444
vt 0.420169 0.705198
vt 0.524918 0.730799
vt 0.500000 0.739340
vt 0.587295 0.693389
vt 0.583349 0.749966
vt 0.545573 0.750000
vt 0.594416 0.750000
vt 0.473138 0.742505
vt 0.454427 0.736536
vt 0.500000 0.742184
vt 0.472530 0.745966
vt 0.416667 0.736672
vt 0.385072 0.746004
vt 0.392980 0.749020
vt 0.388203 0.727205
vt 0.393135 0.743525
vt 0.525773 0.749506
vt 0.545573 0.749952
vt 0.500000 0.749970
vt 0.525674 0.748333
vt 0.426628 0.746008
vt 0.570057 0.741086
vt 0.583333 0.746581
vt 0.606969 0.735083
vt 0.614857 0.746841
vt 0.606792 0.748584
vt 0.587574 0.740324
vt 0.606793 0.749913
vt 0.583333 0.749892
vt 0.475745 0.750000
vt 0.418483 0.750000
vt 0.416667 0.750000
vt 0.480487 0.750000
vt 0.433551 0.750000
vt 0.477895 0.750000
vt 0.571690 0.750000
vt 0.606441 0.750000
vt 0.567653 0.750000
vt 0.611489 0.750000
vt 0.567502 0.750000
vt 0.393361 0.750000
vt 0.386964 0.750000
vt 0.406349 0.750000
vt 0.416667 0.749894
vt 0.393226 0.749771
vt 0.425494 0.750000
vt 0.487763 0.750000
vt 0.486596 0.750000
vt 0.581596 0.750000
vt 0.555298 0.750000
vt 0.545183 0.750000
vt 0.401711 0.750000
vt 0.441152 0.750000
vt 0.429128 0.750000
vt 0.529333 0.750000
vt 0.512364 0.750000
vt 0.668561 0.439116
vt 0.624329 0.450637
vt 0.375338 0.448699
vt 0.375000 0.375000
vt 0.450325 0.739320
vt 0.323698 0.500338
vt 0.392921 0.723784
vt 0.416667 0.719152
vt 0.583333 0.724532
vt 0.474503 0.750000
vt 0.472378 0.750000
vt 0.545573 0.739175
vt 0.431246 0.748913
vt 0.454427 0.749952
vt 0.541510 0.750000
vt 0.566373 0.750000
vt 0.553997 0.750000
vt 0.487540 0.750000
vt 0.487758 0.750000
vt 0.603907 0.750000
vn -0.9954 0.0677 0.0673
vn -0.9995 0.0221 0.0217
vn -0.9996 -0.0204 0.0194
vn -0.9958 -0.0666 0.0628
vn -0.9993 -0.0273 0.0238
vn -0.9993 -0.0295 -0.0241
vn 0.0120 -0.1687 -0.9856
vn -0.1354 -0.3286 0.9347
vn -0.0600 0.1442 0.9877
vn -0.1790 0.5114 0.8405
vn -0.0575 0.1648 0.9846
vn -0.9999 0.0089 -0.0107
vn -0.0695 -0.9504 -0.3033
vn -1.0000 0.0003 -0.0011
vn 1.0000 -0.0005 0.0000
vn 0.9997 0.0148 0.0186
vn 0.0039 0.8505 -0.5260
vn -0.6581 -0.2635 0.7053
vn -0.8125 0.0432 0.5814
vn -0.6685 -0.5603 0.4891
vn -0.7901 -0.1427 0.5961
vn -0.0120 -0.9966 0.0810
vn -0.0399 -0.8513 0.5232
vn 0.0040 -0.9924 -0.1233
vn 0.0285 -0.8569 -0.5147
vn -0.0799 -0.9460 0.3143
vn -0.0199 0.9789 0.2033
vn -0.0742 0.8329 0.5484
vn 0.0270 0.8667 -0.4980
vn 0.0511 0.1741 -0.9834
vn 0.0404 0.5716 -0.8195
vn -0.0164 -0.9999 -0.0029
vn 0.0101 -0.9832 -0.1821
vn 0.0338 -0.9789 0.2017
vn 0.0681 0.9912 0.1133
vn -0.0222 0.9994 0.0274
vn 0.0324 0.9808 0.1922
vn 0.0131 0.8232 -0.5676
vn 0.0151 -0.1704 -0.9853
vn 0.0107 0.5868 -0.8097
vn 0.0185 0.1184 -0.9928
vn 0.0159 -0.6230 -0.7821
vn 0.9985 -0.0477 -0.0272
vn 0.9918 -0.1082 0.0674
vn 0.9995 -0.0088 -0.0301
vn 0.0540 -0.1508 -0.9871
vn 0.1213 0.4083 -0.9047
vn 0.1451 -0.0254 0.9891
vn 0.9964 0.0778 0.0329
vn 0.9994 0.0263 -0.0241
vn -0.9996 0.0198 0.0182
vn 0.9989 -0.0003 -0.0479
vn -1.0000 0.0003 0.0004
vn -0.9993 0.0286 -0.0245
vn -0.6324 0.4858 0.6034
vn 0.1827 -0.1679 0.9687
vn 0.3361 -0.3969 0.8541
vn -0.2179 -0.9509 0.2199
vn -0.1972 -0.9115 0.3609
vn 0.3261 -0.9262 0.1895
vn -0.5460 -0.7104 0.4440
vn 0.9553 0.1505 -0.2544
vn 0.6305 -0.1469 0.7621
vn 0.8270 0.1421 0.5439
vn 0.8592 0.4885 0.1523
vn 0.1667 0.9778 0.1273
vn 0.4336 0.8341 0.3410
vn -0.0399 0.9913 0.1254
vn -0.3911 0.8559 0.3384
vn 0.4313 0.9019 -0.0230
vn 0.7688 -0.6123 -0.1844
vn 0.8074 -0.5891 0.0316
vn 0.8276 0.1689 -0.5354
vn -0.5357 0.7625 0.3627
vn 0.5190 0.8326 -0.1934
vn 0.5426 0.7890 -0.2882
vn 0.1273 -0.9909 0.0442
vn -0.4904 -0.7295 0.4768
vn 0.5571 -0.7767 -0.2939
vn 0.2613 -0.7706 0.5813
vn -0.1158 0.9899 0.0819
vn -0.0730 0.9412 0.3298
vn 0.1253 -0.9920 0.0146
vn -0.2578 -0.9588 0.1192
vn 0.3478 -0.9375 -0.0120
vn 0.3929 -0.9012 0.1828
vn -0.5874 -0.7995 0.1252
vn -0.9763 -0.1429 0.1624
vn -0.9438 0.2554 0.2098
vn -0.0330 0.5514 -0.8336
vn -0.0577 -0.5135 -0.8561
vn -0.1468 0.1760 0.9734
vn -0.0566 0.5068 0.8602
vn -0.0578 -0.5458 0.8359
vn -0.0659 -0.0931 0.9935
vn -0.1731 -0.5792 0.7966
vn -0.3729 0.6735 0.6382
vn -0.2210 -0.0614 0.9733
vn -0.1159 0.6538 0.7477
vn -0.0575 -0.1651 0.9846
vn 0.0053 -0.8475 -0.5307
vn -0.0675 0.9468 -0.3148
vn -0.6590 0.2698 0.7021
vn -0.7850 -0.1061 0.6104
vn -0.4410 0.1583 0.8834
vn -0.4582 -0.1811 0.8702
vn -0.4266 -0.6313 0.6477
vn -0.6939 0.4759 0.5405
vn 0.0075 0.9874 -0.1578
vn 0.0095 -0.9847 -0.1739
vn -0.0140 -0.9875 0.1571
vn 0.0285 -0.8477 -0.5298
vn -0.0441 -0.8328 0.5519
vn -0.0355 0.8665 0.4980
vn -0.0176 0.9983 0.0563
vn -0.0151 0.9849 0.1725
vn 0.0512 -0.1703 -0.9841
vn -0.0829 0.9488 0.3048
vn 0.0295 0.8532 -0.5207
vn 0.0447 -0.5296 -0.8471
vn 0.0446 0.5228 -0.8513
vn 0.0481 0.1128 -0.9925
vn 0.1584 0.9704 -0.1822
vn 0.0683 -0.9825 0.1735
vn 0.0094 -0.9847 -0.1738
vn 0.0307 -0.9817 0.1878
vn -0.0792 -0.9776 0.1952
vn 0.0095 -0.8538 -0.5204
vn 0.0554 -0.8317 0.5524
vn 0.1752 -0.7886 0.5894
vn 0.0092 0.9853 -0.1708
vn 0.0325 0.9808 0.1924
vn 0.2881 0.7173 0.6344
vn 0.0561 0.8309 0.5536
vn 0.0830 0.9725 0.2175
vn 0.1633 -0.9708 -0.1757
vn 0.0054 0.8706 -0.4919
vn 0.0131 0.1913 -0.9814
vn 0.0150 0.6292 -0.7771
vn 0.0208 -0.0874 -0.9960
vn 0.0130 -0.5923 -0.8056
vn -0.0343 0.1297 -0.9910
vn 0.1145 -0.4347 -0.8933
vn -0.8063 -0.4110 0.4254
vn -0.7338 0.0772 0.6750
vn -0.6875 0.3791 0.6193
vn -0.7554 -0.1453 0.6390
vn -0.6440 -0.4409 0.6251
vn -0.8530 0.1131 0.5095
vn 0.3138 0.0887 0.9453
vn -0.7202 0.5693 0.3965
vn 0.1122 0.1832 0.9767
vn 0.3258 0.4773 0.8161
vn 0.2041 -0.3419 0.9173
vn 0.0568 -0.4728 0.8793
vn 0.0484 -0.1586 0.9862
vn 0.0499 0.1160 0.9920
vn 0.0623 0.4774 0.8764
vn 0.4921 -0.7456 0.4495
vn 0.1304 -0.9872 0.0921
vn -0.0387 -0.9923 0.1173
vn 0.1202 -0.9750 0.1869
vn 0.6371 -0.7638 -0.1038
vn 0.5461 -0.8228 0.1576
vn 0.9790 -0.1690 0.1140
vn -0.3454 -0.9000 0.2658
vn 0.9242 -0.1651 -0.3443
vn 0.9027 0.3701 -0.2196
vn 0.7061 -0.3580 0.6110
vn 0.7356 0.2667 0.6227
vn 0.9903 0.1033 -0.0929
vn 0.8474 -0.4921 -0.1994
vn -0.2055 0.9489 0.2396
vn 0.2423 0.9579 0.1542
vn -0.1050 0.9523 0.2867
vn -0.4823 0.7729 0.4124
vn 0.8048 0.5828 0.1127
vn 0.9729 0.1553 0.1713
vn 0.9460 0.2520 -0.2039
vn 0.6783 0.7338 0.0383
vn 0.9136 0.1533 -0.3766
vn 0.9002 -0.3982 0.1761
vn 0.9367 -0.3419 -0.0757
vn 0.8275 0.1697 -0.5352
vn 0.8156 -0.1776 -0.5506
vn 0.7484 0.4473 -0.4897
vn 0.7536 -0.4570 -0.4726
vn 0.8749 -0.3435 -0.3414
vn -0.1741 0.9468 0.2707
vn 0.2086 0.9775 -0.0301
vn -0.2601 -0.9123 0.3164
vn -0.4546 0.7652 0.4558
vn -0.1080 0.9907 0.0833
vn 0.4777 0.8511 -0.2180
vn -0.4588 0.4871 0.7431
vn 0.2035 -0.9789 -0.0201
vn 0.4706 -0.8493 -0.2393
vn -0.2867 -0.9206 0.2651
vn -0.2863 -0.8343 0.4712
vn 0.4025 0.2669 0.8756
vn -0.7580 0.3515 0.5494
vn -0.8838 -0.3114 0.3492
vn 0.6446 -0.6733 0.3622
vn 0.8080 0.3743 0.4550
vn 0.4873 0.8671 -0.1033
vn 0.4972 0.8051 0.3235
vn 0.0407 0.9976 0.0556
vn -0.2478 0.9618 0.1162
vn 0.5874 0.8075 0.0534
vn -0.5186 0.8450 0.1307
vn 0.6683 -0.7280 -0.1529
vn 0.5494 -0.8343 0.0466
vn -0.1918 -0.9658 0.1746
vn -0.9465 -0.2669 0.1816
vn -0.9425 0.2591 0.2109
vn -0.8621 -0.3335 0.3816
vn -0.8398 0.5186 0.1605
usemtl wood
s off
f 21/1/1 1/2/1 20/3/1
f 99/4/2 21/1/2 20/3/2
f 23/5/3 99/4/3 100/6/3
f 101/7/4 24/8/4 23/5/4
f 100/6/5 101/7/5 23/5/5
f 11/9/6 100/6/6 95/10/6
f 95/10/7 15/11/7 16/12/7
f 98/13/8 32/14/8 22/15/8
f 22/15/9 97/16/9 21/1/9
f 35/17/10 31/18/10 4/19/10
f 21/1/11 99/4/11 22/15/11
f 96/20/12 95/10/12 19/21/12
f 17/22/13 100/6/13 11/9/13
f 19/21/14 100/6/14 99/4/14
f 107/23/15 39/24/15 114/25/15
f 114/25/16 115/26/16 50/27/16
f 13/28/17 12/29/17 18/30/17
f 104/31/18 105/32/18 103/33/18
f 102/34/19 105/32/19 58/35/19
f 67/36/20 59/37/20 104/31/20
f 59/37/21 58/35/21 105/32/21
f 101/7/22 108/38/22 28/39/22
f 24/40/23 101/7/23 34/41/23
f 100/6/24 17/22/24 108/38/24
f 17/22/25 36/42/25 29/43/25
f 34/41/26 28/39/26 3/44/26
f 106/45/27 110/46/27 19/21/27
f 106/45/28 35/17/28 30/47/28
f 113/48/29 49/49/29 13/28/29
f 14/50/30 26/51/30 15/11/30
f 14/50/31 49/49/31 25/52/31
f 108/38/32 54/53/32 28/39/32
f 41/54/33 40/55/33 29/43/33
f 109/56/34 40/55/34 39/24/34
f 112/57/35 110/46/35 111/58/35
f 111/58/36 110/46/36 30/47/36
f 43/59/37 112/57/37 107/23/37
f 49/49/38 42/60/38 50/27/38
f 26/51/39 38/61/39 27/62/39
f 25/52/40 49/49/40 37/63/40
f 26/51/41 37/63/41 115/26/41
f 38/61/42 51/64/42 36/42/42
f 39/24/43 51/64/43 114/25/43
f 46/65/44 5/66/44 39/24/44
f 44/67/45 46/65/45 39/24/45
f 115/26/46 114/25/46 38/61/46
f 37/63/47 50/27/47 115/26/47
f 45/68/48 46/65/48 44/67/48
f 107/23/49 6/69/49 44/67/49
f 50/27/50 107/23/50 114/25/50
f 20/3/51 19/21/51 99/4/51
f 107/23/52 44/67/52 39/24/52
f 95/10/53 100/6/53 19/21/53
f 19/21/54 12/29/54 96/20/54
f 83/70/55 116/71/55 82/72/55
f 119/73/56 121/74/56 120/75/56
f 56/76/57 7/77/57 119/73/57
f 62/78/58 61/79/58 53/80/58
f 53/80/59 67/36/59 3/44/59
f 54/53/60 122/81/60 62/78/60
f 61/79/61 59/37/61 67/36/61
f 124/82/62 66/83/62 65/84/62
f 56/76/63 123/85/63 69/86/63
f 57/87/64 123/85/64 56/76/64
f 123/85/65 72/88/65 124/82/65
f 48/89/66 125/90/66 60/91/66
f 48/89/67 72/88/67 57/87/67
f 30/47/68 125/90/68 111/58/68
f 30/47/69 68/92/69 126/93/69
f 72/88/70 60/91/70 73/94/70
f 79/95/71 93/96/71 9/97/71
f 127/98/72 10/99/72 93/96/72
f 65/84/73 66/83/73 129/100/73
f 82/72/74 8/101/74 76/102/74
f 84/103/75 75/104/75 80/105/75
f 73/94/76 60/91/76 84/103/76
f 78/106/77 77/107/77 62/78/77
f 61/79/78 81/108/78 59/37/78
f 71/109/79 78/106/79 63/110/79
f 89/111/80 133/112/80 131/113/80
f 75/104/81 76/102/81 87/114/81
f 87/114/82 88/115/82 132/116/82
f 78/106/83 135/117/83 77/107/83
f 135/117/84 86/118/84 77/107/84
f 93/96/85 135/117/85 78/106/85
f 135/117/86 10/99/86 89/111/86
f 77/107/87 86/118/87 94/119/87
f 136/120/88 94/119/88 85/121/88
f 8/101/89 136/120/89 88/115/89
f 14/50/90 96/20/90 12/122/90 13/123/90
f 16/12/91 2/124/91 11/125/91 95/10/91
f 32/14/92 31/18/92 97/16/92 22/15/92
f 35/17/93 1/2/93 21/1/93 97/16/93
f 34/41/94 98/13/94 23/5/94 24/40/94
f 22/15/95 23/5/95 98/13/95
f 33/126/96 98/13/96 34/41/96 3/44/96
f 102/34/97 68/92/97 4/19/97 31/18/97
f 98/13/98 33/126/98 32/14/98
f 35/17/99 97/16/99 31/18/99
f 23/5/100 22/15/100 99/4/100
f 2/127/101 17/22/101 11/9/101
f 18/30/102 12/29/102 19/21/102
f 102/34/103 103/33/103 105/32/103
f 104/31/104 59/37/104 105/32/104
f 103/33/105 102/34/105 31/18/105 32/14/105
f 103/33/106 32/14/106 33/126/106 104/31/106
f 104/31/107 33/126/107 3/44/107 67/36/107
f 58/35/108 83/70/108 68/92/108 102/34/108
f 113/48/109 18/30/109 19/21/109 110/46/109
f 108/38/110 17/22/110 29/43/110
f 101/7/111 100/6/111 108/38/111
f 17/22/112 2/127/112 36/42/112
f 34/41/113 101/7/113 28/39/113
f 106/45/114 20/3/114 1/2/114 35/17/114
f 106/45/115 30/47/115 110/46/115
f 20/3/116 106/45/116 19/21/116
f 26/51/117 27/62/117 16/12/117 15/11/117
f 35/17/118 4/19/118 30/47/118
f 18/30/119 113/48/119 13/28/119
f 27/62/120 36/42/120 2/127/120 16/12/120
f 13/28/121 49/49/121 14/50/121
f 26/51/122 14/50/122 25/52/122
f 107/23/123 50/27/123 42/60/123 43/59/123
f 108/38/124 109/56/124 55/128/124 54/53/124
f 40/55/125 108/38/125 29/43/125
f 109/56/126 108/38/126 40/55/126
f 53/80/127 3/44/127 28/39/127 54/53/127
f 36/42/128 51/64/128 41/54/128 29/43/128
f 39/24/129 5/66/129 47/129/129 109/56/129
f 109/56/130 47/129/130 7/77/130 55/128/130
f 43/59/131 42/60/131 113/48/131 110/46/131
f 43/59/132 110/46/132 112/57/132
f 112/57/133 48/89/133 57/87/133 52/130/133
f 52/130/134 6/69/134 107/23/134 112/57/134
f 48/89/135 112/57/135 111/58/135
f 39/24/136 40/55/136 41/54/136 51/64/136
f 49/49/137 113/48/137 42/60/137
f 26/51/138 25/52/138 37/63/138
f 37/63/139 49/49/139 50/27/139
f 26/51/140 115/26/140 38/61/140
f 27/62/141 38/61/141 36/42/141
f 15/11/142 95/10/142 96/20/142 14/50/142
f 38/61/143 114/25/143 51/64/143
f 74/131/144 117/132/144 81/108/144 94/119/144
f 116/71/145 58/35/145 117/132/145
f 83/70/146 58/35/146 116/71/146
f 59/37/147 117/132/147 58/35/147
f 59/37/148 81/108/148 117/132/148
f 74/131/149 8/101/149 116/71/149 117/132/149
f 118/133/150 57/87/150 56/76/150 119/73/150
f 82/72/151 116/71/151 8/101/151
f 119/73/152 120/75/152 118/133/152
f 57/87/153 118/133/153 52/130/153
f 47/129/154 121/74/154 119/73/154 7/77/154
f 5/66/155 46/65/155 121/74/155 47/129/155
f 46/65/156 45/68/156 120/75/156 121/74/156
f 44/67/157 118/133/157 120/75/157 45/68/157
f 6/69/158 52/130/158 118/133/158 44/67/158
f 69/86/159 122/81/159 55/128/159 7/77/159
f 122/81/160 63/110/160 62/78/160
f 53/80/161 54/53/161 62/78/161
f 54/53/162 55/128/162 122/81/162
f 63/110/163 122/81/163 70/134/163 71/109/163
f 69/86/164 70/134/164 122/81/164
f 70/134/165 69/86/165 123/85/165 124/82/165
f 53/80/166 61/79/166 67/36/166
f 64/135/167 70/134/167 124/82/167 65/84/167
f 73/94/168 66/83/168 124/82/168 72/88/168
f 7/77/169 56/76/169 69/86/169
f 57/87/170 72/88/170 123/85/170
f 128/136/171 127/98/171 79/95/171 92/137/171
f 70/134/172 64/135/172 71/109/172
f 125/90/173 30/47/173 126/93/173
f 111/58/174 125/90/174 48/89/174
f 30/47/175 4/19/175 68/92/175
f 126/93/176 68/92/176 83/70/176
f 72/88/177 48/89/177 60/91/177
f 91/138/178 90/139/178 127/98/178 128/136/178
f 79/95/179 80/105/179 92/137/179
f 128/136/180 92/137/180 91/138/180
f 80/105/181 79/95/181 129/100/181 84/103/181
f 127/98/182 90/139/182 10/99/182
f 79/95/183 127/98/183 93/96/183
f 129/100/184 66/83/184 84/103/184
f 65/84/185 129/100/185 64/135/185
f 66/83/186 73/94/186 84/103/186
f 9/97/187 71/109/187 64/135/187 129/100/187
f 129/100/188 79/95/188 9/97/188
f 82/72/189 75/104/189 125/90/189 126/93/189
f 60/91/190 125/90/190 75/104/190
f 81/108/191 61/79/191 62/78/191 77/107/191
f 126/93/192 83/70/192 82/72/192
f 75/104/193 82/72/193 76/102/193
f 84/103/194 60/91/194 75/104/194
f 132/116/195 88/115/195 130/140/195 131/113/195
f 63/110/196 78/106/196 62/78/196
f 71/109/197 9/97/197 78/106/197
f 81/108/198 77/107/198 94/119/198
f 89/111/199 131/113/199 130/140/199 86/118/199
f 132/116/200 131/113/200 133/112/200
f 85/121/201 130/140/201 88/115/201
f 85/121/202 86/118/202 130/140/202
f 90/139/203 133/112/203 89/111/203 10/99/203
f 90/139/204 91/138/204 132/116/204 133/112/204
f 134/141/205 92/137/205 80/105/205 75/104/205
f 87/114/206 132/116/206 91/138/206
f 134/141/207 75/104/207 87/114/207
f 87/114/208 76/102/208 88/115/208
f 91/138/209 92/137/209 134/141/209 87/114/209
f 76/102/210 8/101/210 88/115/210
f 9/97/211 93/96/211 78/106/211
f 135/117/212 93/96/212 10/99/212
f 135/117/213 89/111/213 86/118/213
f 85/121/214 94/119/214 86/118/214
f 8/101/215 74/131/215 136/120/215
f 74/131/216 94/119/216 136/120/216
f 136/120/217 85/121/217 88/115/217
