# Blender v2.93.3 OBJ File: 'assets.blend'
# www.blender.org
mtllib log-6.mtl
o Stump-2_Cube.084
v -1.375221 -1.404552 1.402777
v -2.034554 0.325706 -1.253453
v 1.524586 -1.416116 -1.326893
v -1.344090 2.142897 -0.705908
v 0.130384 1.529452 -1.006296
v -2.169348 -1.450304 -0.388819
v -1.691724 -1.496881 0.853531
v -2.208801 -1.044184 1.490966
v -2.333977 -0.394647 1.477011
v -2.835045 -0.340002 0.751638
v -2.979479 -0.341317 0.020590
v -2.630215 0.035226 -0.669854
v -2.361435 -0.766008 -1.480172
v -2.041719 -1.184517 -1.420042
v 0.004289 -1.338583 -1.848051
v -1.375975 -1.404532 -1.402536
v -1.436975 0.427571 -1.578161
v -0.704985 1.106715 -1.493581
v -0.111355 0.811095 -1.488257
v 1.774960 -0.829474 -1.494026
v 1.858593 -1.184517 -1.420042
v 2.290325 -1.450761 0.368175
v 2.092441 -1.430835 -0.750215
v 1.124317 0.369271 -0.638530
v 1.305784 0.315983 0.106658
v 1.184547 0.298080 0.862299
v 1.782930 -0.841619 1.508112
v 1.858593 -1.184517 1.421996
v 0.007911 -1.341846 1.842853
v 1.523810 -1.416141 1.327156
v 0.112320 0.319256 1.865903
v -1.489894 2.108518 0.910384
v -1.714724 1.590789 0.318876
v -1.662576 1.594224 -0.337724
v 0.156222 2.558067 -0.501261
v -0.717087 1.825622 1.831472
v 0.737441 0.359170 -1.252952
v 0.512539 0.624348 1.474624
v -1.461172 1.510711 1.515096
v -2.582052 -1.201986 0.783587
v -2.838624 -0.882165 0.835666
v -2.765737 -1.217270 0.000977
v -3.030314 -0.886840 0.007820
v -2.582052 -1.201986 -0.781632
v -2.902102 -0.773614 -0.775806
v -1.154053 -1.201986 -1.815652
v -1.442906 -0.769996 -1.943698
v -0.281149 -0.806093 -2.099775
v 0.991303 -1.201986 -1.815652
v 0.853530 -0.817357 -1.942945
v 2.419302 -1.201986 -0.781632
v 2.349117 -0.850095 -0.792323
v 2.620815 -1.217270 0.000978
v 2.536697 -0.868853 0.007176
v 2.419302 -1.201986 0.783587
v 2.352790 -0.855308 0.805839
v 0.991303 -1.201986 1.817607
v 0.862934 -0.837745 1.958194
v -0.369696 -0.810804 2.111232
v -1.154053 -1.201986 1.817607
v -1.505708 -0.755705 1.949922
v -1.116155 -1.606028 -0.482919
v 0.900317 -1.599946 -0.874848
v 0.963084 -1.662747 -0.000000
v 0.900317 -1.599946 0.874848
v 0.574348 1.169600 0.868182
v 0.647100 1.198932 0.173079
v 0.536514 1.242480 -0.485422
v -1.782313 1.351295 0.967495
v -1.187076 1.295961 1.799426
v -1.507125 2.263194 0.017297
v -1.505166 2.659378 0.676920
v -1.039619 2.519866 -0.977202
v -0.829242 2.541612 -1.183609
v -1.138546 2.515110 -0.960607
v -1.402117 2.503933 1.115854
v -0.493003 2.672392 -1.145162
v -0.000891 2.590482 -0.945428
v -0.048652 2.396295 1.286626
v -0.782444 2.260069 1.752149
v -0.404239 2.705446 -1.128347
v -0.339059 2.717429 -1.060429
v -1.456018 2.570401 -0.198829
v 0.272442 2.435241 0.095815
v -1.374775 2.440775 1.317575
v -1.229235 2.322107 1.589518
v -0.854975 2.239151 1.712364
v 0.203333 2.429294 0.712307
v -1.401932 2.546417 -0.438259
v -0.653920 2.289107 1.701431
v 0.019923 2.402560 1.234991
v -1.206661 2.502097 -0.805788
v -0.237898 2.382226 1.523978
v 0.020489 2.402346 1.233629
vt 0.413601 0.375000
vt 0.436863 0.437500
vt 0.375000 0.477295
vt 0.597421 0.813137
vt 0.508740 0.875002
vt 0.498504 0.812500
vt 0.519063 0.937500
vt 0.472646 1.000000
vt 0.437188 0.937500
vt 0.436863 0.812500
vt 0.412610 0.875000
vt 0.375000 0.772777
vt 0.156385 0.500000
vt 0.187500 0.588674
vt 0.125000 0.595185
vt 0.352295 0.500000
vt 0.291323 0.562500
vt 0.250000 0.500000
vt 0.290596 0.625000
vt 0.375000 0.652451
vt 0.291323 0.687500
vt 0.352223 0.750000
vt 0.250000 0.750000
vt 0.144917 0.687500
vt 0.617964 0.371736
vt 0.623795 0.414150
vt 0.623556 0.424670
vt 0.614148 0.436088
vt 0.623297 0.497552
vt 0.605094 0.499935
vt 0.624685 0.882872
vt 0.624762 0.904757
vt 0.624186 0.954897
vt 0.623481 0.940192
vt 0.625000 0.559874
vt 0.622523 0.561930
vt 0.625000 0.125000
vt 0.625000 0.187500
vt 0.625000 0.187500
vt 0.625000 0.000000
vt 0.625000 0.062500
vt 0.581153 0.062500
vt 0.625000 0.062423
vt 0.625000 0.250000
vt 0.625000 0.245999
vt 0.625000 0.164039
vt 0.625000 0.086188
vt 0.625000 0.193926
vt 0.437500 0.125000
vt 0.437500 0.062500
vt 0.500000 0.062500
vt 0.500000 0.125000
vt 0.580206 0.125000
vt 0.517134 0.187500
vt 0.437486 0.187500
vt 0.375000 0.062500
vt 0.375000 0.000000
vt 0.472646 0.000000
vt 0.574076 0.000000
vt 0.517832 0.250000
vt 0.437391 0.250000
vt 0.375000 0.281385
vt 0.375000 0.154815
vt 0.506000 0.375000
vt 0.437175 0.312500
vt 0.515228 0.312500
vt 0.500862 0.437500
vt 0.610910 0.312166
vt 0.498230 0.500000
vt 0.436849 0.500000
vt 0.496392 0.625000
vt 0.436849 0.625000
vt 0.436849 0.562500
vt 0.496939 0.562500
vt 0.436849 0.687500
vt 0.496227 0.687500
vt 0.375000 0.562500
vt 0.605535 0.562473
vt 0.602827 0.625000
vt 0.602031 0.687523
vt 0.496711 0.750000
vt 0.609697 0.750550
vt 0.436849 0.750000
vt 0.574076 1.000000
vt 0.375000 0.968552
vt 0.156448 0.750000
vt 0.625000 0.271718
vt 0.623421 0.293828
vt 0.623911 0.303928
vt 0.624677 0.437099
vt 0.624748 0.888692
vt 0.622198 0.625000
vt 0.621937 0.687998
vt 0.614250 0.824631
vt 0.624763 0.870287
vt 0.625000 1.000000
vt 0.622507 0.756219
vt 0.621000 0.765418
vt 0.624318 0.493583
vt 0.625000 0.000000
vt 0.625000 0.024604
vt 0.625000 0.221309
vt 0.625000 1.000000
vt 0.624683 0.689931
vt 0.621850 0.351294
vt 0.624744 0.625000
vt 0.622512 0.756042
vn 0.1340 -0.8456 -0.5167
vn 0.1251 0.1593 0.9793
vn -0.3238 -0.4943 0.8067
vn 0.1336 -0.8468 0.5149
vn -0.1589 -0.9729 -0.1683
vn 0.0570 -0.9498 -0.3076
vn 0.1354 -0.9875 0.0806
vn 0.0577 -0.9501 0.3065
vn -0.1446 -0.9893 0.0185
vn 0.1092 0.2018 -0.9733
vn 0.4351 0.3961 -0.8086
vn -0.2699 0.1823 0.9455
vn 0.8250 0.2323 -0.5153
vn -0.8417 0.5361 -0.0640
vn -0.8163 0.4643 0.3436
vn -0.8474 0.3569 0.3931
vn -0.8988 0.3973 -0.1853
vn 0.1933 0.1287 0.9727
vn -0.1355 0.0934 0.9864
vn -0.9908 0.1173 -0.0675
vn -0.9997 -0.0211 0.0156
vn -0.9618 0.2633 -0.0750
vn -0.9430 0.3245 0.0744
vn -0.7587 -0.6248 0.1846
vn -0.9757 0.0626 0.2101
vn -0.7772 -0.5954 -0.2036
vn -0.3289 -0.8752 0.3547
vn -0.9845 0.0952 -0.1473
vn -0.7754 -0.0273 0.6309
vn -0.6472 -0.5965 0.4746
vn -0.7436 0.3355 -0.5784
vn -0.9011 0.3384 -0.2712
vn -0.6558 -0.5299 -0.5378
vn -0.2941 -0.9161 -0.2725
vn -0.3163 -0.9445 0.0887
vn -0.4273 -0.8964 -0.1178
vn -0.1044 -0.4176 -0.9026
vn 0.1034 -0.3388 -0.9352
vn -0.3870 -0.4544 -0.8023
vn -0.2530 -0.8080 -0.5321
vn -0.4566 0.2845 -0.8430
vn -0.1308 0.2796 -0.9512
vn 0.1470 0.3363 -0.9302
vn 0.4230 0.4891 -0.7628
vn 0.4243 -0.1173 -0.8979
vn 0.9508 0.2080 -0.2294
vn 0.3073 -0.7017 -0.6428
vn -0.1157 -0.8659 -0.4867
vn 0.9533 0.1972 0.2288
vn 0.4548 -0.7726 -0.4429
vn 0.7614 0.0887 -0.6422
vn 0.6155 0.6511 -0.4442
vn 0.6867 0.7151 -0.1307
vn 0.6958 0.7047 0.1386
vn 0.6519 0.6029 0.4599
vn 0.7639 0.0565 0.6429
vn 0.4279 -0.8190 0.3822
vn 0.5191 -0.8456 -0.1247
vn 0.7005 -0.6868 0.1938
vn 0.0932 -0.3696 0.9245
vn -0.1100 -0.4462 0.8882
vn 0.4230 -0.1637 0.8912
vn 0.3062 -0.7046 0.6401
vn 0.4358 0.3750 0.8182
vn -0.0412 -0.9970 0.0656
vn -0.5209 -0.0821 0.8496
vn -0.2855 -0.7924 0.5391
vn -0.1149 -0.8671 0.4847
vn -0.0108 -0.9974 -0.0708
vn -0.0331 -0.9753 -0.2183
vn 0.1611 -0.9850 -0.0619
vn 0.1565 -0.9713 -0.1789
vn -0.0346 -0.9766 0.2124
vn 0.1653 -0.9720 0.1672
vn -0.6840 0.3598 -0.6346
vn -0.1718 0.3020 -0.9377
vn 0.6797 0.2370 -0.6941
vn -0.4975 0.0828 0.8635
vn 0.8062 0.5779 0.1266
vn 0.3434 0.2100 0.9154
vn 0.8014 0.5846 -0.1264
vn 0.7547 0.5196 -0.4004
vn -0.8432 0.5199 0.1367
vn 0.7050 0.4902 0.5126
vn -0.8232 0.5563 -0.1130
vn -0.4946 0.1731 0.8517
vn -0.7622 0.3381 0.5520
vn -0.9313 0.3624 0.0368
vn -0.7092 0.5374 -0.4564
vn -0.1608 0.0832 0.9835
vn 0.5651 0.2620 0.7823
vn 0.9372 0.1344 -0.3217
vn -0.9006 0.3477 -0.2609
vn -0.9768 0.1273 0.1723
vn -0.9753 0.0068 -0.2210
vn -0.0526 0.9973 0.0521
vn -0.2731 0.9619 -0.0152
vn -0.1981 0.8823 0.4269
vn -0.1771 0.8290 0.5305
vn 0.0884 0.9294 0.3583
vn 0.1586 0.9482 0.2754
vn 0.1303 0.9849 0.1138
vn 0.0339 0.9446 0.3265
vn 0.1348 0.9865 -0.0927
vn 0.0665 0.9942 -0.0846
vn -0.0366 0.9970 0.0677
vn -0.3283 0.9140 -0.2383
vn -0.3750 0.9052 0.2002
vn 0.3695 0.9271 -0.0630
vn 0.0437 0.9802 0.1931
vn 0.0749 0.9970 0.0180
vn -0.0716 0.9971 0.0259
vn 0.0649 0.9917 0.1105
vn -0.0401 0.9204 0.3889
vn -0.2439 0.9677 -0.0641
vn -0.0145 0.9929 -0.1177
vn 0.3157 0.2162 0.9239
vn -0.7022 0.0917 -0.7060
vn 0.3529 0.0970 -0.9306
vn 0.7542 0.2300 0.6150
vn 0.9494 0.2940 0.1106
vn -0.7429 0.1526 0.6518
vn -0.8563 0.1946 -0.4784
vn 0.9514 0.2765 -0.1352
vn 0.8903 0.2979 0.3443
vn 0.9020 0.2778 0.3305
vn 0.0286 0.2134 -0.9765
vn -0.9635 0.0814 0.2550
usemtl wood
s off
f 15/1/1 49/2/1 3/3/1
f 31/4/2 59/5/2 58/6/2
f 61/7/3 8/8/3 60/9/3
f 57/10/4 29/11/4 30/12/4
f 16/13/5 62/14/5 6/15/5
f 3/16/6 63/17/6 15/18/6
f 64/19/7 22/20/7 65/21/7
f 65/21/8 30/22/8 29/23/8
f 62/14/9 7/24/9 6/15/9
f 18/25/10 77/26/10 81/27/10 19/28/10
f 19/28/11 5/29/11 37/30/11
f 36/31/12 87/32/12 86/33/12 70/34/12
f 5/29/13 35/35/13 68/36/13
f 33/37/14 34/38/14 12/39/14
f 39/40/15 69/41/15 10/42/15
f 39/40/16 32/43/16 69/41/16
f 2/44/17 34/38/17 4/45/17
f 59/5/18 31/4/18 36/31/18
f 61/7/19 59/5/19 70/34/19
f 71/46/20 72/47/20 83/48/20
f 32/43/21 72/47/21 71/46/21
f 33/37/22 71/46/22 34/38/22
f 32/43/23 71/46/23 33/37/23
f 42/49/24 40/50/24 41/51/24 43/52/24
f 11/53/25 43/52/25 41/51/25 10/42/25
f 45/54/26 44/55/26 42/49/26 43/52/26
f 7/56/27 1/57/27 8/58/27 40/50/27
f 43/52/28 11/53/28 45/54/28
f 41/51/29 8/58/29 9/59/29 10/42/29
f 8/58/30 41/51/30 40/50/30
f 13/60/31 45/54/31 12/39/31 2/44/31
f 11/53/32 12/39/32 45/54/32
f 13/60/33 14/61/33 44/55/33 45/54/33
f 14/61/34 16/62/34 6/63/34 44/55/34
f 6/63/35 7/56/35 40/50/35 42/49/35
f 6/63/36 42/49/36 44/55/36
f 48/64/37 15/1/37 46/65/37 47/66/37
f 50/67/38 49/2/38 15/1/38 48/64/38
f 47/66/39 46/65/39 14/61/39 13/60/39
f 16/62/40 14/61/40 46/65/40
f 47/66/41 13/60/41 2/44/41 17/68/41
f 18/25/42 48/64/42 47/66/42 17/68/42
f 19/28/43 50/67/43 48/64/43 18/25/43
f 37/30/44 20/69/44 50/67/44 19/28/44
f 20/69/45 21/70/45 49/2/45 50/67/45
f 54/71/46 53/72/46 51/73/46 52/74/46
f 3/3/47 49/2/47 21/70/47
f 16/62/48 46/65/48 15/1/48
f 55/75/49 53/72/49 54/71/49 56/76/49
f 23/77/50 3/16/50 21/70/50 51/73/50
f 52/74/51 51/73/51 21/70/51 20/69/51
f 24/78/52 52/74/52 20/69/52 37/30/52
f 25/79/53 54/71/53 52/74/53 24/78/53
f 56/76/54 54/71/54 25/79/54 26/80/54
f 27/81/55 56/76/55 26/80/55 38/82/55
f 28/83/56 55/75/56 56/76/56 27/81/56
f 28/83/57 30/22/57 22/20/57 55/75/57
f 22/20/58 23/77/58 51/73/58 53/72/58
f 22/20/59 53/72/59 55/75/59
f 29/11/60 57/10/60 58/6/60 59/5/60
f 60/9/61 29/11/61 59/5/61 61/7/61
f 57/10/62 28/83/62 27/81/62 58/6/62
f 28/83/63 57/10/63 30/12/63
f 58/6/64 27/81/64 38/82/64 31/4/64
f 7/24/65 62/14/65 64/19/65 65/21/65
f 61/7/66 9/84/66 8/8/66
f 60/9/67 8/8/67 1/85/67
f 29/11/68 60/9/68 1/85/68
f 62/14/69 63/17/69 64/19/69
f 62/14/70 16/13/70 15/18/70 63/17/70
f 64/19/71 63/17/71 23/77/71 22/20/71
f 3/16/72 23/77/72 63/17/72
f 29/23/73 1/86/73 7/24/73 65/21/73
f 65/21/74 22/20/74 30/22/74
f 4/45/75 92/87/75 75/88/75 17/68/75 2/44/75
f 18/25/76 17/68/76 75/88/76 73/89/76
f 19/28/77 81/27/77 82/90/77 5/29/77
f 36/31/78 80/91/78 87/32/78
f 67/92/79 66/93/79 26/80/79 25/79/79
f 31/4/80 93/94/80 90/95/80 36/31/80
f 67/92/81 25/79/81 24/78/81 68/36/81
f 68/36/82 24/78/82 37/30/82 5/29/82
f 33/37/83 11/53/83 10/42/83 69/41/83
f 38/82/84 26/80/84 66/93/84
f 11/53/85 33/37/85 12/39/85
f 39/96/86 9/84/86 61/7/86 70/34/86
f 9/59/87 39/40/87 10/42/87
f 69/41/88 32/43/88 33/37/88
f 2/44/89 12/39/89 34/38/89
f 59/5/90 36/31/90 70/34/90
f 31/4/91 38/82/91 91/97/91 79/98/91
f 5/29/92 78/99/92 35/35/92
f 4/45/93 34/38/93 71/46/93
f 39/40/94 85/100/94 76/101/94 32/43/94
f 4/45/95 71/46/95 83/48/95 89/102/95
f 73/89/96 92/87/96 35/35/96
f 82/90/97 77/26/97 73/89/97
f 35/35/98 82/90/98 73/89/98
f 87/32/99 90/95/99 76/101/99
f 85/103/100 86/33/100 87/32/100
f 76/101/101 85/103/101 87/32/101
f 88/104/102 72/47/102 79/98/102
f 72/47/103 76/101/103 79/98/103
f 83/48/104 72/47/104 88/104/104
f 92/87/105 89/102/105 83/48/105
f 73/89/106 75/88/106 92/87/106
f 77/26/107 74/105/107 73/89/107
f 82/90/108 81/27/108 77/26/108
f 35/35/109 78/99/109 82/90/109
f 84/106/110 35/35/110 83/48/110
f 88/104/111 84/106/111 83/48/111
f 79/98/112 91/97/112 88/104/112
f 93/94/113 79/98/113 76/101/113
f 90/95/114 93/94/114 76/101/114
f 87/32/115 80/91/115 90/95/115
f 92/87/116 83/48/116 35/35/116
f 90/95/117 80/91/117 36/31/117
f 73/89/118 74/105/118 18/25/118
f 82/90/119 78/99/119 5/29/119
f 79/98/120 93/94/120 31/4/120
f 84/106/121 88/104/121 66/93/121 67/92/121
f 86/33/122 85/103/122 39/96/122 70/34/122
f 89/102/123 92/87/123 4/45/123
f 35/35/124 84/106/124 67/92/124 68/36/124
f 88/104/125 94/107/125 91/97/125 38/82/125 66/93/125
f 94/107/126 88/104/126 91/97/126
f 74/105/127 77/26/127 18/25/127
f 76/101/128 72/47/128 32/43/128
