# Blender v2.93.3 OBJ File: 'assets.blend'
# www.blender.org
mtllib log-1.mtl
o Cube.018_Cube.100
v -5.324717 0.676166 -1.005686
v -1.236830 -0.736235 0.878050
v -1.236619 0.736235 0.878050
v 5.569109 -0.586856 0.531643
v 5.574203 0.615628 0.506653
v 1.255908 -0.636415 1.062506
v -0.221468 0.352947 -0.957451
v -0.193443 -0.004202 -1.018512
v -0.553687 -0.359292 -0.963906
v 1.222985 -0.855842 -0.351463
v -0.936587 0.896460 0.459217
v -1.622118 0.382956 1.059892
v -1.601408 -0.210727 1.143198
v -5.327703 -0.819619 0.094644
v -3.004817 -0.701846 0.510614
v -2.949131 0.693231 0.527344
v -5.331386 0.562133 0.428389
v -5.325485 -0.668495 -1.021274
v 0.550283 -0.658470 -0.725680
v 4.718097 0.359347 -0.884188
v 5.565835 -0.312469 -0.865075
v 5.569578 -0.789367 0.199650
v 4.713884 -0.873248 -0.064173
v 4.800992 -0.810187 -0.399753
v 4.728265 0.816431 -0.395741
v 4.750466 0.869979 -0.132017
v 5.594275 0.273430 0.708397
v 5.029341 0.002277 0.784292
v 5.588754 -0.305451 0.694319
v 2.583126 -0.655958 0.700044
v 1.382995 0.660113 -0.707711
v 5.553980 0.627066 -0.651282
v 5.554245 -0.625937 -0.649439
v 2.127118 0.669706 0.739126
v -0.448391 -0.907635 0.538465
v 1.004461 -0.830962 0.935237
v 1.323601 -0.210687 1.233723
v 1.240007 0.554027 1.160982
v -0.732850 -0.599502 1.415927
v -0.651010 0.641470 1.404362
v 0.913770 -0.553901 1.502383
v 0.735006 0.729038 1.478111
v -5.334725 -0.240462 0.552893
v -2.998417 0.380514 0.734355
v -3.185024 -0.000248 0.771695
v -3.020509 -0.386504 0.729057
v -1.007985 0.243901 1.465053
v -5.326101 -0.911008 -0.574766
v -5.325981 0.904515 -0.599006
v -5.327232 0.857364 -0.029761
v -5.325122 -0.127636 -1.275900
v -5.325217 0.369435 -1.209534
v 5.570339 0.792045 0.206237
v 1.141506 -0.952011 0.221927
v 2.312107 -0.846607 0.467230
v 1.073286 0.948314 0.167785
v 0.839527 0.895554 0.874628
v 1.897956 0.850574 0.526888
v 5.567022 0.064129 -0.903602
v 2.215842 0.361738 0.883821
v 1.838255 -0.205541 1.033606
v 2.723509 -0.209641 0.886972
v 0.283731 -0.860923 1.426642
v 1.063545 0.192994 1.524838
v 0.223738 0.838313 1.422611
vt 0.451387 0.736296
vt 0.471808 0.741362
vt 0.500000 0.743392
vt 0.609165 0.633824
vt 0.394347 0.650456
vt 0.475595 0.519409
vt 0.627185 0.590339
vt 0.481730 0.495374
vt 0.372258 0.594042
vt 0.537209 0.521197
vt 0.587386 0.557777
vt 0.405000 0.722000
vt 0.421037 0.741141
vt 0.392865 0.590311
vt 0.382817 0.663586
vt 0.386421 0.705225
vt 0.383841 0.693114
vt 0.624495 0.678673
vt 0.617079 0.646663
vt 0.588360 0.714139
vt 0.613840 0.685752
vt 0.598408 0.526636
vt 0.545642 0.519806
vt 0.553480 0.500658
vt 0.401586 0.526629
vt 0.454222 0.519364
vt 0.416636 0.546474
vt 0.392921 0.723784
vt 0.392898 0.690478
vt 0.393687 0.582302
vt 0.385853 0.628781
vt 0.607123 0.700078
vt 0.610850 0.718297
vt 0.614175 0.628932
vt 0.583333 0.547446
vt 0.606349 0.582550
vt 0.500000 0.511263
vt 0.545392 0.519383
vt 0.412682 0.557663
vt 0.456376 0.727443
vt 0.420169 0.705198
vt 0.524918 0.730799
vt 0.548606 0.736260
vt 0.579565 0.734545
vt 0.465464 0.752327
vt 0.500000 0.739340
vt 0.587295 0.693389
vt 0.472530 0.745966
vt 0.416667 0.736671
vt 0.473138 0.742505
vt 0.471174 0.738611
vt 0.525997 0.748327
vt 0.424859 0.745885
vt 0.570057 0.741086
vt 0.597351 0.742947
vt 0.615097 0.738071
vt 0.389980 0.739386
vt 0.587646 0.740159
vt 0.531245 0.745368
vt 0.411610 0.714142
vt 0.549675 0.739320
vt 0.595000 0.722000
vt 0.416667 0.719152
vt 0.583333 0.724532
vt 0.545573 0.739175
vn -0.2497 -0.2107 0.9451
vn 1.0000 -0.0005 -0.0037
vn -1.0000 0.0000 -0.0013
vn 0.9989 0.0017 0.0478
vn -0.4756 -0.6364 0.6074
vn 0.0139 -0.9864 -0.1635
vn -0.0211 -0.9992 0.0340
vn -0.0167 0.9965 0.0825
vn -0.0670 0.8426 0.5343
vn 0.0429 0.5529 -0.8321
vn 0.0439 -0.5183 -0.8541
vn 0.0515 -0.9829 0.1767
vn 0.0101 -0.9832 -0.1821
vn 0.0338 -0.9789 0.2017
vn 0.0746 0.9923 0.0987
vn 0.0224 0.8901 -0.4552
vn -0.0157 0.9975 0.0693
vn 0.0294 0.9873 0.1563
vn 0.0142 0.8247 -0.5653
vn 0.0172 -0.1690 -0.9855
vn 0.0111 0.5951 -0.8036
vn 0.0184 0.1182 -0.9928
vn 0.0162 -0.5671 -0.8235
vn 0.9980 -0.0568 -0.0290
vn 0.9918 -0.1082 0.0674
vn 0.9995 -0.0088 -0.0301
vn -0.1169 0.1530 0.9813
vn 0.1213 0.4083 -0.9047
vn 0.1451 -0.0254 0.9891
vn 0.9964 0.0778 0.0329
vn 0.9996 0.0177 -0.0225
vn 0.9989 -0.0003 -0.0479
vn 0.3361 -0.3969 0.8541
vn 0.0601 -0.1779 0.9822
vn 0.6262 -0.1486 0.7654
vn 0.8279 0.1421 0.5425
vn 0.4791 0.8214 0.3096
vn -0.0189 0.9964 0.0829
vn -0.1223 -0.0020 0.9925
vn -0.0080 0.0098 0.9999
vn -0.0212 0.0016 0.9998
vn -0.1162 -0.0066 0.9932
vn -0.1029 0.0236 0.9944
vn 0.1698 -0.0020 0.9855
vn -1.0000 0.0031 -0.0071
vn -1.0000 0.0059 -0.0017
vn -1.0000 0.0059 -0.0064
vn -1.0000 -0.0000 -0.0012
vn -1.0000 0.0000 -0.0014
vn -0.9999 -0.0115 -0.0008
vn -1.0000 -0.0000 -0.0076
vn -0.1048 -0.6017 0.7918
vn -0.0842 -0.1447 0.9859
vn -0.1759 -0.5494 0.8169
vn -0.2160 0.1561 0.9638
vn -0.1821 0.5817 0.7927
vn -0.4038 0.6174 0.6751
vn -0.0651 0.5579 0.8273
vn 0.0250 -0.8725 -0.4881
vn -0.5322 0.0994 0.8408
vn -0.3644 -0.1722 0.9152
vn -0.0229 -0.9906 0.1352
vn -0.0754 -0.8706 0.4863
vn 0.0476 0.1489 -0.9877
vn 0.0098 0.9903 -0.1384
vn -0.0162 0.9977 0.0658
vn -0.0686 0.8389 0.5400
vn -0.0857 0.9495 0.3019
vn 0.0257 0.8717 -0.4894
vn 0.0539 -0.2050 -0.9773
vn 0.1668 0.9667 -0.1941
vn 0.0385 -0.4256 -0.9041
vn 0.0095 -0.8536 -0.5209
vn 0.0086 -0.9864 -0.1642
vn 0.0397 -0.9728 0.2284
vn 0.0554 -0.8317 0.5524
vn 0.1752 -0.7886 0.5894
vn 0.1996 0.7917 0.5774
vn 0.0360 0.9821 0.1847
vn 0.0561 0.8309 0.5536
vn 0.1633 -0.9708 -0.1757
vn -0.0275 0.9801 -0.1967
vn 0.0144 0.1696 -0.9854
vn 0.0397 0.4973 -0.8667
vn 0.0155 0.6283 -0.7778
vn 0.0210 -0.1018 -0.9946
vn 0.0176 -0.5823 -0.8128
vn 0.3138 0.0887 0.9453
vn 0.1623 0.1495 0.9754
vn 0.3258 0.4773 0.8161
vn 0.2077 -0.3366 0.9184
vn 0.0532 -0.4419 0.8955
vn 0.0467 0.0902 0.9948
vn 0.0623 0.4774 0.8764
vn -0.1766 -0.9452 0.2747
vn 0.3587 -0.8148 0.4554
vn -0.0149 -0.9978 0.0648
vn 0.1746 -0.9647 0.1973
vn -0.1796 0.9348 0.3065
vn 0.7030 -0.3587 0.6141
vn 0.5826 0.4178 0.6971
vn 0.1699 0.9420 0.2894
usemtl wood
s off
f 46/1/1 13/2/1 45/3/1
f 53/4/2 22/5/2 21/6/2
f 49/7/3 51/8/3 48/9/3
f 21/6/4 59/10/4 32/11/4
f 2/12/5 39/13/5 13/2/5
f 48/9/6 10/14/6 54/15/6
f 54/15/7 35/16/7 14/17/7
f 50/18/8 56/19/8 49/7/8
f 50/18/9 16/20/9 11/21/9
f 1/22/10 7/23/10 52/24/10
f 18/25/11 9/26/11 19/27/11
f 36/28/12 54/15/12 55/29/12
f 24/30/13 23/31/13 10/14/13
f 55/29/14 23/31/14 22/5/14
f 58/32/15 56/19/15 57/33/15
f 1/22/16 26/34/16 31/35/16
f 57/33/17 56/19/17 11/21/17
f 26/34/18 58/32/18 53/4/18
f 31/35/19 25/36/19 32/11/19
f 8/37/20 21/6/20 9/26/20
f 7/23/21 31/35/21 20/38/21
f 8/37/22 20/38/22 59/10/22
f 21/6/23 33/39/23 19/27/23
f 22/5/24 33/39/24 21/6/24
f 29/40/25 4/41/25 22/5/25
f 27/42/26 29/40/26 22/5/26
f 45/3/27 44/43/27 17/44/27 43/45/27
f 20/38/28 32/11/28 59/10/28
f 28/46/29 29/40/29 27/42/29
f 53/4/30 5/47/30 27/42/30
f 32/11/31 53/4/31 21/6/31
f 53/4/32 27/42/32 22/5/32
f 37/48/33 6/49/33 61/50/33
f 62/51/34 29/40/34 28/46/34
f 37/48/35 64/52/35 41/53/35
f 38/54/36 64/52/36 37/48/36
f 57/33/37 42/55/37 38/54/37
f 11/21/38 65/56/38 57/33/38
f 65/56/39 63/57/39 64/52/39
f 39/13/40 63/57/40 40/58/40
f 40/58/41 63/57/41 65/56/41
f 41/53/42 64/52/42 63/57/42
f 65/56/43 64/52/43 42/55/43
f 40/58/44 47/59/44 39/13/44
f 43/45/45 17/44/45 50/18/45
f 50/18/46 49/7/46 43/45/46
f 49/7/47 1/22/47 52/24/47
f 51/8/48 49/7/48 52/24/48
f 51/8/49 18/25/49 48/9/49
f 48/9/50 14/17/50 43/45/50
f 43/45/51 49/7/51 48/9/51
f 15/60/52 46/1/52 43/45/52 14/17/52
f 43/45/53 46/1/53 45/3/53
f 13/2/54 46/1/54 15/60/54 2/12/54
f 13/2/55 12/61/55 44/43/55 45/3/55
f 12/61/56 3/62/56 16/20/56 44/43/56
f 47/59/57 40/58/57 3/62/57 12/61/57
f 17/44/58 44/43/58 16/20/58
f 19/27/59 10/14/59 48/9/59 18/25/59
f 12/61/60 13/2/60 47/59/60
f 13/2/61 39/13/61 47/59/61
f 14/17/62 48/9/62 54/15/62
f 35/16/63 2/12/63 15/60/63 14/17/63
f 8/37/64 51/8/64 52/24/64 7/23/64
f 49/7/65 56/19/65 26/34/65
f 50/18/66 11/21/66 56/19/66
f 17/44/67 16/20/67 50/18/67
f 16/20/68 3/62/68 11/21/68
f 49/7/69 26/34/69 1/22/69
f 9/26/70 51/8/70 8/37/70
f 53/4/71 32/11/71 25/36/71 26/34/71
f 18/25/72 51/8/72 9/26/72
f 19/27/73 33/39/73 24/30/73 10/14/73
f 23/31/74 54/15/74 10/14/74
f 55/29/75 54/15/75 23/31/75
f 22/5/76 4/41/76 30/63/76 55/29/76
f 55/29/77 30/63/77 6/49/77 36/28/77
f 58/32/78 57/33/78 38/54/78 34/64/78
f 26/34/79 56/19/79 58/32/79
f 34/64/80 5/47/80 53/4/80 58/32/80
f 22/5/81 23/31/81 24/30/81 33/39/81
f 31/35/82 26/34/82 25/36/82
f 8/37/83 7/23/83 20/38/83
f 7/23/84 1/22/84 31/35/84
f 20/38/85 31/35/85 32/11/85
f 8/37/86 59/10/86 21/6/86
f 9/26/87 21/6/87 19/27/87
f 60/65/88 38/54/88 37/48/88 61/50/88
f 61/50/89 62/51/89 60/65/89
f 38/54/90 60/65/90 34/64/90
f 30/63/91 62/51/91 61/50/91 6/49/91
f 4/41/92 29/40/92 62/51/92 30/63/92
f 27/42/93 60/65/93 62/51/93 28/46/93
f 5/47/94 34/64/94 60/65/94 27/42/94
f 39/13/95 2/12/95 35/16/95 63/57/95
f 41/53/96 63/57/96 36/28/96 6/49/96
f 35/16/97 54/15/97 63/57/97
f 54/15/98 36/28/98 63/57/98
f 40/58/99 65/56/99 11/21/99 3/62/99
f 6/49/100 37/48/100 41/53/100
f 38/54/101 42/55/101 64/52/101
f 57/33/102 65/56/102 42/55/102
